<svg version="1.1" xmlns="http://www.w3.org/2000/svg" xmlns:xlink="http://www.w3.org/1999/xlink" width="800" height="851"><defs><clipPath id="pneXXkVrAlgn"><path fill="none" stroke="none" d=" M 0 0 L 800 0 L 800 851 L 0 851 L 0 0 Z"/></clipPath></defs><g transform="scale(1,1)" clip-path="url(#pneXXkVrAlgn)"><g><rect fill="rgb(255,255,255)" stroke="none" x="0" y="0" width="800" height="851" fill-opacity="1"/><path fill="none" stroke="rgb(192,192,192)" paint-order="fill stroke markers" d=" M 340.5 0.5 L 340.5 851.5 M 525.5 0.5 L 525.5 851.5 M 711.5 0.5 L 711.5 851.5" stroke-opacity="1" stroke-linecap="round" stroke-linejoin="round" stroke-miterlimit="10"/><path fill="none" stroke="rgb(192,192,192)" paint-order="fill stroke markers" d=" M 6.5 0.5 L 6.5 851.5 M 43.5 0.5 L 43.5 851.5 M 80.5 0.5 L 80.5 851.5 M 117.5 0.5 L 117.5 851.5 M 192.5 0.5 L 192.5 851.5 M 229.5 0.5 L 229.5 851.5 M 266.5 0.5 L 266.5 851.5 M 303.5 0.5 L 303.5 851.5 M 377.5 0.5 L 377.5 851.5 M 414.5 0.5 L 414.5 851.5 M 451.5 0.5 L 451.5 851.5 M 488.5 0.5 L 488.5 851.5 M 562.5 0.5 L 562.5 851.5 M 599.5 0.5 L 599.5 851.5 M 636.5 0.5 L 636.5 851.5 M 674.5 0.5 L 674.5 851.5 M 748.5 0.5 L 748.5 851.5 M 785.5 0.5 L 785.5 851.5" stroke-opacity="0.23529411764705882" stroke-linecap="round" stroke-linejoin="round" stroke-miterlimit="10"/><path fill="none" stroke="rgb(192,192,192)" paint-order="fill stroke markers" d=" M 0.5 82.5 L 800.5 82.5 M 0.5 82.5 L 800.5 82.5 M 0.5 268.5 L 800.5 268.5 M 0.5 453.5 L 800.5 453.5 M 0.5 824.5 L 800.5 824.5" stroke-opacity="1" stroke-linecap="round" stroke-linejoin="round" stroke-miterlimit="10"/><path fill="none" stroke="rgb(192,192,192)" paint-order="fill stroke markers" d=" M 0.5 8.5 L 800.5 8.5 M 0.5 8.5 L 800.5 8.5 M 0.5 45.5 L 800.5 45.5 M 0.5 119.5 L 800.5 119.5 M 0.5 156.5 L 800.5 156.5 M 0.5 194.5 L 800.5 194.5 M 0.5 231.5 L 800.5 231.5 M 0.5 305.5 L 800.5 305.5 M 0.5 342.5 L 800.5 342.5 M 0.5 379.5 L 800.5 379.5 M 0.5 416.5 L 800.5 416.5 M 0.5 490.5 L 800.5 490.5 M 0.5 527.5 L 800.5 527.5 M 0.5 564.5 L 800.5 564.5 M 0.5 601.5 L 800.5 601.5 M 0.5 675.5 L 800.5 675.5 M 0.5 713.5 L 800.5 713.5 M 0.5 750.5 L 800.5 750.5 M 0.5 787.5 L 800.5 787.5" stroke-opacity="0.23529411764705882" stroke-linecap="round" stroke-linejoin="round" stroke-miterlimit="10"/><path fill="none" stroke="rgb(37,37,37)" paint-order="fill stroke markers" d=" M 155.5 2.5 L 155.5 851.5" stroke-opacity="1" stroke-miterlimit="10"/><path fill="none" stroke="rgb(37,37,37)" paint-order="fill stroke markers" d=" M 155.5 1.5 L 147.5 9.5" stroke-opacity="1" stroke-miterlimit="10"/><path fill="none" stroke="rgb(37,37,37)" paint-order="fill stroke markers" d=" M 155.5 1.5 L 163.5 9.5" stroke-opacity="1" stroke-miterlimit="10"/><text fill="rgb(37,37,37)" stroke="none" font-family="geogebra-sans-serif, sans-serif" font-size="32px" font-style="normal" font-weight="normal" text-decoration="normal" x="774" y="634" text-anchor="start" dominant-baseline="alphabetic" fill-opacity="1">x</text><path fill="none" stroke="rgb(37,37,37)" paint-order="fill stroke markers" d=" M 0.5 638.5 L 798.5 638.5" stroke-opacity="1" stroke-miterlimit="10"/><path fill="none" stroke="rgb(37,37,37)" paint-order="fill stroke markers" d=" M 799.5 638.5 L 791.5 630.5" stroke-opacity="1" stroke-miterlimit="10"/><path fill="none" stroke="rgb(37,37,37)" paint-order="fill stroke markers" d=" M 799.5 638.5 L 791.5 646.5" stroke-opacity="1" stroke-miterlimit="10"/><text fill="rgb(37,37,37)" stroke="none" font-family="geogebra-sans-serif, sans-serif" font-size="24px" font-style="normal" font-weight="normal" text-decoration="normal" x="335" y="666" text-anchor="start" dominant-baseline="alphabetic" fill-opacity="1">1</text><text fill="none" stroke="rgb(255,255,255)" font-family="geogebra-sans-serif, sans-serif" font-size="24px" font-style="normal" font-weight="normal" text-decoration="normal" x="335" y="666" text-anchor="start" dominant-baseline="alphabetic" stroke-opacity="1" stroke-linejoin="bevel" stroke-miterlimit="10" stroke-width="3">1</text><text fill="rgb(37,37,37)" stroke="none" font-family="geogebra-sans-serif, sans-serif" font-size="24px" font-style="normal" font-weight="normal" text-decoration="normal" x="335" y="666" text-anchor="start" dominant-baseline="alphabetic" fill-opacity="1">1</text><text fill="rgb(37,37,37)" stroke="none" font-family="geogebra-sans-serif, sans-serif" font-size="24px" font-style="normal" font-weight="normal" text-decoration="normal" x="520" y="666" text-anchor="start" dominant-baseline="alphabetic" fill-opacity="1">2</text><text fill="none" stroke="rgb(255,255,255)" font-family="geogebra-sans-serif, sans-serif" font-size="24px" font-style="normal" font-weight="normal" text-decoration="normal" x="520" y="666" text-anchor="start" dominant-baseline="alphabetic" stroke-opacity="1" stroke-linejoin="bevel" stroke-miterlimit="10" stroke-width="3">2</text><text fill="rgb(37,37,37)" stroke="none" font-family="geogebra-sans-serif, sans-serif" font-size="24px" font-style="normal" font-weight="normal" text-decoration="normal" x="520" y="666" text-anchor="start" dominant-baseline="alphabetic" fill-opacity="1">2</text><text fill="rgb(37,37,37)" stroke="none" font-family="geogebra-sans-serif, sans-serif" font-size="24px" font-style="normal" font-weight="normal" text-decoration="normal" x="706" y="666" text-anchor="start" dominant-baseline="alphabetic" fill-opacity="1">3</text><text fill="none" stroke="rgb(255,255,255)" font-family="geogebra-sans-serif, sans-serif" font-size="24px" font-style="normal" font-weight="normal" text-decoration="normal" x="706" y="666" text-anchor="start" dominant-baseline="alphabetic" stroke-opacity="1" stroke-linejoin="bevel" stroke-miterlimit="10" stroke-width="3">3</text><text fill="rgb(37,37,37)" stroke="none" font-family="geogebra-sans-serif, sans-serif" font-size="24px" font-style="normal" font-weight="normal" text-decoration="normal" x="706" y="666" text-anchor="start" dominant-baseline="alphabetic" fill-opacity="1">3</text><text fill="rgb(37,37,37)" stroke="none" font-family="geogebra-sans-serif, sans-serif" font-size="32px" font-style="normal" font-weight="normal" text-decoration="normal" x="160" y="30" text-anchor="start" dominant-baseline="alphabetic" fill-opacity="1">F(x)</text><text fill="rgb(37,37,37)" stroke="none" font-family="geogebra-sans-serif, sans-serif" font-size="24px" font-style="normal" font-weight="normal" text-decoration="normal" x="118" y="835" text-anchor="start" dominant-baseline="alphabetic" fill-opacity="1">–1</text><text fill="none" stroke="rgb(255,255,255)" font-family="geogebra-sans-serif, sans-serif" font-size="24px" font-style="normal" font-weight="normal" text-decoration="normal" x="118" y="835" text-anchor="start" dominant-baseline="alphabetic" stroke-opacity="1" stroke-linejoin="bevel" stroke-miterlimit="10" stroke-width="3">–1</text><text fill="rgb(37,37,37)" stroke="none" font-family="geogebra-sans-serif, sans-serif" font-size="24px" font-style="normal" font-weight="normal" text-decoration="normal" x="118" y="835" text-anchor="start" dominant-baseline="alphabetic" fill-opacity="1">–1</text><text fill="rgb(37,37,37)" stroke="none" font-family="geogebra-sans-serif, sans-serif" font-size="24px" font-style="normal" font-weight="normal" text-decoration="normal" x="131" y="464" text-anchor="start" dominant-baseline="alphabetic" fill-opacity="1">1</text><text fill="none" stroke="rgb(255,255,255)" font-family="geogebra-sans-serif, sans-serif" font-size="24px" font-style="normal" font-weight="normal" text-decoration="normal" x="131" y="464" text-anchor="start" dominant-baseline="alphabetic" stroke-opacity="1" stroke-linejoin="bevel" stroke-miterlimit="10" stroke-width="3">1</text><text fill="rgb(37,37,37)" stroke="none" font-family="geogebra-sans-serif, sans-serif" font-size="24px" font-style="normal" font-weight="normal" text-decoration="normal" x="131" y="464" text-anchor="start" dominant-baseline="alphabetic" fill-opacity="1">1</text><text fill="rgb(37,37,37)" stroke="none" font-family="geogebra-sans-serif, sans-serif" font-size="24px" font-style="normal" font-weight="normal" text-decoration="normal" x="131" y="279" text-anchor="start" dominant-baseline="alphabetic" fill-opacity="1">2</text><text fill="none" stroke="rgb(255,255,255)" font-family="geogebra-sans-serif, sans-serif" font-size="24px" font-style="normal" font-weight="normal" text-decoration="normal" x="131" y="279" text-anchor="start" dominant-baseline="alphabetic" stroke-opacity="1" stroke-linejoin="bevel" stroke-miterlimit="10" stroke-width="3">2</text><text fill="rgb(37,37,37)" stroke="none" font-family="geogebra-sans-serif, sans-serif" font-size="24px" font-style="normal" font-weight="normal" text-decoration="normal" x="131" y="279" text-anchor="start" dominant-baseline="alphabetic" fill-opacity="1">2</text><text fill="rgb(37,37,37)" stroke="none" font-family="geogebra-sans-serif, sans-serif" font-size="24px" font-style="normal" font-weight="normal" text-decoration="normal" x="131" y="93" text-anchor="start" dominant-baseline="alphabetic" fill-opacity="1">3</text><text fill="none" stroke="rgb(255,255,255)" font-family="geogebra-sans-serif, sans-serif" font-size="24px" font-style="normal" font-weight="normal" text-decoration="normal" x="131" y="93" text-anchor="start" dominant-baseline="alphabetic" stroke-opacity="1" stroke-linejoin="bevel" stroke-miterlimit="10" stroke-width="3">3</text><text fill="rgb(37,37,37)" stroke="none" font-family="geogebra-sans-serif, sans-serif" font-size="24px" font-style="normal" font-weight="normal" text-decoration="normal" x="131" y="93" text-anchor="start" dominant-baseline="alphabetic" fill-opacity="1">3</text><text fill="rgb(37,37,37)" stroke="none" font-family="geogebra-sans-serif, sans-serif" font-size="24px" font-style="normal" font-weight="normal" text-decoration="normal" x="131" y="666" text-anchor="start" dominant-baseline="alphabetic" fill-opacity="1">0</text><text fill="none" stroke="rgb(255,255,255)" font-family="geogebra-sans-serif, sans-serif" font-size="24px" font-style="normal" font-weight="normal" text-decoration="normal" x="131" y="666" text-anchor="start" dominant-baseline="alphabetic" stroke-opacity="1" stroke-linejoin="bevel" stroke-miterlimit="10" stroke-width="3">0</text><text fill="rgb(37,37,37)" stroke="none" font-family="geogebra-sans-serif, sans-serif" font-size="24px" font-style="normal" font-weight="normal" text-decoration="normal" x="131" y="666" text-anchor="start" dominant-baseline="alphabetic" fill-opacity="1">0</text><path fill="none" stroke="rgb(211,47,47)" paint-order="fill stroke markers" d=" M 0 638.9155338179604 L 0.6054836034223854 638.9155338179604 L 1.2109672068447423 638.9155338179604 L 1.8164508102670993 638.9155338179604 L 2.4219344136894563 638.9155338179604 L 3.0274180171118417 638.9155338179604 L 3.6329016205341986 638.9155338179604 L 4.238385223956556 638.9155338179604 L 4.843868827378941 638.9155338179604 L 5.449352430801298 638.9155338179604 L 6.054836034223655 638.9155338179604 L 6.66031963764604 638.9155338179604 L 7.265803241068397 638.9155338179604 L 7.871286844490754 638.9155338179604 L 8.476770447913111 638.9155338179604 L 9.082254051335497 638.9155338179604 L 9.687737654757854 638.9155338179604 L 10.29322125818021 638.9155338179604 L 10.898704861602596 638.9155338179604 L 11.504188465024981 638.9155338179604 L 12.10967206844731 638.9155338179604 L 12.715155671869695 638.9155338179604 L 13.320639275292052 638.9155338179604 L 13.92612287871441 638.9155338179604 L 14.531606482136795 638.9155338179604 L 15.137090085559151 638.9155338179604 L 15.742573688981508 638.9155338179604 L 16.348057292403894 638.9155338179604 L 16.95354089582625 638.9155338179604 L 17.559024499248636 638.9155338179604 L 18.164508102670965 638.9155338179604 L 18.76999170609335 638.9155338179604 L 19.375475309515735 638.9155338179604 L 19.980958912938064 638.9155338179604 L 20.58644251636045 638.9155338179604 L 21.191926119782806 638.9155338179604 L 21.79740972320519 638.9155338179604 L 22.40289332662755 638.9155338179604 L 23.008376930049906 638.9155338179604 L 23.61386053347229 638.9155338179604 L 24.21934413689462 638.9155338179604 L 24.824827740317005 638.9155338179604 L 25.43031134373939 638.9155338179604 L 26.03579494716172 638.9155338179604 L 26.641278550584104 638.9155338179604 L 27.24676215400646 638.9155338179604 L 27.852245757428832 638.9155338179604 L 28.457729360851204 638.9155338179604 L 29.06321296427356 638.9155338179604 L 29.66869656769593 638.9155338179604 L 30.27418017111829 638.9155338179604 L 30.87966377454066 638.9155338179604 L 31.48514737796303 638.9155338179604 L 32.09063098138539 638.9155338179604 L 32.69611458480776 638.9155338179604 L 33.301598188230116 638.9155338179604 L 33.90708179165249 638.9155338179604 L 34.51256539507486 638.9155338179604 L 35.118048998497216 638.9155338179604 L 35.72353260191959 638.9155338179604 L 36.329016205341944 638.9155338179604 L 36.934499808764315 638.9155338179604 L 37.539983412186686 638.9155338179604 L 38.14546701560906 638.9155338179604 L 38.750950619031414 638.9155338179604 L 39.35643422245377 638.9155338179604 L 39.96191782587614 638.9155338179604 L 40.56740142929851 638.9155338179604 L 41.172885032720885 638.9155338179604 L 41.77836863614324 638.9155338179604 L 42.38385223956561 638.9155338179604 L 42.98933584298797 638.9155338179604 L 43.59481944641034 638.9155338179604 L 44.20030304983271 638.9155338179604 L 44.80578665325507 638.9155338179604 L 45.41127025667744 638.9155338179604 L 46.0167538600998 638.9155338179604 L 46.62223746352217 638.9155338179604 L 47.22772106694454 638.9155338179604 L 47.8332046703669 638.9155338179604 L 48.43868827378927 638.9155338179604 L 49.044171877211625 638.9155338179604 L 49.649655480633996 638.9155338179604 L 50.25513908405637 638.9155338179604 L 50.860622687478724 638.9155338179604 L 51.466106290901095 638.9155338179604 L 52.07158989432345 638.9155338179604 L 52.67707349774582 638.9155338179604 L 53.282557101168194 638.9155338179604 L 53.88804070459055 638.9155338179604 L 54.49352430801292 638.9155338179604 L 55.09900791143528 638.9155338179604 L 55.70449151485765 638.9155338179604 L 56.30997511828002 638.9155338179604 L 56.91545872170241 638.9155338179604 L 57.52094232512475 638.9155338179604 L 58.12642592854711 638.9155338179604 L 58.73190953196948 638.9155338179604 L 59.33739313539185 638.9155338179604 L 59.942876738814235 638.9155338179604 L 60.54836034223658 638.9155338179604 L 61.153843945658934 638.9155338179604 L 61.759327549081306 638.9155338179604 L 62.36481115250368 638.9155338179604 L 62.97029475592605 638.9155338179604 L 63.575778359348405 638.9155338179604 L 64.18126196277078 638.9155338179604 L 64.78674556619313 638.9155338179604 L 65.3922291696155 638.9155338179604 L 65.99771277303788 638.9155338179604 L 66.60319637646023 638.9155338179604 L 67.2086799798826 638.9155338179604 L 67.81416358330496 638.9155338179604 L 68.41964718672733 638.9155338179604 L 69.0251307901497 638.9155338179604 L 69.63061439357206 638.9155338179604 L 70.23609799699443 638.9155338179604 L 70.8415816004168 638.9155338179604 L 71.44706520383916 638.9155338179604 L 72.05254880726153 638.9155338179604 L 72.65803241068389 638.9155338179604 L 73.26351601410626 638.9155338179604 L 73.86899961752863 638.9155338179604 L 74.47448322095099 638.9155338179604 L 75.07996682437336 638.9155338179604 L 75.68545042779571 638.9155338179604 L 76.29093403121809 638.9155338179604 L 76.89641763464046 638.9155338179604 L 77.50190123806281 638.9155338179604 L 78.10738484148519 638.9155338179604 L 78.71286844490754 638.9155338179604 L 79.31835204832991 638.9155338179604 L 79.92383565175228 638.9155338179604 L 80.52931925517464 638.9155338179604 L 81.13480285859701 638.9155338179604 L 81.74028646201938 638.9155338179604 L 82.34577006544174 638.9155338179604 L 82.95125366886411 638.9155338179604 L 83.55673727228647 638.9155338179604 L 84.16222087570884 638.9155338179604 L 84.76770447913121 638.9155338179604 L 85.37318808255357 638.9155338179604 L 85.97867168597594 638.9155338179604 L 86.5841552893983 638.9155338179604 L 87.18963889282068 638.9155338179604 L 87.79512249624304 638.9155338179604 L 88.40060609966541 638.9155338179604 L 89.00608970308777 638.9155338179604 L 89.61157330651012 638.9155338179604 L 90.21705690993251 638.9155338179604 L 90.82254051335487 638.9155338179604 L 91.42802411677724 638.9155338179604 L 92.0335077201996 638.9155338179604 L 92.63899132362195 638.9155338179604 L 93.24447492704434 638.9155338179604 L 93.8499585304667 638.9155338179604 L 94.45544213388905 638.9155338179604 L 95.06092573731144 638.9155338179604 L 95.6664093407338 638.9155338179604 L 96.27189294415615 638.9155338179604 L 96.87737654757854 638.9155338179604 L 97.48286015100089 638.9155338179604 L 98.08834375442325 638.9155338179604 L 98.6938273578456 638.9155338179604 L 99.29931096126799 638.9155338179604 L 99.90479456469036 638.9155338179604 L 100.5102781681127 638.9155338179604 L 101.11576177153509 638.9155338179604 L 101.72124537495745 638.9155338179604 L 102.3267289783798 638.9155338179604 L 102.93221258180219 638.9155338179604 L 103.53769618522455 638.9155338179604 L 104.1431797886469 638.9155338179604 L 104.74866339206926 638.9155338179604 L 105.35414699549165 638.9155338179604 L 105.95963059891402 638.9155338179604 L 106.56511420233636 638.9155338179604 L 107.17059780575875 638.9155338179604 L 107.7760814091811 638.9155338179604 L 108.38156501260346 638.9155338179604 L 108.98704861602585 638.9155338179604 L 109.5925322194482 638.9155338179604 L 110.19801582287056 638.9155338179604 L 110.80349942629294 638.9155338179604 L 111.4089830297153 638.9155338179604 L 112.01446663313767 638.9155338179604 L 112.61995023656002 638.9155338179604 L 113.2254338399824 638.9155338179604 L 113.83091744340477 638.9155338179604 L 114.43640104682711 638.9155338179604 L 115.0418846502495 638.9155338179604 L 115.64736825367186 638.9155338179604 L 116.25285185709421 638.9155338179604 L 116.8583354605166 638.9155338179604 L 117.46381906393896 638.9155338179604 L 118.06930266736133 638.9155338179604 L 118.67478627078367 638.9155338179604 L 119.28026987420606 638.9155338179604 L 119.88575347762843 638.9155338179604 L 120.49123708105077 638.9155338179604 L 121.09672068447315 638.9155338179604 L 121.70220428789551 638.9155338179604 L 122.30768789131787 638.9155338179604 L 122.91317149474025 638.9155338179604 L 123.51865509816261 638.9155338179604 L 124.12413870158498 638.9155338179604 L 124.72962230500735 638.9155338179604 L 125.33510590842971 638.9155338179604 L 125.94058951185208 638.9155338179604 L 126.54607311527442 638.9155338179604 L 127.15155671869681 638.9155338179604 L 127.75704032211918 638.9155338179604 L 128.36252392554152 638.9155338179604 L 128.9680075289639 638.9155338179604 L 129.57349113238627 638.9155338179604 L 130.17897473580862 638.9155338179604 L 130.784458339231 638.9155338179604 L 131.38994194265337 638.9155338179604 L 131.99542554607575 638.9155338179604 L 132.60090914949808 638.9155338179604 L 133.20639275292046 638.9155338179604 L 133.81187635634285 638.9155338179604 L 134.41735995976518 638.9155338179604 L 135.02284356318756 638.9155338179604 L 135.62832716660992 638.9155338179604 L 136.23381077003228 638.9155338179604 L 136.83929437345466 638.9155338179604 L 137.44477797687702 638.9155338179604 L 138.05026158029938 638.9155338179604 L 138.65574518372176 638.9155338179604 L 139.26122878714412 638.9155338179604 L 139.86671239056648 638.9155338179604 L 140.47219599398883 638.9155338179604 L 141.07767959741122 638.9155338179604 L 141.6831632008336 638.9155338179604 L 142.28864680425593 638.9155338179604 L 142.89413040767832 638.9155338179604 L 143.49961401110068 638.9155338179604 L 144.10509761452303 638.9155338179604 L 144.71058121794542 638.9155338179604 L 145.31606482136777 638.9155338179604 L 145.92154842479016 638.9155338179604 L 146.5270320282125 638.9155338179604 L 147.13251563163487 638.9155338179604 L 147.73799923505726 638.9155338179604 L 148.3434828384796 638.9155338179604 L 148.94896644190197 638.9155338179604 L 149.55445004532436 638.9155338179604 L 150.1599336487467 638.9155338179604 L 150.76541725216907 638.9155338179604 L 151.37090085559143 638.9155338179604 L 151.9763844590138 638.9155338179604 L 152.58186806243617 638.9155338179604 L 153.18735166585853 638.9155338179604 L 153.7928352692809 638.9155338179604 L 154.39831887270324 638.9155338179604 L 155.00380247612563 638.9155338179604 M 155.00380247612563 638.9155338179604 L 155.00390247612563 638.9155338179604 M 155.00380247612563 638.9155338179604 L 156.45190189927214 638.9127054987746 L 157.9000013224187 638.9042205412171 L 159.3481007455652 638.8900789452879 L 160.79620016871172 638.8702807109871 L 162.24429959185827 638.8448258383146 L 163.69239901500478 638.8137143272704 L 165.1404984381513 638.7769461778546 L 166.58859786129784 638.7345213900671 L 168.03669728444436 638.6864399639079 L 169.48479670759087 638.6327018993771 L 170.93289613073742 638.5733071964746 L 172.38099555388393 638.5082558552004 L 173.82909497703045 638.4375478755546 L 175.277194400177 638.3611832575372 L 176.7252938233235 638.2791620011479 L 178.17339324647003 638.1914841063872 L 179.62149266961657 638.0981495732547 L 181.0695920927631 637.9991584017505 L 182.5176915159096 637.8945105918747 L 183.96579093905615 637.7842061436272 L 185.41389036220266 637.668245057008 L 186.86198978534918 637.5466273320172 L 188.3100892084957 637.4193529686547 L 189.75818863164224 637.2864219669206 L 191.20628805478876 637.1478343268147 L 192.6543874779353 637.0035900483373 L 194.10248690108182 636.8536891314881 L 195.55058632422833 636.6981315762673 L 196.99868574737485 636.5369173826748 L 198.4467851705214 636.3700465507106 L 199.8948845936679 636.1975190803748 L 201.34298401681446 636.0193349716674 L 202.79108343996097 635.8354942245882 L 204.2391828631075 635.6459968391374 L 205.687282286254 635.4508428153149 L 207.13538170940055 635.2500321531207 L 208.58348113254706 635.0435648525549 L 210.0315805556936 634.8314409136175 L 211.47967997884012 634.6136603363084 L 212.92777940198664 634.3902231206275 L 214.37587882513316 634.161129266575 L 215.8239782482797 633.9263787741509 L 217.27207767142622 633.6859716433551 L 218.72017709457276 633.4399078741876 L 220.16827651771928 633.1881874666485 L 221.6163759408658 632.9308104207377 L 223.0644753640123 632.6677767364552 L 224.51257478715885 632.399086413801 L 225.96067421030537 632.1247394527752 L 227.40877363345191 631.8447358533778 L 228.85687305659843 631.5590756156087 L 230.30497247974495 631.2677587394678 L 231.75307190289146 630.9707852249553 L 233.20117132603798 630.6681550720712 L 234.64927074918452 630.3598682808154 L 236.09737017233107 630.0459248511879 L 237.54546959547758 629.7263247831888 L 238.9935690186241 629.401068076818 L 240.44166844177062 629.0701547320755 L 241.88976786491713 628.7335847489614 L 243.33786728806368 628.3913581274757 L 244.78596671121022 628.0434748676181 L 246.23406613435674 627.689934969389 L 247.68216555750325 627.3307384327882 L 249.13026498064977 626.9658852578158 L 250.5783644037963 626.5953754444716 L 252.02646382694283 626.2192089927559 L 253.47456325008937 625.8373859026683 L 254.9226626732359 625.4499061742092 L 256.3707620963824 625.0567698073784 L 257.8188615195289 624.657976802176 L 259.26696094267544 624.2535271586019 L 260.71506036582196 623.8434208766561 L 262.1631597889685 623.4276579563386 L 263.61125921211504 623.0062383976494 L 265.05935863526156 622.5791622005887 L 266.5074580584081 622.1464293651562 L 267.9555574815546 621.7080398913521 L 269.40365690470117 621.2639937791763 L 270.8517563278476 620.8142910286289 L 272.2998557509942 620.3589316397097 L 273.7479551741407 619.897915612419 L 275.19605459728723 619.4312429467565 L 276.64415402043375 618.9589136427223 L 278.09225344358026 618.4809277003166 L 279.54035286672683 617.9972851195391 L 280.98845228987335 617.5079859003899 L 282.43655171301987 617.0130300428692 L 283.8846511361664 616.5124175469767 L 285.3327505593129 616.0061484127126 L 286.7808499824595 615.4942226400768 L 288.22894940560593 614.9766402290694 L 289.6770488287525 614.4534011796903 L 291.125148251899 613.9245054919395 L 292.57324767504554 613.389953165817 L 294.0213470981921 612.849744201323 L 295.46944652133857 612.3038785984571 L 296.91754594448514 611.7523563572197 L 298.3656453676316 611.1951774776106 L 299.8137447907782 610.6323419596298 L 301.2618442139247 610.0638498032774 L 302.7099436370712 609.4897010085533 L 304.1580430602178 608.9098955754575 L 305.60614248336424 608.32443350399 L 307.0542419065108 607.7333147941509 L 308.5023413296573 607.1365394459402 L 309.95044075280384 606.5341074593578 L 311.39854017595036 605.9260188344036 L 312.8466395990969 605.3122735710779 L 314.29473902224345 604.6928716693805 L 315.7428384453899 604.0678131293113 L 317.1909378685365 603.4370979508706 L 318.639037291683 602.8007261340581 L 320.0871367148295 602.158697678874 L 321.5352361379761 601.5110125853182 L 322.98333556112254 600.8576708533908 L 324.4314349842691 600.1986724830917 L 325.87953440741563 599.5340174744209 L 327.32763383056215 598.8637058273785 L 328.77573325370867 598.1877375419643 L 330.2238326768552 597.5061126181786 L 331.67193210000175 596.8188310560212 L 333.1200315231482 596.1258928554921 L 334.5681309462948 595.4272980165913 L 336.0162303694413 594.7230465393188 L 337.4643297925878 594.0131384236748 L 338.9124292157344 593.2975736696591 L 340.36052863888085 592.5763522772716 L 341.8086280620274 591.8494742465125 L 343.25672748517394 591.1169395773817 L 344.70482690832046 590.3787482698793 L 346.152926331467 589.6349003240052 L 347.6010257546135 588.8853957397595 L 349.04912517776006 588.1302345171421 L 350.4972246009065 587.3694166561529 L 351.9453240240531 586.6029421567922 L 353.3934234471996 585.8308110190598 L 354.8415228703461 585.0530232429556 L 356.2896222934927 584.2695788284799 L 357.73772171663916 583.4804777756325 L 359.18582113978573 582.6857200844134 L 360.63392056293225 581.8853057548226 L 362.08201998607876 581.0792347868602 L 363.5301194092253 580.2675071805261 L 364.9782188323718 579.4501229358203 L 366.42631825551837 578.6270820527429 L 367.8744176786648 577.7983845312939 L 369.3225171018114 576.9640303714731 L 370.7706165249579 576.1240195732807 L 372.21871594810443 575.2783521367166 L 373.666815371251 574.4270280617809 L 375.11491479439746 573.5700473484735 L 376.56301421754404 572.7074099967944 L 378.01111364069055 571.8391160067437 L 379.45921306383707 570.9651653783212 L 380.9073124869836 570.0855581115271 L 382.3554119101301 569.2002942063614 L 383.8035113332767 568.309373662824 L 385.25161075642313 567.4127964809148 L 386.6997101795697 566.5105626606342 L 388.1478096027162 565.6026722019817 L 389.59590902586274 564.6891251049576 L 391.04400844900925 563.7699213695619 L 392.49210787215577 562.8450609957945 L 393.94020729530234 561.9145439836554 L 395.3883067184488 560.9783703331447 L 396.8364061415954 560.0365400442622 L 398.2845055647419 559.0890531170082 L 399.7326049878884 558.1359095513825 L 401.180704411035 557.1771093473851 L 402.62880383418144 556.212652505016 L 404.076903257328 555.2425390242752 L 405.52500268047453 554.2667689051628 L 406.97310210362104 553.2853421476788 L 408.42120152676756 552.298258751823 L 409.8693009499141 551.3055187175956 L 411.31740037306065 550.3071220449965 L 412.7654997962071 549.3030687340258 L 414.2135992193537 548.2933587846834 L 415.66169864250026 547.2779921969693 L 417.1097980656467 546.2569689708836 L 418.5578974887933 545.2302891064262 L 420.00599691193975 544.1979526035972 L 421.4540963350863 543.1599594623964 L 422.9021957582328 542.1163096828241 L 424.35029518137935 541.06700326488 L 425.7983946045259 540.0120402085643 L 427.2464940276724 538.9514205138769 L 428.69459345081896 537.8851441808177 L 430.1426928739654 536.8132112093871 L 431.590792297112 535.7356215995846 L 433.03889172025856 534.6523753514106 L 434.486991143405 533.5634724648648 L 435.9350905665516 532.4689129399475 L 437.38318998969805 531.3686967766585 L 438.8312894128446 530.2628239749977 L 440.2793888359911 529.1512945349652 L 441.72748825913766 528.0341084565612 L 443.17558768228423 526.9112657397854 L 444.6236871054307 525.7827663846381 L 446.07178652857726 524.6486103911191 L 447.5198859517237 523.5087977592283 L 448.9679853748703 522.363328488966 L 450.41608479801675 521.2122025803319 L 451.8641842211633 520.0554200333262 L 453.3122836443099 518.8929808479488 L 454.76038306745636 517.7248850241997 L 456.20848249060293 516.551132562079 L 457.6565819137494 515.3717234615866 L 459.10468133689596 514.1866577227225 L 460.55278076004254 512.9959353454868 L 462.000880183189 511.79955632987947 L 463.44897960633557 510.59752067590045 L 464.89707902948203 509.3898283835497 L 466.3451784526286 508.1764794528273 L 467.79327787577506 506.9574738837333 L 469.24137729892163 505.7328116762676 L 470.6894767220682 504.5024928304302 L 472.13757614521467 503.2665173462211 L 473.58567556836124 502.02488522364047 L 475.0337749915077 500.77759646268805 L 476.48187441465427 499.524651063364 L 477.92997383780084 498.2660490256683 L 479.3780732609473 497.0017903496009 L 480.8261726840939 495.73187503516186 L 482.27427210724034 494.45630308235116 L 483.7223715303869 493.1750744911688 L 485.17047095353337 491.88818926161474 L 486.61857037667994 490.59564739368903 L 488.0666697998265 489.2974488873917 L 489.514769222973 487.9935937427226 L 490.96286864611955 486.6840819596819 L 492.410968069266 485.36891353826957 L 493.8590674924126 484.0480884784855 L 495.30716691555915 482.7216067803298 L 496.7552663387056 481.38946844380246 L 498.2033657618522 480.0516734689034 L 499.65146518499864 478.7082218556327 L 501.0995646081452 477.3591136039903 L 502.5476640312917 476.0043487139763 L 503.99576345443825 474.6439271855906 L 505.4438628775848 473.2778490188332 L 506.8919623007313 471.9061142137042 L 508.34006172387785 470.5287227702035 L 509.7881611470243 469.14567468833116 L 511.2362605701709 467.7569699680871 L 512.6843599933175 466.3626086094714 L 514.1324594164639 464.96259061248406 L 515.5805588396105 463.556915977125 L 517.028658262757 462.1455847033943 L 518.4767576859035 460.7285967912919 L 519.92485710905 459.30595224081793 L 521.3729565321966 457.87765105197224 L 522.8210559553431 456.44369322475484 L 524.2691553784896 455.00407875916585 L 525.7172548016362 453.55880765520516 M 525.7172548016362 453.55880765520516 L 525.7173548016361 453.55880765520516 M 525.7172548016362 453.55880765520516 L 526.7886717750672 453.55880765520516 L 527.8600887484984 453.55880765520516 L 528.9315057219295 453.55880765520516 L 530.0029226953606 453.55880765520516 L 531.0743396687917 453.55880765520516 L 532.1457566422228 453.55880765520516 L 533.2171736156539 453.55880765520516 L 534.288590589085 453.55880765520516 L 535.3600075625161 453.55880765520516 L 536.4314245359473 453.55880765520516 L 537.5028415093783 453.55880765520516 L 538.5742584828095 453.55880765520516 L 539.6456754562406 453.55880765520516 L 540.7170924296717 453.55880765520516 L 541.7885094031028 453.55880765520516 L 542.8599263765338 453.55880765520516 L 543.9313433499649 453.55880765520516 L 545.002760323396 453.55880765520516 L 546.0741772968272 453.55880765520516 L 547.1455942702582 453.55880765520516 L 548.2170112436894 453.55880765520516 L 549.2884282171206 453.55880765520516 L 550.3598451905516 453.55880765520516 L 551.4312621639828 453.55880765520516 L 552.5026791374139 453.55880765520516 L 553.574096110845 453.55880765520516 L 554.6455130842761 453.55880765520516 L 555.7169300577073 453.55880765520516 L 556.7883470311383 453.55880765520516 L 557.8597640045693 453.55880765520516 L 558.9311809780005 453.55880765520516 L 560.0025979514317 453.55880765520516 L 561.0740149248627 453.55880765520516 L 562.1454318982939 453.55880765520516 L 563.2168488717249 453.55880765520516 L 564.288265845156 453.55880765520516 L 565.3596828185872 453.55880765520516 L 566.4310997920182 453.55880765520516 L 567.5025167654493 453.55880765520516 L 568.5739337388804 453.55880765520516 L 569.6453507123116 453.55880765520516 L 570.7167676857426 453.55880765520516 L 571.7881846591738 453.55880765520516 L 572.859601632605 453.55880765520516 L 573.931018606036 453.55880765520516 L 575.0024355794671 453.55880765520516 L 576.0738525528983 453.55880765520516 L 577.1452695263293 453.55880765520516 L 578.2166864997605 453.55880765520516 L 579.2881034731917 453.55880765520516 L 580.3595204466226 453.55880765520516 L 581.4309374200537 453.55880765520516 L 582.5023543934849 453.55880765520516 L 583.5737713669159 453.55880765520516 L 584.6451883403471 453.55880765520516 L 585.7166053137782 453.55880765520516 L 586.7880222872093 453.55880765520516 L 587.8594392606404 453.55880765520516 L 588.9308562340716 453.55880765520516 L 590.0022732075026 453.55880765520516 L 591.0736901809337 453.55880765520516 L 592.1451071543648 453.55880765520516 L 593.216524127796 453.55880765520516 L 594.287941101227 453.55880765520516 L 595.3593580746582 453.55880765520516 L 596.4307750480893 453.55880765520516 L 597.5021920215204 453.55880765520516 L 598.5736089949515 453.55880765520516 L 599.6450259683827 453.55880765520516 L 600.7164429418137 453.55880765520516 L 601.7878599152449 453.55880765520516 L 602.859276888676 453.55880765520516 L 603.9306938621071 453.55880765520516 L 605.0021108355381 453.55880765520516 L 606.0735278089693 453.55880765520516 L 607.1449447824003 453.55880765520516 L 608.2163617558315 453.55880765520516 L 609.2877787292626 453.55880765520516 L 610.3591957026937 453.55880765520516 L 611.4306126761248 453.55880765520516 L 612.502029649556 453.55880765520516 L 613.573446622987 453.55880765520516 L 614.6448635964181 453.55880765520516 L 615.7162805698492 453.55880765520516 L 616.7876975432804 453.55880765520516 L 617.8591145167114 453.55880765520516 L 618.9305314901426 453.55880765520516 L 620.0019484635737 453.55880765520516 L 621.0733654370048 453.55880765520516 L 622.1447824104359 453.55880765520516 L 623.216199383867 453.55880765520516 L 624.2876163572981 453.55880765520516 L 625.3590333307293 453.55880765520516 L 626.4304503041603 453.55880765520516 L 627.5018672775915 453.55880765520516 L 628.5732842510226 453.55880765520516 L 629.6447012244537 453.55880765520516 L 630.7161181978847 453.55880765520516 L 631.7875351713159 453.55880765520516 L 632.858952144747 453.55880765520516 L 633.9303691181781 453.55880765520516 L 635.0017860916092 453.55880765520516 L 636.0732030650404 453.55880765520516 L 637.1446200384714 453.55880765520516 L 638.2160370119025 453.55880765520516 L 639.2874539853336 453.55880765520516 L 640.3588709587648 453.55880765520516 L 641.4302879321958 453.55880765520516 L 642.501704905627 453.55880765520516 L 643.573121879058 453.55880765520516 L 644.6445388524892 453.55880765520516 L 645.7159558259203 453.55880765520516 L 646.7873727993514 453.55880765520516 L 647.8587897727825 453.55880765520516 L 648.9302067462137 453.55880765520516 L 650.0016237196447 453.55880765520516 L 651.0730406930759 453.55880765520516 L 652.144457666507 453.55880765520516 L 653.2158746399381 453.55880765520516 L 654.2872916133691 453.55880765520516 L 655.3587085868003 453.55880765520516 L 656.4301255602314 453.55880765520516 L 657.5015425336625 453.55880765520516 L 658.5729595070936 453.55880765520516 L 659.6443764805248 453.55880765520516 L 660.7157934539558 453.55880765520516 L 661.7872104273869 453.55880765520516 L 662.858627400818 453.55880765520516 L 663.9300443742491 453.55880765520516 L 665.0014613476802 453.55880765520516 L 666.0728783211114 453.55880765520516 L 667.1442952945425 453.55880765520516 L 668.2157122679736 453.55880765520516 L 669.2871292414047 453.55880765520516 L 670.3585462148359 453.55880765520516 L 671.4299631882669 453.55880765520516 L 672.5013801616981 453.55880765520516 L 673.5727971351292 453.55880765520516 L 674.6442141085603 453.55880765520516 L 675.7156310819914 453.55880765520516 L 676.7870480554225 453.55880765520516 L 677.8584650288535 453.55880765520516 L 678.9298820022847 453.55880765520516 L 680.0012989757158 453.55880765520516 L 681.0727159491469 453.55880765520516 L 682.144132922578 453.55880765520516 L 683.2155498960092 453.55880765520516 L 684.2869668694402 453.55880765520516 L 685.3583838428713 453.55880765520516 L 686.4298008163024 453.55880765520516 L 687.5012177897336 453.55880765520516 L 688.5726347631646 453.55880765520516 L 689.6440517365958 453.55880765520516 L 690.7154687100269 453.55880765520516 L 691.786885683458 453.55880765520516 L 692.8583026568891 453.55880765520516 L 693.9297196303203 453.55880765520516 L 695.0011366037513 453.55880765520516 L 696.0725535771825 453.55880765520516 L 697.1439705506136 453.55880765520516 L 698.2153875240447 453.55880765520516 L 699.2868044974758 453.55880765520516 L 700.3582214709069 453.55880765520516 L 701.4296384443379 453.55880765520516 L 702.5010554177691 453.55880765520516 L 703.5724723912002 453.55880765520516 L 704.6438893646313 453.55880765520516 L 705.7153063380624 453.55880765520516 L 706.7867233114936 453.55880765520516 L 707.8581402849246 453.55880765520516 L 708.9295572583558 453.55880765520516 L 710.0009742317868 453.55880765520516 L 711.072391205218 453.55880765520516 L 712.143808178649 453.55880765520516 L 713.2152251520802 453.55880765520516 L 714.2866421255113 453.55880765520516 L 715.3580590989424 453.55880765520516 L 716.4294760723735 453.55880765520516 L 717.5008930458047 453.55880765520516 L 718.5723100192357 453.55880765520516 L 719.6437269926669 453.55880765520516 L 720.7151439660979 453.55880765520516 L 721.7865609395291 453.55880765520516 L 722.8579779129602 453.55880765520516 L 723.9293948863913 453.55880765520516 L 725.0008118598224 453.55880765520516 L 726.0722288332535 453.55880765520516 L 727.1436458066846 453.55880765520516 L 728.2150627801157 453.55880765520516 L 729.2864797535468 453.55880765520516 L 730.357896726978 453.55880765520516 L 731.429313700409 453.55880765520516 L 732.50073067384 453.55880765520516 L 733.5721476472712 453.55880765520516 L 734.6435646207024 453.55880765520516 L 735.7149815941334 453.55880765520516 L 736.7863985675646 453.55880765520516 L 737.8578155409956 453.55880765520516 L 738.9292325144268 453.55880765520516 L 740.0006494878579 453.55880765520516 L 741.072066461289 453.55880765520516 L 742.1434834347201 453.55880765520516 L 743.2149004081513 453.55880765520516 L 744.2863173815823 453.55880765520516 L 745.3577343550135 453.55880765520516 L 746.4291513284446 453.55880765520516 L 747.5005683018757 453.55880765520516 L 748.5719852753068 453.55880765520516 L 749.6434022487379 453.55880765520516 L 750.714819222169 453.55880765520516 L 751.7862361956 453.55880765520516 L 752.8576531690312 453.55880765520516 L 753.9290701424624 453.55880765520516 L 755.0004871158934 453.55880765520516 L 756.0719040893244 453.55880765520516 L 757.1433210627556 453.55880765520516 L 758.2147380361866 453.55880765520516 L 759.2861550096178 453.55880765520516 L 760.357571983049 453.55880765520516 L 761.42898895648 453.55880765520516 L 762.5004059299112 453.55880765520516 L 763.5718229033423 453.55880765520516 L 764.6432398767734 453.55880765520516 L 765.7146568502045 453.55880765520516 L 766.7860738236357 453.55880765520516 L 767.8574907970667 453.55880765520516 L 768.9289077704979 453.55880765520516 L 770.000324743929 453.55880765520516 L 771.07174171736 453.55880765520516 L 772.1431586907912 453.55880765520516 L 773.2145756642223 453.55880765520516 L 774.2859926376534 453.55880765520516 L 775.3574096110844 453.55880765520516 L 776.4288265845156 453.55880765520516 L 777.5002435579468 453.55880765520516 L 778.5716605313778 453.55880765520516 L 779.6430775048088 453.55880765520516 L 780.71449447824 453.55880765520516 L 781.785911451671 453.55880765520516 L 782.8573284251022 453.55880765520516 L 783.9287453985334 453.55880765520516 L 785.0001623719644 453.55880765520516 L 786.0715793453955 453.55880765520516 L 787.1429963188267 453.55880765520516 L 788.2144132922577 453.55880765520516 L 789.2858302656889 453.55880765520516 L 790.35724723912 453.55880765520516 L 791.4286642125511 453.55880765520516 L 792.5000811859823 453.55880765520516 L 793.5714981594134 453.55880765520516 L 794.6429151328445 453.55880765520516 L 795.7143321062756 453.55880765520516 L 796.7857490797068 453.55880765520516 L 797.8571660531378 453.55880765520516 L 798.9285830265688 453.55880765520516 L 800 453.55880765520516" stroke-opacity="0.8" stroke-linecap="round" stroke-linejoin="round" stroke-miterlimit="10" stroke-width="2.5"/></g></g></svg>