<svg version="1.1" xmlns="http://www.w3.org/2000/svg" xmlns:xlink="http://www.w3.org/1999/xlink" width="1273" height="851"><defs><clipPath id="OUIkaolAurNH"><path fill="none" stroke="none" d=" M 0 0 L 1273 0 L 1273 851 L 0 851 L 0 0 Z"/></clipPath></defs><g transform="scale(1,1)" clip-path="url(#OUIkaolAurNH)"><g><rect fill="rgb(255,255,255)" stroke="none" x="0" y="0" width="1273" height="851" fill-opacity="1"/><path fill="none" stroke="rgb(192,192,192)" paint-order="fill stroke markers" d=" M 95.5 0.5 L 95.5 851.5 M 95.5 0.5 L 95.5 851.5 M 209.5 0.5 L 209.5 851.5 M 323.5 0.5 L 323.5 851.5 M 437.5 0.5 L 437.5 851.5 M 665.5 0.5 L 665.5 851.5 M 778.5 0.5 L 778.5 851.5 M 892.5 0.5 L 892.5 851.5 M 1006.5 0.5 L 1006.5 851.5 M 1120.5 0.5 L 1120.5 851.5 M 1234.5 0.5 L 1234.5 851.5" stroke-opacity="1" stroke-linecap="round" stroke-linejoin="round" stroke-miterlimit="10"/><path fill="none" stroke="rgb(192,192,192)" paint-order="fill stroke markers" d=" M 4.5 0.5 L 4.5 851.5 M 27.5 0.5 L 27.5 851.5 M 50.5 0.5 L 50.5 851.5 M 72.5 0.5 L 72.5 851.5 M 118.5 0.5 L 118.5 851.5 M 141.5 0.5 L 141.5 851.5 M 163.5 0.5 L 163.5 851.5 M 186.5 0.5 L 186.5 851.5 M 232.5 0.5 L 232.5 851.5 M 255.5 0.5 L 255.5 851.5 M 277.5 0.5 L 277.5 851.5 M 300.5 0.5 L 300.5 851.5 M 346.5 0.5 L 346.5 851.5 M 368.5 0.5 L 368.5 851.5 M 391.5 0.5 L 391.5 851.5 M 414.5 0.5 L 414.5 851.5 M 460.5 0.5 L 460.5 851.5 M 482.5 0.5 L 482.5 851.5 M 505.5 0.5 L 505.5 851.5 M 528.5 0.5 L 528.5 851.5 M 573.5 0.5 L 573.5 851.5 M 596.5 0.5 L 596.5 851.5 M 619.5 0.5 L 619.5 851.5 M 642.5 0.5 L 642.5 851.5 M 687.5 0.5 L 687.5 851.5 M 710.5 0.5 L 710.5 851.5 M 733.5 0.5 L 733.5 851.5 M 756.5 0.5 L 756.5 851.5 M 801.5 0.5 L 801.5 851.5 M 824.5 0.5 L 824.5 851.5 M 847.5 0.5 L 847.5 851.5 M 870.5 0.5 L 870.5 851.5 M 915.5 0.5 L 915.5 851.5 M 938.5 0.5 L 938.5 851.5 M 961.5 0.5 L 961.5 851.5 M 984.5 0.5 L 984.5 851.5 M 1029.5 0.5 L 1029.5 851.5 M 1052.5 0.5 L 1052.5 851.5 M 1075.5 0.5 L 1075.5 851.5 M 1097.5 0.5 L 1097.5 851.5 M 1143.5 0.5 L 1143.5 851.5 M 1166.5 0.5 L 1166.5 851.5 M 1189.5 0.5 L 1189.5 851.5 M 1211.5 0.5 L 1211.5 851.5 M 1257.5 0.5 L 1257.5 851.5" stroke-opacity="0.23529411764705882" stroke-linecap="round" stroke-linejoin="round" stroke-miterlimit="10"/><path fill="none" stroke="rgb(192,192,192)" paint-order="fill stroke markers" d=" M 0.5 154.5 L 1273.5 154.5 M 0.5 154.5 L 1273.5 154.5" stroke-opacity="1" stroke-linecap="round" stroke-linejoin="round" stroke-miterlimit="10"/><path fill="none" stroke="rgb(192,192,192)" paint-order="fill stroke markers" d=" M 0.5 25.5 L 1273.5 25.5 M 0.5 25.5 L 1273.5 25.5 M 0.5 283.5 L 1273.5 283.5 M 0.5 412.5 L 1273.5 412.5 M 0.5 541.5 L 1273.5 541.5 M 0.5 670.5 L 1273.5 670.5" stroke-opacity="0.23529411764705882" stroke-linecap="round" stroke-linejoin="round" stroke-miterlimit="10"/><path fill="none" stroke="rgb(37,37,37)" paint-order="fill stroke markers" d=" M 551.5 2.5 L 551.5 851.5" stroke-opacity="1" stroke-miterlimit="10"/><path fill="rgb(37,37,37)" stroke="none" paint-order="stroke fill markers" fill-rule="evenodd" d=" M 551.1743558430232 1 L 543.1743558430232 33 L 559.1743558430232 33" fill-opacity="1"/><text fill="rgb(37,37,37)" stroke="none" font-family="geogebra-sans-serif, sans-serif" font-size="32px" font-style="normal" font-weight="normal" text-decoration="normal" x="1247" y="795" text-anchor="start" dominant-baseline="alphabetic" fill-opacity="1">x</text><path fill="none" stroke="rgb(37,37,37)" paint-order="fill stroke markers" d=" M 0.5 799.5 L 1271.5 799.5" stroke-opacity="1" stroke-miterlimit="10"/><path fill="rgb(37,37,37)" stroke="none" paint-order="stroke fill markers" fill-rule="evenodd" d=" M 1272 799.8415999303046 L 1240 791.8415999303046 L 1240 807.8415999303046" fill-opacity="1"/><text fill="rgb(37,37,37)" stroke="none" font-family="geogebra-sans-serif, sans-serif" font-size="24px" font-style="normal" font-weight="normal" text-decoration="normal" x="84" y="827" text-anchor="start" dominant-baseline="alphabetic" fill-opacity="1">–4</text><text fill="none" stroke="rgb(255,255,255)" font-family="geogebra-sans-serif, sans-serif" font-size="24px" font-style="normal" font-weight="normal" text-decoration="normal" x="84" y="827" text-anchor="start" dominant-baseline="alphabetic" stroke-opacity="1" stroke-linejoin="bevel" stroke-miterlimit="10" stroke-width="3">–4</text><text fill="rgb(37,37,37)" stroke="none" font-family="geogebra-sans-serif, sans-serif" font-size="24px" font-style="normal" font-weight="normal" text-decoration="normal" x="84" y="827" text-anchor="start" dominant-baseline="alphabetic" fill-opacity="1">–4</text><text fill="rgb(37,37,37)" stroke="none" font-family="geogebra-sans-serif, sans-serif" font-size="24px" font-style="normal" font-weight="normal" text-decoration="normal" x="198" y="827" text-anchor="start" dominant-baseline="alphabetic" fill-opacity="1">–3</text><text fill="none" stroke="rgb(255,255,255)" font-family="geogebra-sans-serif, sans-serif" font-size="24px" font-style="normal" font-weight="normal" text-decoration="normal" x="198" y="827" text-anchor="start" dominant-baseline="alphabetic" stroke-opacity="1" stroke-linejoin="bevel" stroke-miterlimit="10" stroke-width="3">–3</text><text fill="rgb(37,37,37)" stroke="none" font-family="geogebra-sans-serif, sans-serif" font-size="24px" font-style="normal" font-weight="normal" text-decoration="normal" x="198" y="827" text-anchor="start" dominant-baseline="alphabetic" fill-opacity="1">–3</text><text fill="rgb(37,37,37)" stroke="none" font-family="geogebra-sans-serif, sans-serif" font-size="24px" font-style="normal" font-weight="normal" text-decoration="normal" x="312" y="827" text-anchor="start" dominant-baseline="alphabetic" fill-opacity="1">–2</text><text fill="none" stroke="rgb(255,255,255)" font-family="geogebra-sans-serif, sans-serif" font-size="24px" font-style="normal" font-weight="normal" text-decoration="normal" x="312" y="827" text-anchor="start" dominant-baseline="alphabetic" stroke-opacity="1" stroke-linejoin="bevel" stroke-miterlimit="10" stroke-width="3">–2</text><text fill="rgb(37,37,37)" stroke="none" font-family="geogebra-sans-serif, sans-serif" font-size="24px" font-style="normal" font-weight="normal" text-decoration="normal" x="312" y="827" text-anchor="start" dominant-baseline="alphabetic" fill-opacity="1">–2</text><text fill="rgb(37,37,37)" stroke="none" font-family="geogebra-sans-serif, sans-serif" font-size="24px" font-style="normal" font-weight="normal" text-decoration="normal" x="426" y="827" text-anchor="start" dominant-baseline="alphabetic" fill-opacity="1">–1</text><text fill="none" stroke="rgb(255,255,255)" font-family="geogebra-sans-serif, sans-serif" font-size="24px" font-style="normal" font-weight="normal" text-decoration="normal" x="426" y="827" text-anchor="start" dominant-baseline="alphabetic" stroke-opacity="1" stroke-linejoin="bevel" stroke-miterlimit="10" stroke-width="3">–1</text><text fill="rgb(37,37,37)" stroke="none" font-family="geogebra-sans-serif, sans-serif" font-size="24px" font-style="normal" font-weight="normal" text-decoration="normal" x="426" y="827" text-anchor="start" dominant-baseline="alphabetic" fill-opacity="1">–1</text><text fill="rgb(37,37,37)" stroke="none" font-family="geogebra-sans-serif, sans-serif" font-size="24px" font-style="normal" font-weight="normal" text-decoration="normal" x="660" y="827" text-anchor="start" dominant-baseline="alphabetic" fill-opacity="1">1</text><text fill="none" stroke="rgb(255,255,255)" font-family="geogebra-sans-serif, sans-serif" font-size="24px" font-style="normal" font-weight="normal" text-decoration="normal" x="660" y="827" text-anchor="start" dominant-baseline="alphabetic" stroke-opacity="1" stroke-linejoin="bevel" stroke-miterlimit="10" stroke-width="3">1</text><text fill="rgb(37,37,37)" stroke="none" font-family="geogebra-sans-serif, sans-serif" font-size="24px" font-style="normal" font-weight="normal" text-decoration="normal" x="660" y="827" text-anchor="start" dominant-baseline="alphabetic" fill-opacity="1">1</text><text fill="rgb(37,37,37)" stroke="none" font-family="geogebra-sans-serif, sans-serif" font-size="24px" font-style="normal" font-weight="normal" text-decoration="normal" x="773" y="827" text-anchor="start" dominant-baseline="alphabetic" fill-opacity="1">2</text><text fill="none" stroke="rgb(255,255,255)" font-family="geogebra-sans-serif, sans-serif" font-size="24px" font-style="normal" font-weight="normal" text-decoration="normal" x="773" y="827" text-anchor="start" dominant-baseline="alphabetic" stroke-opacity="1" stroke-linejoin="bevel" stroke-miterlimit="10" stroke-width="3">2</text><text fill="rgb(37,37,37)" stroke="none" font-family="geogebra-sans-serif, sans-serif" font-size="24px" font-style="normal" font-weight="normal" text-decoration="normal" x="773" y="827" text-anchor="start" dominant-baseline="alphabetic" fill-opacity="1">2</text><text fill="rgb(37,37,37)" stroke="none" font-family="geogebra-sans-serif, sans-serif" font-size="24px" font-style="normal" font-weight="normal" text-decoration="normal" x="887" y="827" text-anchor="start" dominant-baseline="alphabetic" fill-opacity="1">3</text><text fill="none" stroke="rgb(255,255,255)" font-family="geogebra-sans-serif, sans-serif" font-size="24px" font-style="normal" font-weight="normal" text-decoration="normal" x="887" y="827" text-anchor="start" dominant-baseline="alphabetic" stroke-opacity="1" stroke-linejoin="bevel" stroke-miterlimit="10" stroke-width="3">3</text><text fill="rgb(37,37,37)" stroke="none" font-family="geogebra-sans-serif, sans-serif" font-size="24px" font-style="normal" font-weight="normal" text-decoration="normal" x="887" y="827" text-anchor="start" dominant-baseline="alphabetic" fill-opacity="1">3</text><text fill="rgb(37,37,37)" stroke="none" font-family="geogebra-sans-serif, sans-serif" font-size="24px" font-style="normal" font-weight="normal" text-decoration="normal" x="1001" y="827" text-anchor="start" dominant-baseline="alphabetic" fill-opacity="1">4</text><text fill="none" stroke="rgb(255,255,255)" font-family="geogebra-sans-serif, sans-serif" font-size="24px" font-style="normal" font-weight="normal" text-decoration="normal" x="1001" y="827" text-anchor="start" dominant-baseline="alphabetic" stroke-opacity="1" stroke-linejoin="bevel" stroke-miterlimit="10" stroke-width="3">4</text><text fill="rgb(37,37,37)" stroke="none" font-family="geogebra-sans-serif, sans-serif" font-size="24px" font-style="normal" font-weight="normal" text-decoration="normal" x="1001" y="827" text-anchor="start" dominant-baseline="alphabetic" fill-opacity="1">4</text><text fill="rgb(37,37,37)" stroke="none" font-family="geogebra-sans-serif, sans-serif" font-size="24px" font-style="normal" font-weight="normal" text-decoration="normal" x="1115" y="827" text-anchor="start" dominant-baseline="alphabetic" fill-opacity="1">5</text><text fill="none" stroke="rgb(255,255,255)" font-family="geogebra-sans-serif, sans-serif" font-size="24px" font-style="normal" font-weight="normal" text-decoration="normal" x="1115" y="827" text-anchor="start" dominant-baseline="alphabetic" stroke-opacity="1" stroke-linejoin="bevel" stroke-miterlimit="10" stroke-width="3">5</text><text fill="rgb(37,37,37)" stroke="none" font-family="geogebra-sans-serif, sans-serif" font-size="24px" font-style="normal" font-weight="normal" text-decoration="normal" x="1115" y="827" text-anchor="start" dominant-baseline="alphabetic" fill-opacity="1">5</text><text fill="rgb(37,37,37)" stroke="none" font-family="geogebra-sans-serif, sans-serif" font-size="24px" font-style="normal" font-weight="normal" text-decoration="normal" x="1229" y="827" text-anchor="start" dominant-baseline="alphabetic" fill-opacity="1">6</text><text fill="none" stroke="rgb(255,255,255)" font-family="geogebra-sans-serif, sans-serif" font-size="24px" font-style="normal" font-weight="normal" text-decoration="normal" x="1229" y="827" text-anchor="start" dominant-baseline="alphabetic" stroke-opacity="1" stroke-linejoin="bevel" stroke-miterlimit="10" stroke-width="3">6</text><text fill="rgb(37,37,37)" stroke="none" font-family="geogebra-sans-serif, sans-serif" font-size="24px" font-style="normal" font-weight="normal" text-decoration="normal" x="1229" y="827" text-anchor="start" dominant-baseline="alphabetic" fill-opacity="1">6</text><text fill="rgb(37,37,37)" stroke="none" font-family="geogebra-sans-serif, sans-serif" font-size="32px" font-style="normal" font-weight="normal" text-decoration="normal" x="556" y="30" text-anchor="start" dominant-baseline="alphabetic" fill-opacity="1">F(x)</text><text fill="rgb(37,37,37)" stroke="none" font-family="geogebra-sans-serif, sans-serif" font-size="24px" font-style="normal" font-weight="normal" text-decoration="normal" x="527" y="165" text-anchor="start" dominant-baseline="alphabetic" fill-opacity="1">1</text><text fill="none" stroke="rgb(255,255,255)" font-family="geogebra-sans-serif, sans-serif" font-size="24px" font-style="normal" font-weight="normal" text-decoration="normal" x="527" y="165" text-anchor="start" dominant-baseline="alphabetic" stroke-opacity="1" stroke-linejoin="bevel" stroke-miterlimit="10" stroke-width="3">1</text><text fill="rgb(37,37,37)" stroke="none" font-family="geogebra-sans-serif, sans-serif" font-size="24px" font-style="normal" font-weight="normal" text-decoration="normal" x="527" y="165" text-anchor="start" dominant-baseline="alphabetic" fill-opacity="1">1</text><text fill="rgb(37,37,37)" stroke="none" font-family="geogebra-sans-serif, sans-serif" font-size="24px" font-style="normal" font-weight="normal" text-decoration="normal" x="527" y="827" text-anchor="start" dominant-baseline="alphabetic" fill-opacity="1">0</text><text fill="none" stroke="rgb(255,255,255)" font-family="geogebra-sans-serif, sans-serif" font-size="24px" font-style="normal" font-weight="normal" text-decoration="normal" x="527" y="827" text-anchor="start" dominant-baseline="alphabetic" stroke-opacity="1" stroke-linejoin="bevel" stroke-miterlimit="10" stroke-width="3">0</text><text fill="rgb(37,37,37)" stroke="none" font-family="geogebra-sans-serif, sans-serif" font-size="24px" font-style="normal" font-weight="normal" text-decoration="normal" x="527" y="827" text-anchor="start" dominant-baseline="alphabetic" fill-opacity="1">0</text><path fill="none" stroke="rgb(211,47,47)" paint-order="fill stroke markers" d=" M 0 799.8415999303046 L 1.7080920662634753 799.8415999303046 L 3.416184132526837 799.8415999303046 L 5.124276198790312 799.8415999303046 L 6.832368265053788 799.8415999303046 L 8.54046033131715 799.8415999303046 L 10.24855239758051 799.8415999303046 L 11.956644463843986 799.8415999303046 L 13.664736530107461 799.8415999303046 L 15.372828596370823 799.8415999303046 L 17.0809206626343 799.8415999303046 L 18.789012728897774 799.8415999303046 L 20.497104795161135 799.8415999303046 L 22.205196861424497 799.8415999303046 L 23.913288927687972 799.8415999303046 L 25.621380993951448 799.8415999303046 L 27.329473060214923 799.8415999303046 L 29.037565126478285 799.8415999303046 L 30.74565719274176 799.8415999303046 L 32.453749259005235 799.8415999303046 L 34.1618413252686 799.8415999303046 L 35.86993339153196 799.8415999303046 L 37.578025457795434 799.8415999303046 L 39.28611752405891 799.8415999303046 L 40.99420959032233 799.8415999303046 L 42.702301656585746 799.8415999303046 L 44.41039372284922 799.8415999303046 L 46.11848578911264 799.8415999303046 L 47.826577855376 799.8415999303046 L 49.53466992163942 799.8415999303046 L 51.242761987902895 799.8415999303046 L 52.950854054166314 799.8415999303046 L 54.65894612042979 799.8415999303046 L 56.36703818669321 799.8415999303046 L 58.07513025295668 799.8415999303046 L 59.7832223192201 799.8415999303046 L 61.49131438548352 799.8415999303046 L 63.19940645174688 799.8415999303046 L 64.90749851801036 799.8415999303046 L 66.61559058427378 799.8415999303046 L 68.3236826505372 799.8415999303046 L 70.03177471680067 799.8415999303046 L 71.73986678306409 799.8415999303046 L 73.44795884932756 799.8415999303046 L 75.15605091559087 799.8415999303046 L 76.86414298185434 799.8415999303046 L 78.57223504811776 799.8415999303046 L 80.28032711438124 799.8415999303046 L 81.98841918064466 799.8415999303046 L 83.69651124690813 799.8415999303046 L 85.40460331317155 799.8415999303046 L 87.11269537943502 799.8415999303046 L 88.82078744569844 799.8415999303046 L 90.5288795119618 799.8415999303046 L 92.23697157822522 799.8415999303046 L 93.9450636444887 799.8415999303046 L 95.65315571075212 799.8415999303046 L 97.36124777701554 799.8415999303046 L 99.06933984327901 799.8415999303046 L 100.77743190954237 799.8415999303046 L 102.48552397580585 799.8415999303046 L 104.19361604206927 799.8415999303046 L 105.90170810833268 799.8415999303046 L 107.6098001745961 799.8415999303046 L 109.31789224085958 799.8415999303046 L 111.025984307123 799.8415999303046 L 112.73407637338647 799.8415999303046 L 114.44216843964983 799.8415999303046 L 116.15026050591331 799.8415999303046 L 117.85835257217673 799.8415999303046 L 119.56644463844015 799.8415999303046 L 121.27453670470356 799.8415999303046 L 122.98262877096698 799.8415999303046 L 124.69072083723046 799.8415999303046 L 126.39881290349388 799.8415999303046 L 128.1069049697573 799.8415999303046 L 129.8149970360207 799.8415999303046 L 131.5230891022842 799.8415999303046 L 133.23118116854755 799.8415999303046 L 134.93927323481103 799.8415999303046 L 136.64736530107444 799.8415999303046 L 138.35545736733792 799.8415999303046 L 140.06354943360134 799.8415999303046 L 141.77164149986476 799.8415999303046 L 143.47973356612817 799.8415999303046 L 145.18782563239165 799.8415999303046 L 146.895917698655 799.8415999303046 L 148.6040097649185 799.8415999303046 L 150.3121018311819 799.8415999303046 L 152.02019389744532 799.8415999303046 L 153.7282859637088 799.8415999303046 L 155.43637802997216 799.8415999303046 L 157.14447009623564 799.8415999303046 L 158.85256216249905 799.8415999303046 L 160.56065422876247 799.8415999303046 L 162.2687462950259 799.8415999303046 L 163.97683836128937 799.8415999303046 L 165.68493042755279 799.8415999303046 L 167.39302249381626 799.8415999303046 L 169.10111456007962 799.8415999303046 L 170.8092066263431 799.8415999303046 L 172.51729869260652 799.8415999303046 L 174.22539075886993 799.8415999303046 L 175.93348282513335 799.8415999303046 L 177.64157489139677 799.8415999303046 L 179.34966695766025 799.8415999303046 L 181.05775902392367 799.8415999303046 L 182.76585109018708 799.8415999303046 L 184.4739431564505 799.8415999303046 L 186.18203522271398 799.8415999303046 L 187.89012728897734 799.8415999303046 L 189.59821935524081 799.8415999303046 L 191.30631142150423 799.8415999303046 L 193.0144034877677 799.8415999303046 L 194.72249555403113 799.8415999303046 L 196.43058762029455 799.8415999303046 L 198.13867968655796 799.8415999303046 L 199.84677175282144 799.8415999303046 L 201.5548638190848 799.8415999303046 L 203.26295588534828 799.8415999303046 L 204.9710479516117 799.8415999303046 L 206.6791400178751 799.8415999303046 L 208.3872320841386 799.8415999303046 L 210.09532415040195 799.8415999303046 L 211.80341621666543 799.8415999303046 L 213.51150828292884 799.8415999303046 L 215.21960034919226 799.8415999303046 L 216.92769241545568 799.8415999303046 L 218.63578448171916 799.8415999303046 L 220.34387654798257 799.8415999303046 L 222.05196861424605 799.8415999303046 L 223.7600606805094 799.8415999303046 L 225.4681527467729 799.8415999303046 L 227.1762448130363 799.8415999303046 L 228.88433687929972 799.8415999303046 L 230.59242894556314 799.8415999303046 L 232.30052101182656 799.8415999303046 L 234.00861307809004 799.8415999303046 L 235.71670514435345 799.8415999303046 L 237.42479721061687 799.8415999303046 L 239.1328892768803 799.8415999303046 L 240.84098134314377 799.8415999303046 L 242.54907340940713 799.8415999303046 L 244.2571654756706 799.8415999303046 L 245.96525754193402 799.8415999303046 L 247.6733496081975 799.8415999303046 L 249.38144167446092 799.8415999303046 L 251.08953374072433 799.8415999303046 L 252.79762580698775 799.8415999303046 L 254.50571787325123 799.8415999303046 L 256.2138099395146 799.8415999303046 L 257.92190200577807 799.8415999303046 L 259.6299940720415 799.8415999303046 L 261.3380861383049 799.8415999303046 L 263.0461782045684 799.8415999303046 L 264.75427027083174 799.8415999303046 L 266.4623623370952 799.8415999303046 L 268.17045440335863 799.8415999303046 L 269.87854646962205 799.8415999303046 L 271.58663853588547 799.8415999303046 L 273.29473060214895 799.8415999303046 L 275.00282266841236 799.8415999303046 L 276.71091473467584 799.8415999303046 L 278.4190068009392 799.8415999303046 L 280.1270988672027 799.8415999303046 L 281.8351909334661 799.8415999303046 L 283.5432829997295 799.8415999303046 L 285.25137506599293 799.8415999303046 L 286.95946713225635 799.8415999303046 L 288.6675591985198 799.8415999303046 L 290.37565126478324 799.8415999303046 L 292.08374333104666 799.8415999303046 L 293.7918353973101 799.8415999303046 L 295.49992746357356 799.8415999303046 L 297.208019529837 799.8415999303046 L 298.9161115961004 799.8415999303046 L 300.6242036623638 799.8415999303046 L 302.3322957286273 799.8415999303046 L 304.0403877948907 799.8415999303046 L 305.7484798611541 799.8415999303046 L 307.45657192741754 799.8415999303046 L 309.16466399368096 799.8415999303046 L 310.8727560599444 799.8415999303046 L 312.5808481262078 799.8415999303046 L 314.2889401924713 799.8415999303046 L 315.99703225873475 799.8415999303046 L 317.70512432499817 799.8415999303046 L 319.4132163912616 799.8415999303046 L 321.121308457525 799.8415999303046 L 322.8294005237884 799.8415999303046 L 324.53749259005184 799.8415999303046 L 326.24558465631526 799.8415999303046 L 327.95367672257873 799.8415999303046 L 329.66176878884215 799.8415999303046 L 331.36986085510557 799.8415999303046 L 333.077952921369 799.8415999303046 L 334.7860449876324 799.8415999303046 L 336.4941370538959 799.8415999303046 L 338.20222912015925 799.8415999303046 L 339.9103211864227 799.8415999303046 L 341.6184132526862 799.8415999303046 L 343.3265053189496 799.8415999303046 L 345.03459738521303 799.8415999303046 L 346.74268945147645 799.8415999303046 L 348.45078151773987 799.8415999303046 L 350.15887358400335 799.8415999303046 L 351.8669656502667 799.8415999303046 L 353.5750577165302 799.8415999303046 L 355.2831497827936 799.8415999303046 L 356.991241849057 799.8415999303046 L 358.6993339153205 799.8415999303046 L 360.40742598158386 799.8415999303046 L 362.11551804784733 799.8415999303046 L 363.8236101141108 799.8415999303046 L 365.53170218037417 799.8415999303046 L 367.23979424663764 799.8415999303046 L 368.94788631290106 799.8415999303046 L 370.6559783791645 799.8415999303046 L 372.36407044542796 799.8415999303046 L 374.0721625116913 799.8415999303046 L 375.7802545779548 799.8415999303046 L 377.48834664421827 799.8415999303046 L 379.19643871048163 799.8415999303046 L 380.9045307767451 799.8415999303046 L 382.61262284300847 799.8415999303046 L 384.32071490927194 799.8415999303046 L 386.0288069755354 799.8415999303046 L 387.7368990417988 799.8415999303046 L 389.44499110806225 799.8415999303046 L 391.1530831743257 799.8415999303046 L 392.8611752405891 799.8415999303046 L 394.5692673068525 799.8415999303046 L 396.2773593731159 799.8415999303046 L 397.9854514393794 799.8415999303046 L 399.6935435056429 799.8415999303046 L 401.40163557190624 799.8415999303046 L 403.1097276381697 799.8415999303046 L 404.81781970443313 799.8415999303046 L 406.52591177069655 799.8415999303046 L 408.23400383695997 799.8415999303046 L 409.9420959032234 799.8415999303046 L 411.65018796948686 799.8415999303046 L 413.3582800357503 799.8415999303046 L 415.0663721020137 799.8415999303046 L 416.7744641682771 799.8415999303046 L 418.48255623454054 799.8415999303046 L 420.19064830080396 799.8415999303046 L 421.8987403670674 799.8415999303046 L 423.60683243333085 799.8415999303046 L 425.3149244995943 799.8415999303046 L 427.02301656585774 799.8415999303046 L 428.73110863212116 799.8415999303046 L 430.4392006983846 799.8415999303046 L 432.147292764648 799.8415999303046 L 433.8553848309114 799.8415999303046 L 435.56347689717484 799.8415999303046 L 436.4175229303066 799.8415999303046 L 437.0580574551554 799.8415999303046 M 437.2715689634383 638.4969900609019 L 437.2716689634383 638.4969900609019 M 437.2715689634383 638.4969900609019 L 438.6063672471834 638.4969900609019 L 439.9411655309286 638.4969900609019 L 441.2759638146737 638.4969900609019 L 442.61076209841883 638.4969900609019 L 443.945560382164 638.4969900609019 L 445.28035866590915 638.4969900609019 L 446.61515694965425 638.4969900609019 L 447.9499552333994 638.4969900609019 L 449.2847535171445 638.4969900609019 L 450.61955180088967 638.4969900609019 L 451.9543500846348 638.4969900609019 L 453.2891483683799 638.4969900609019 L 454.6239466521251 638.4969900609019 L 455.9587449358702 638.4969900609019 L 457.29354321961534 638.4969900609019 L 458.6283415033605 638.4969900609019 L 459.9631397871056 638.4969900609019 L 461.29793807085076 638.4969900609019 L 462.63273635459586 638.4969900609019 L 463.967534638341 638.4969900609019 L 465.3023329220862 638.4969900609019 L 466.6371312058313 638.4969900609019 L 467.97192948957644 638.4969900609019 L 469.30672777332154 638.4969900609019 L 470.6415260570667 638.4969900609019 L 471.97632434081186 638.4969900609019 L 473.31112262455696 638.4969900609019 L 474.6459209083021 638.4969900609019 L 475.9807191920472 638.4969900609019 L 477.3155174757924 638.4969900609019 L 478.65031575953753 638.4969900609019 L 479.98511404328264 638.4969900609019 L 481.3199123270278 638.4969900609019 L 482.6547106107729 638.4969900609019 L 483.98950889451805 638.4969900609019 L 485.3243071782632 638.4969900609019 L 486.65910546200837 638.4969900609019 L 487.99390374575347 638.4969900609019 L 489.32870202949863 638.4969900609019 L 490.66350031324373 638.4969900609019 L 491.9982985969889 638.4969900609019 L 493.33309688073405 638.4969900609019 L 494.66789516447915 638.4969900609019 L 496.0026934482243 638.4969900609019 L 497.3374917319694 638.4969900609019 L 498.67229001571457 638.4969900609019 L 500.0070882994597 638.4969900609019 L 501.3418865832048 638.4969900609019 L 502.67668486695 638.4969900609019 L 504.0114831506951 638.4969900609019 L 505.34628143444024 638.4969900609019 L 506.6810797181854 638.4969900609019 L 508.0158780019305 638.4969900609019 L 509.35067628567566 638.4969900609019 L 510.68547456942076 638.4969900609019 L 512.0202728531659 638.4969900609019 L 513.3550711369111 638.4969900609019 L 514.6898694206562 638.4969900609019 L 516.0246677044013 638.4969900609019 L 517.3594659881464 638.4969900609019 L 518.6942642718916 638.4969900609019 L 520.0290625556368 638.4969900609019 L 521.3638608393819 638.4969900609019 L 522.698659123127 638.4969900609019 L 524.0334574068721 638.4969900609019 L 525.3682556906173 638.4969900609019 L 526.7030539743624 638.4969900609019 L 528.0378522581076 638.4969900609019 L 529.3726505418526 638.4969900609019 L 530.7074488255978 638.4969900609019 L 532.042247109343 638.4969900609019 L 533.3770453930881 638.4969900609019 L 534.7118436768333 638.4969900609019 L 536.0466419605784 638.4969900609019 L 537.3814402443235 638.4969900609019 L 538.7162385280686 638.4969900609019 L 540.0510368118138 638.4969900609019 L 541.385835095559 638.4969900609019 L 542.7206333793041 638.4969900609019 L 544.0554316630491 638.4969900609019 L 545.3902299467943 638.4969900609019 L 546.7250282305395 638.4969900609019 L 548.0598265142846 638.4969900609019 L 549.3946247980298 638.4969900609019 L 550.7294230817748 638.4969900609019 L 552.06422136552 638.4969900609019 L 553.3990196492651 638.4969900609019 L 554.7338179330103 638.4969900609019 L 556.0686162167555 638.4969900609019 L 557.4034145005005 638.4969900609019 L 558.7382127842457 638.4969900609019 L 560.0730110679908 638.4969900609019 L 561.407809351736 638.4969900609019 L 562.7426076354811 638.4969900609019 L 564.0774059192262 638.4969900609019 L 565.4122042029713 638.4969900609019 L 566.7470024867165 638.4969900609019 L 568.0818007704617 638.4969900609019 L 569.4165990542068 638.4969900609019 L 570.7513973379519 638.4969900609019 L 572.086195621697 638.4969900609019 L 573.4209939054422 638.4969900609019 L 574.7557921891873 638.4969900609019 L 576.0905904729325 638.4969900609019 L 577.4253887566776 638.4969900609019 L 578.7601870404227 638.4969900609019 L 580.0949853241679 638.4969900609019 L 581.429783607913 638.4969900609019 L 582.7645818916582 638.4969900609019 L 584.0993801754033 638.4969900609019 L 585.4341784591484 638.4969900609019 L 586.7689767428935 638.4969900609019 L 588.1037750266387 638.4969900609019 L 589.4385733103838 638.4969900609019 L 590.773371594129 638.4969900609019 L 592.108169877874 638.4969900609019 L 593.4429681616192 638.4969900609019 L 594.7777664453644 638.4969900609019 L 596.1125647291095 638.4969900609019 L 597.4473630128547 638.4969900609019 L 598.7821612965997 638.4969900609019 L 600.1169595803449 638.4969900609019 L 601.45175786409 638.4969900609019 L 602.7865561478352 638.4969900609019 L 604.1213544315804 638.4969900609019 L 605.4561527153254 638.4969900609019 L 606.7909509990706 638.4969900609019 L 608.1257492828157 638.4969900609019 L 609.4605475665609 638.4969900609019 L 610.795345850306 638.4969900609019 L 612.1301441340511 638.4969900609019 L 613.4649424177962 638.4969900609019 L 614.7997407015414 638.4969900609019 L 616.1345389852866 638.4969900609019 L 617.4693372690317 638.4969900609019 L 618.8041355527769 638.4969900609019 L 620.1389338365219 638.4969900609019 L 621.4737321202671 638.4969900609019 L 622.8085304040122 638.4969900609019 L 624.1433286877574 638.4969900609019 L 625.4781269715024 638.4969900609019 L 626.8129252552476 638.4969900609019 L 628.1477235389928 638.4969900609019 L 629.4825218227379 638.4969900609019 L 630.8173201064831 638.4969900609019 L 632.1521183902282 638.4969900609019 L 633.4869166739733 638.4969900609019 L 634.8217149577184 638.4969900609019 L 636.1565132414636 638.4969900609019 L 637.4913115252087 638.4969900609019 L 638.8261098089539 638.4969900609019 L 640.160908092699 638.4969900609019 L 641.4957063764441 638.4969900609019 L 642.8305046601893 638.4969900609019 L 644.1653029439344 638.4969900609019 L 645.5001012276796 638.4969900609019 L 646.8348995114247 638.4969900609019 L 648.1696977951698 638.4969900609019 L 649.5044960789149 638.4969900609019 L 650.8392943626601 638.4969900609019 L 652.1740926464053 638.4969900609019 L 653.5088909301503 638.4969900609019 L 654.8436892138955 638.4969900609019 L 656.1784874976406 638.4969900609019 L 657.5132857813858 638.4969900609019 L 658.8480840651309 638.4969900609019 L 660.1828823488761 638.4969900609019 L 661.5176806326211 638.4969900609019 L 662.8524789163663 638.4969900609019 L 664.1872772001115 638.4969900609019 L 665.5220754838566 638.4969900609019 L 666.8568737676017 638.4969900609019 L 668.1916720513468 638.4969900609019 L 669.526470335092 638.4969900609019 L 670.8612686188371 638.4969900609019 L 672.1960669025823 638.4969900609019 L 673.5308651863274 638.4969900609019 L 674.8656634700725 638.4969900609019 L 676.2004617538176 638.4969900609019 L 677.5352600375628 638.4969900609019 L 678.870058321308 638.4969900609019 L 680.204856605053 638.4969900609019 L 681.5396548887982 638.4969900609019 L 682.8744531725433 638.4969900609019 L 684.2092514562885 638.4969900609019 L 685.5440497400336 638.4969900609019 L 686.8788480237788 638.4969900609019 L 688.213646307524 638.4969900609019 L 689.548444591269 638.4969900609019 L 690.8832428750142 638.4969900609019 L 692.2180411587593 638.4969900609019 L 693.5528394425045 638.4969900609019 L 694.8876377262495 638.4969900609019 L 696.2224360099947 638.4969900609019 L 697.5572342937398 638.4969900609019 L 698.892032577485 638.4969900609019 L 700.2268308612302 638.4969900609019 L 701.5616291449753 638.4969900609019 L 702.8964274287204 638.4969900609019 L 704.2312257124655 638.4969900609019 L 705.5660239962107 638.4969900609019 L 706.9008222799558 638.4969900609019 L 708.2356205637009 638.4969900609019 L 709.570418847446 638.4969900609019 L 710.9052171311912 638.4969900609019 L 712.2400154149364 638.4969900609019 L 713.5748136986815 638.4969900609019 L 714.9096119824267 638.4969900609019 L 716.2444102661717 638.4969900609019 L 717.5792085499169 638.4969900609019 L 718.914006833662 638.4969900609019 L 720.2488051174072 638.4969900609019 L 721.5836034011522 638.4969900609019 L 722.9184016848974 638.4969900609019 L 724.2531999686425 638.4969900609019 L 725.5879982523877 638.4969900609019 L 726.9227965361329 638.4969900609019 L 728.257594819878 638.4969900609019 L 729.5923931036232 638.4969900609019 L 730.9271913873682 638.4969900609019 L 732.2619896711134 638.4969900609019 L 733.5967879548585 638.4969900609019 L 734.9315862386037 638.4969900609019 L 736.2663845223487 638.4969900609019 L 737.6011828060939 638.4969900609019 L 738.9359810898391 638.4969900609019 L 740.2707793735842 638.4969900609019 L 741.6055776573294 638.4969900609019 L 742.9403759410745 638.4969900609019 L 744.2751742248196 638.4969900609019 L 745.6099725085647 638.4969900609019 L 746.9447707923099 638.4969900609019 L 748.279569076055 638.4969900609019 L 749.6143673598001 638.4969900609019 L 750.9491656435453 638.4969900609019 L 752.2839639272904 638.4969900609019 L 753.6187622110356 638.4969900609019 L 754.9535604947807 638.4969900609019 L 756.2883587785259 638.4969900609019 L 757.6231570622709 638.4969900609019 L 758.9579553460161 638.4969900609019 L 760.2927536297613 638.4969900609019 L 761.6275519135064 638.4969900609019 L 762.9623501972515 638.4969900609019 L 764.2971484809966 638.4969900609019 L 765.6319467647418 638.4969900609019 L 766.9667450484869 638.4969900609019 L 768.3015433322321 638.4969900609019 L 769.6363416159772 638.4969900609019 L 770.9711398997224 638.4969900609019 L 772.3059381834674 638.4969900609019 L 773.6407364672126 638.4969900609019 L 774.9755347509578 638.4969900609019 L 776.3103330347029 638.4969900609019 L 777.645131318448 638.4969900609019 L 778.3125304603205 638.4969900609019 L 778.813079816725 638.4969900609019 M 778.9799296021931 315.8077703220967 L 778.9800296021931 315.8077703220967 M 778.9799296021931 315.8077703220967 L 779.4248623634415 315.8077703220967 L 780.3147278859383 315.8077703220967 L 781.204593408435 315.8077703220967 L 782.0944589309318 315.8077703220967 L 782.9843244534286 315.8077703220967 L 783.8741899759253 315.8077703220967 L 784.7640554984221 315.8077703220967 L 785.6539210209188 315.8077703220967 L 786.5437865434155 315.8077703220967 L 787.4336520659124 315.8077703220967 L 788.3235175884091 315.8077703220967 L 789.2133831109059 315.8077703220967 L 790.1032486334026 315.8077703220967 L 790.9931141558993 315.8077703220967 L 791.8829796783962 315.8077703220967 L 792.7728452008929 315.8077703220967 L 793.6627107233896 315.8077703220967 L 794.5525762458864 315.8077703220967 L 795.4424417683831 315.8077703220967 L 796.33230729088 315.8077703220967 L 797.2221728133767 315.8077703220967 L 798.1120383358734 315.8077703220967 L 799.0019038583702 315.8077703220967 L 799.8917693808669 315.8077703220967 L 800.7816349033637 315.8077703220967 L 801.6715004258605 315.8077703220967 L 802.5613659483572 315.8077703220967 L 803.4512314708539 315.8077703220967 L 804.3410969933507 315.8077703220967 L 805.2309625158475 315.8077703220967 L 806.1208280383443 315.8077703220967 L 807.010693560841 315.8077703220967 L 807.9005590833378 315.8077703220967 L 808.7904246058345 315.8077703220967 L 809.6802901283313 315.8077703220967 L 810.570155650828 315.8077703220967 L 811.4600211733248 315.8077703220967 L 812.3498866958216 315.8077703220967 L 813.2397522183182 315.8077703220967 L 814.1296177408151 315.8077703220967 L 815.0194832633118 315.8077703220967 L 815.9093487858086 315.8077703220967 L 816.7992143083054 315.8077703220967 L 817.689079830802 315.8077703220967 L 818.5789453532989 315.8077703220967 L 819.4688108757956 315.8077703220967 L 820.3586763982923 315.8077703220967 L 821.2485419207892 315.8077703220967 L 822.1384074432858 315.8077703220967 L 823.0282729657827 315.8077703220967 L 823.9181384882794 315.8077703220967 L 824.8080040107761 315.8077703220967 L 825.697869533273 315.8077703220967 L 826.5877350557696 315.8077703220967 L 827.4776005782664 315.8077703220967 L 828.3674661007632 315.8077703220967 L 829.2573316232599 315.8077703220967 L 830.1471971457568 315.8077703220967 L 831.0370626682534 315.8077703220967 L 831.9269281907502 315.8077703220967 L 832.816793713247 315.8077703220967 L 833.7066592357437 315.8077703220967 L 834.5965247582405 315.8077703220967 L 835.4863902807372 315.8077703220967 L 836.376255803234 315.8077703220967 L 837.2661213257308 315.8077703220967 L 838.1559868482275 315.8077703220967 L 839.0458523707243 315.8077703220967 L 839.935717893221 315.8077703220967 L 840.8255834157178 315.8077703220967 L 841.7154489382145 315.8077703220967 L 842.6053144607113 315.8077703220967 L 843.4951799832081 315.8077703220967 L 844.3850455057049 315.8077703220967 L 845.2749110282016 315.8077703220967 L 846.1647765506983 315.8077703220967 L 847.054642073195 315.8077703220967 L 847.9445075956919 315.8077703220967 L 848.8343731181886 315.8077703220967 L 849.7242386406854 315.8077703220967 L 850.6141041631821 315.8077703220967 L 851.5039696856788 315.8077703220967 L 852.3938352081757 315.8077703220967 L 853.2837007306724 315.8077703220967 L 854.1735662531692 315.8077703220967 L 855.0634317756659 315.8077703220967 L 855.9532972981626 315.8077703220967 L 856.8431628206595 315.8077703220967 L 857.7330283431562 315.8077703220967 L 858.6228938656529 315.8077703220967 L 859.5127593881497 315.8077703220967 L 860.4026249106464 315.8077703220967 L 861.2924904331433 315.8077703220967 L 862.18235595564 315.8077703220967 L 863.0722214781367 315.8077703220967 L 863.9620870006335 315.8077703220967 L 864.8519525231302 315.8077703220967 L 865.741818045627 315.8077703220967 L 866.6316835681238 315.8077703220967 L 867.5215490906205 315.8077703220967 L 868.4114146131174 315.8077703220967 L 869.301280135614 315.8077703220967 L 870.1911456581108 315.8077703220967 L 871.0810111806076 315.8077703220967 L 871.9708767031043 315.8077703220967 L 872.8607422256011 315.8077703220967 L 873.7506077480978 315.8077703220967 L 874.6404732705946 315.8077703220967 L 875.5303387930913 315.8077703220967 L 876.4202043155881 315.8077703220967 L 877.3100698380849 315.8077703220967 L 878.1999353605815 315.8077703220967 L 879.0898008830784 315.8077703220967 L 879.9796664055751 315.8077703220967 L 880.8695319280719 315.8077703220967 L 881.7593974505687 315.8077703220967 L 882.6492629730653 315.8077703220967 L 883.5391284955622 315.8077703220967 L 884.4289940180589 315.8077703220967 L 885.3188595405556 315.8077703220967 L 886.2087250630525 315.8077703220967 L 887.0985905855491 315.8077703220967 L 887.988456108046 315.8077703220967 L 888.8783216305427 315.8077703220967 L 889.7681871530394 315.8077703220967 L 890.6580526755363 315.8077703220967 L 891.5479181980329 315.8077703220967 L 892.4377837205298 315.8077703220967 M 892.8827164817781 154.46316045269407 L 892.882816481778 154.46316045269407 M 892.8827164817781 154.46316045269407 L 894.3675496205212 154.46316045269407 L 895.8523827592642 154.46316045269407 L 897.3372158980073 154.46316045269407 L 898.8220490367503 154.46316045269407 L 900.3068821754935 154.46316045269407 L 901.7917153142364 154.46316045269407 L 903.2765484529796 154.46316045269407 L 904.7613815917225 154.46316045269407 L 906.2462147304657 154.46316045269407 L 907.7310478692086 154.46316045269407 L 909.2158810079518 154.46316045269407 L 910.7007141466947 154.46316045269407 L 912.1855472854379 154.46316045269407 L 913.6703804241808 154.46316045269407 L 915.155213562924 154.46316045269407 L 916.640046701667 154.46316045269407 L 918.1248798404101 154.46316045269407 L 919.6097129791531 154.46316045269407 L 921.0945461178962 154.46316045269407 L 922.5793792566392 154.46316045269407 L 924.0642123953824 154.46316045269407 L 925.5490455341253 154.46316045269407 L 927.0338786728684 154.46316045269407 L 928.5187118116114 154.46316045269407 L 930.0035449503545 154.46316045269407 L 931.4883780890975 154.46316045269407 L 932.9732112278406 154.46316045269407 L 934.4580443665836 154.46316045269407 L 935.9428775053267 154.46316045269407 L 937.4277106440697 154.46316045269407 L 938.9125437828128 154.46316045269407 L 940.3973769215559 154.46316045269407 L 941.8822100602989 154.46316045269407 L 943.367043199042 154.46316045269407 L 944.851876337785 154.46316045269407 L 946.3367094765281 154.46316045269407 L 947.8215426152711 154.46316045269407 L 949.3063757540142 154.46316045269407 L 950.7912088927573 154.46316045269407 L 952.2760420315003 154.46316045269407 L 953.7608751702434 154.46316045269407 L 955.2457083089864 154.46316045269407 L 956.7305414477295 154.46316045269407 L 958.2153745864725 154.46316045269407 L 959.7002077252156 154.46316045269407 L 961.1850408639586 154.46316045269407 L 962.6698740027017 154.46316045269407 L 964.1547071414448 154.46316045269407 L 965.6395402801878 154.46316045269407 L 967.1243734189309 154.46316045269407 L 968.6092065576739 154.46316045269407 L 970.094039696417 154.46316045269407 L 971.5788728351599 154.46316045269407 L 973.0637059739031 154.46316045269407 L 974.548539112646 154.46316045269407 L 976.0333722513892 154.46316045269407 L 977.5182053901322 154.46316045269407 L 979.0030385288753 154.46316045269407 L 980.4878716676183 154.46316045269407 L 981.9727048063614 154.46316045269407 L 983.4575379451044 154.46316045269407 L 984.9423710838475 154.46316045269407 L 986.4272042225905 154.46316045269407 L 987.9120373613337 154.46316045269407 L 989.3968705000766 154.46316045269407 L 990.8817036388198 154.46316045269407 L 992.3665367775627 154.46316045269407 L 993.8513699163059 154.46316045269407 L 995.3362030550488 154.46316045269407 L 996.821036193792 154.46316045269407 L 998.3058693325349 154.46316045269407 L 999.790702471278 154.46316045269407 L 1001.275535610021 154.46316045269407 L 1002.7603687487642 154.46316045269407 L 1004.2452018875072 154.46316045269407 L 1005.7300350262502 154.46316045269407 L 1007.2148681649934 154.46316045269407 L 1008.6997013037364 154.46316045269407 L 1010.1845344424794 154.46316045269407 L 1011.6693675812224 154.46316045269407 L 1013.1542007199655 154.46316045269407 L 1014.6390338587087 154.46316045269407 L 1016.1238669974516 154.46316045269407 L 1017.6087001361947 154.46316045269407 L 1019.0935332749377 154.46316045269407 L 1020.5783664136809 154.46316045269407 L 1022.0631995524238 154.46316045269407 L 1023.5480326911669 154.46316045269407 L 1025.03286582991 154.46316045269407 L 1026.5176989686531 154.46316045269407 L 1028.002532107396 154.46316045269407 L 1029.4873652461392 154.46316045269407 L 1030.9721983848822 154.46316045269407 L 1032.4570315236253 154.46316045269407 L 1033.9418646623683 154.46316045269407 L 1035.4266978011115 154.46316045269407 L 1036.9115309398544 154.46316045269407 L 1038.3963640785973 154.46316045269407 L 1039.8811972173405 154.46316045269407 L 1041.3660303560837 154.46316045269407 L 1042.8508634948266 154.46316045269407 L 1044.3356966335696 154.46316045269407 L 1045.8205297723127 154.46316045269407 L 1047.3053629110557 154.46316045269407 L 1048.7901960497989 154.46316045269407 L 1050.2750291885418 154.46316045269407 L 1051.759862327285 154.46316045269407 L 1053.2446954660281 154.46316045269407 L 1054.729528604771 154.46316045269407 L 1056.214361743514 154.46316045269407 L 1057.6991948822572 154.46316045269407 L 1059.1840280210001 154.46316045269407 L 1060.6688611597433 154.46316045269407 L 1062.1536942984862 154.46316045269407 L 1063.6385274372294 154.46316045269407 L 1065.1233605759726 154.46316045269407 L 1066.6081937147155 154.46316045269407 L 1068.0930268534585 154.46316045269407 L 1069.5778599922016 154.46316045269407 L 1071.0626931309446 154.46316045269407 L 1072.5475262696878 154.46316045269407 L 1074.0323594084307 154.46316045269407 L 1075.5171925471739 154.46316045269407 L 1077.002025685917 154.46316045269407 L 1078.48685882466 154.46316045269407 L 1079.971691963403 154.46316045269407 L 1081.456525102146 154.46316045269407 L 1082.941358240889 154.46316045269407 L 1084.4261913796322 154.46316045269407 L 1085.9110245183751 154.46316045269407 L 1087.395857657118 154.46316045269407 L 1088.8806907958615 154.46316045269407 L 1090.3655239346044 154.46316045269407 L 1091.8503570733474 154.46316045269407 L 1093.3351902120903 154.46316045269407 L 1094.8200233508335 154.46316045269407 L 1096.3048564895767 154.46316045269407 L 1097.7896896283196 154.46316045269407 L 1099.2745227670625 154.46316045269407 L 1100.759355905806 154.46316045269407 L 1102.2441890445489 154.46316045269407 L 1103.7290221832918 154.46316045269407 L 1105.2138553220348 154.46316045269407 L 1106.698688460778 154.46316045269407 L 1108.183521599521 154.46316045269407 L 1109.668354738264 154.46316045269407 L 1111.153187877007 154.46316045269407 L 1112.6380210157504 154.46316045269407 L 1114.1228541544933 154.46316045269407 L 1115.6076872932363 154.46316045269407 L 1117.0925204319792 154.46316045269407 L 1118.5773535707224 154.46316045269407 L 1120.0621867094655 154.46316045269407 L 1121.5470198482085 154.46316045269407 L 1123.0318529869517 154.46316045269407 L 1124.5166861256948 154.46316045269407 L 1126.0015192644378 154.46316045269407 L 1127.4863524031807 154.46316045269407 L 1128.9711855419237 154.46316045269407 L 1130.4560186806668 154.46316045269407 L 1131.94085181941 154.46316045269407 L 1133.425684958153 154.46316045269407 L 1134.910518096896 154.46316045269407 L 1136.3953512356393 154.46316045269407 L 1137.8801843743822 154.46316045269407 L 1139.3650175131252 154.46316045269407 L 1140.849850651868 154.46316045269407 L 1142.3346837906113 154.46316045269407 L 1143.8195169293544 154.46316045269407 L 1145.3043500680974 154.46316045269407 L 1146.7891832068406 154.46316045269407 L 1148.2740163455835 154.46316045269407 L 1149.7588494843267 154.46316045269407 L 1151.2436826230696 154.46316045269407 L 1152.7285157618126 154.46316045269407 L 1154.2133489005555 154.46316045269407 L 1155.698182039299 154.46316045269407 L 1157.1830151780418 154.46316045269407 L 1158.667848316785 154.46316045269407 L 1160.152681455528 154.46316045269407 L 1161.6375145942711 154.46316045269407 L 1163.122347733014 154.46316045269407 L 1164.607180871757 154.46316045269407 L 1166.0920140105 154.46316045269407 L 1167.5768471492433 154.46316045269407 L 1169.0616802879863 154.46316045269407 L 1170.5465134267292 154.46316045269407 L 1172.0313465654724 154.46316045269407 L 1173.5161797042156 154.46316045269407 L 1175.0010128429585 154.46316045269407 L 1176.4858459817015 154.46316045269407 L 1177.9706791204446 154.46316045269407 L 1179.4555122591878 154.46316045269407 L 1180.9403453979307 154.46316045269407 L 1182.4251785366737 154.46316045269407 L 1183.9100116754169 154.46316045269407 L 1185.39484481416 154.46316045269407 L 1186.879677952903 154.46316045269407 L 1188.364511091646 154.46316045269407 L 1189.849344230389 154.46316045269407 L 1191.3341773691322 154.46316045269407 L 1192.8190105078752 154.46316045269407 L 1194.3038436466181 154.46316045269407 L 1195.7886767853613 154.46316045269407 L 1197.2735099241045 154.46316045269407 L 1198.7583430628474 154.46316045269407 L 1200.2431762015904 154.46316045269407 L 1201.7280093403335 154.46316045269407 L 1203.2128424790767 154.46316045269407 L 1204.6976756178196 154.46316045269407 L 1206.1825087565626 154.46316045269407 L 1207.6673418953058 154.46316045269407 L 1209.152175034049 154.46316045269407 L 1210.6370081727919 154.46316045269407 L 1212.1218413115348 154.46316045269407 L 1213.606674450278 154.46316045269407 L 1215.091507589021 154.46316045269407 L 1216.576340727764 154.46316045269407 L 1218.061173866507 154.46316045269407 L 1219.5460070052502 154.46316045269407 L 1221.0308401439931 154.46316045269407 L 1222.5156732827363 154.46316045269407 L 1224.0005064214793 154.46316045269407 L 1225.4853395602224 154.46316045269407 L 1226.9701726989654 154.46316045269407 L 1228.4550058377085 154.46316045269407 L 1229.9398389764515 154.46316045269407 L 1231.4246721151947 154.46316045269407 L 1232.9095052539376 154.46316045269407 L 1234.3943383926808 154.46316045269407 L 1235.8791715314237 154.46316045269407 L 1237.3640046701667 154.46316045269407 L 1238.8488378089098 154.46316045269407 L 1240.333670947653 154.46316045269407 L 1241.818504086396 154.46316045269407 L 1243.3033372251389 154.46316045269407 L 1244.788170363882 154.46316045269407 L 1246.2730035026252 154.46316045269407 L 1247.7578366413682 154.46316045269407 L 1249.242669780111 154.46316045269407 L 1250.7275029188543 154.46316045269407 L 1252.2123360575974 154.46316045269407 L 1253.6971691963404 154.46316045269407 L 1255.1820023350833 154.46316045269407 L 1256.6668354738265 154.46316045269407 L 1258.1516686125697 154.46316045269407 L 1259.6365017513126 154.46316045269407 L 1261.1213348900556 154.46316045269407 L 1262.6061680287987 154.46316045269407 L 1264.091001167542 154.46316045269407 L 1265.5758343062848 154.46316045269407 L 1267.0606674450278 154.46316045269407 L 1268.545500583771 154.46316045269407 L 1270.0303337225141 154.46316045269407 L 1271.515166861257 154.46316045269407 L 1273 154.46316045269407" stroke-opacity="0.8" stroke-linecap="round" stroke-linejoin="round" stroke-miterlimit="10" stroke-width="2.5"/><path fill="rgb(211,47,47)" stroke="none" paint-order="stroke fill markers" d=" M 442.9318842786762 638.4969900609019 C 442.9318842786762 641.2584138100559 440.69330802783014 643.4969900609019 437.9318842786762 643.4969900609019 C 435.17046052952224 643.4969900609019 432.9318842786762 641.2584138100559 432.9318842786762 638.4969900609019 C 432.9318842786762 635.7355663117479 435.17046052952224 633.4969900609019 437.9318842786762 633.4969900609019 C 440.69330802783014 633.4969900609019 442.9318842786762 635.7355663117479 442.9318842786762 638.4969900609019 Z" fill-opacity="1"/><path fill="none" stroke="rgb(0,0,0)" paint-order="fill stroke markers" d=" M 442.9318842786762 638.4969900609019 C 442.9318842786762 641.2584138100559 440.69330802783014 643.4969900609019 437.9318842786762 643.4969900609019 C 435.17046052952224 643.4969900609019 432.9318842786762 641.2584138100559 432.9318842786762 638.4969900609019 C 432.9318842786762 635.7355663117479 435.17046052952224 633.4969900609019 437.9318842786762 633.4969900609019 C 440.69330802783014 633.4969900609019 442.9318842786762 635.7355663117479 442.9318842786762 638.4969900609019 Z" stroke-opacity="1" stroke-linecap="round" stroke-linejoin="round" stroke-miterlimit="10"/><path fill="rgb(211,47,47)" stroke="none" paint-order="stroke fill markers" d=" M 785.2028049783985 315.8077703220967 C 785.2028049783985 318.56919407125065 782.9642287275525 320.8077703220967 780.2028049783985 320.8077703220967 C 777.4413812292445 320.8077703220967 775.2028049783985 318.56919407125065 775.2028049783985 315.8077703220967 C 775.2028049783985 313.04634657294275 777.4413812292445 310.8077703220967 780.2028049783985 310.8077703220967 C 782.9642287275525 310.8077703220967 785.2028049783985 313.04634657294275 785.2028049783985 315.8077703220967 Z" fill-opacity="1"/><path fill="none" stroke="rgb(0,0,0)" paint-order="fill stroke markers" d=" M 785.2028049783985 315.8077703220967 C 785.2028049783985 318.56919407125065 782.9642287275525 320.8077703220967 780.2028049783985 320.8077703220967 C 777.4413812292445 320.8077703220967 775.2028049783985 318.56919407125065 775.2028049783985 315.8077703220967 C 775.2028049783985 313.04634657294275 777.4413812292445 310.8077703220967 780.2028049783985 310.8077703220967 C 782.9642287275525 310.8077703220967 785.2028049783985 313.04634657294275 785.2028049783985 315.8077703220967 Z" stroke-opacity="1" stroke-linecap="round" stroke-linejoin="round" stroke-miterlimit="10"/><path fill="rgb(211,47,47)" stroke="none" paint-order="stroke fill markers" d=" M 897.8827164817781 154.46316045269407 C 897.8827164817781 157.22458420184805 895.6441402309321 159.46316045269407 892.8827164817781 159.46316045269407 C 890.121292732624 159.46316045269407 887.8827164817781 157.22458420184805 887.8827164817781 154.46316045269407 C 887.8827164817781 151.7017367035401 890.121292732624 149.46316045269407 892.8827164817781 149.46316045269407 C 895.6441402309321 149.46316045269407 897.8827164817781 151.7017367035401 897.8827164817781 154.46316045269407 Z" fill-opacity="1"/><path fill="none" stroke="rgb(0,0,0)" paint-order="fill stroke markers" d=" M 897.8827164817781 154.46316045269407 C 897.8827164817781 157.22458420184805 895.6441402309321 159.46316045269407 892.8827164817781 159.46316045269407 C 890.121292732624 159.46316045269407 887.8827164817781 157.22458420184805 887.8827164817781 154.46316045269407 C 887.8827164817781 151.7017367035401 890.121292732624 149.46316045269407 892.8827164817781 149.46316045269407 C 895.6441402309321 149.46316045269407 897.8827164817781 151.7017367035401 897.8827164817781 154.46316045269407 Z" stroke-opacity="1" stroke-linecap="round" stroke-linejoin="round" stroke-miterlimit="10"/></g></g></svg>