<svg version="1.1" xmlns="http://www.w3.org/2000/svg" xmlns:xlink="http://www.w3.org/1999/xlink" width="1006" height="851"><defs><clipPath id="KEInmwhqTmPN"><path fill="none" stroke="none" d=" M 0 0 L 1006 0 L 1006 851 L 0 851 L 0 0 Z"/></clipPath></defs><g transform="scale(1,1)" clip-path="url(#KEInmwhqTmPN)"><g><rect fill="rgb(255,255,255)" stroke="none" x="0" y="0" width="1006" height="851" fill-opacity="1"/><path fill="none" stroke="rgb(192,192,192)" paint-order="fill stroke markers" d=" M 2.5 0.5 L 2.5 851.5 M 2.5 0.5 L 2.5 851.5 M 180.5 0.5 L 180.5 851.5 M 269.5 0.5 L 269.5 851.5 M 358.5 0.5 L 358.5 851.5 M 447.5 0.5 L 447.5 851.5 M 536.5 0.5 L 536.5 851.5 M 625.5 0.5 L 625.5 851.5 M 714.5 0.5 L 714.5 851.5 M 803.5 0.5 L 803.5 851.5 M 892.5 0.5 L 892.5 851.5 M 981.5 0.5 L 981.5 851.5" stroke-opacity="1" stroke-linecap="round" stroke-linejoin="round" stroke-miterlimit="10"/><path fill="none" stroke="rgb(192,192,192)" paint-order="fill stroke markers" d=" M 20.5 0.5 L 20.5 851.5 M 37.5 0.5 L 37.5 851.5 M 55.5 0.5 L 55.5 851.5 M 73.5 0.5 L 73.5 851.5 M 109.5 0.5 L 109.5 851.5 M 126.5 0.5 L 126.5 851.5 M 144.5 0.5 L 144.5 851.5 M 162.5 0.5 L 162.5 851.5 M 198.5 0.5 L 198.5 851.5 M 215.5 0.5 L 215.5 851.5 M 233.5 0.5 L 233.5 851.5 M 251.5 0.5 L 251.5 851.5 M 287.5 0.5 L 287.5 851.5 M 304.5 0.5 L 304.5 851.5 M 322.5 0.5 L 322.5 851.5 M 340.5 0.5 L 340.5 851.5 M 376.5 0.5 L 376.5 851.5 M 393.5 0.5 L 393.5 851.5 M 411.5 0.5 L 411.5 851.5 M 429.5 0.5 L 429.5 851.5 M 465.5 0.5 L 465.5 851.5 M 482.5 0.5 L 482.5 851.5 M 500.5 0.5 L 500.5 851.5 M 518.5 0.5 L 518.5 851.5 M 554.5 0.5 L 554.5 851.5 M 571.5 0.5 L 571.5 851.5 M 589.5 0.5 L 589.5 851.5 M 607.5 0.5 L 607.5 851.5 M 643.5 0.5 L 643.5 851.5 M 661.5 0.5 L 661.5 851.5 M 678.5 0.5 L 678.5 851.5 M 696.5 0.5 L 696.5 851.5 M 732.5 0.5 L 732.5 851.5 M 750.5 0.5 L 750.5 851.5 M 767.5 0.5 L 767.5 851.5 M 785.5 0.5 L 785.5 851.5 M 821.5 0.5 L 821.5 851.5 M 839.5 0.5 L 839.5 851.5 M 856.5 0.5 L 856.5 851.5 M 874.5 0.5 L 874.5 851.5 M 910.5 0.5 L 910.5 851.5 M 928.5 0.5 L 928.5 851.5 M 945.5 0.5 L 945.5 851.5 M 963.5 0.5 L 963.5 851.5 M 999.5 0.5 L 999.5 851.5" stroke-opacity="0.23529411764705882" stroke-linecap="round" stroke-linejoin="round" stroke-miterlimit="10"/><path fill="none" stroke="rgb(192,192,192)" paint-order="fill stroke markers" d=" M 0.5 7.5 L 1006.5 7.5 M 0.5 7.5 L 1006.5 7.5 M 0.5 96.5 L 1006.5 96.5 M 0.5 185.5 L 1006.5 185.5 M 0.5 274.5 L 1006.5 274.5 M 0.5 363.5 L 1006.5 363.5 M 0.5 452.5 L 1006.5 452.5 M 0.5 631.5 L 1006.5 631.5 M 0.5 720.5 L 1006.5 720.5 M 0.5 809.5 L 1006.5 809.5" stroke-opacity="1" stroke-linecap="round" stroke-linejoin="round" stroke-miterlimit="10"/><path fill="none" stroke="rgb(192,192,192)" paint-order="fill stroke markers" d=" M 0.5 7.5 L 1006.5 7.5 M 0.5 25.5 L 1006.5 25.5 M 0.5 43.5 L 1006.5 43.5 M 0.5 61.5 L 1006.5 61.5 M 0.5 79.5 L 1006.5 79.5 M 0.5 114.5 L 1006.5 114.5 M 0.5 132.5 L 1006.5 132.5 M 0.5 150.5 L 1006.5 150.5 M 0.5 168.5 L 1006.5 168.5 M 0.5 203.5 L 1006.5 203.5 M 0.5 221.5 L 1006.5 221.5 M 0.5 239.5 L 1006.5 239.5 M 0.5 257.5 L 1006.5 257.5 M 0.5 292.5 L 1006.5 292.5 M 0.5 310.5 L 1006.5 310.5 M 0.5 328.5 L 1006.5 328.5 M 0.5 346.5 L 1006.5 346.5 M 0.5 381.5 L 1006.5 381.5 M 0.5 399.5 L 1006.5 399.5 M 0.5 417.5 L 1006.5 417.5 M 0.5 435.5 L 1006.5 435.5 M 0.5 470.5 L 1006.5 470.5 M 0.5 488.5 L 1006.5 488.5 M 0.5 506.5 L 1006.5 506.5 M 0.5 524.5 L 1006.5 524.5 M 0.5 559.5 L 1006.5 559.5 M 0.5 577.5 L 1006.5 577.5 M 0.5 595.5 L 1006.5 595.5 M 0.5 613.5 L 1006.5 613.5 M 0.5 648.5 L 1006.5 648.5 M 0.5 666.5 L 1006.5 666.5 M 0.5 684.5 L 1006.5 684.5 M 0.5 702.5 L 1006.5 702.5 M 0.5 737.5 L 1006.5 737.5 M 0.5 755.5 L 1006.5 755.5 M 0.5 773.5 L 1006.5 773.5 M 0.5 791.5 L 1006.5 791.5 M 0.5 826.5 L 1006.5 826.5 M 0.5 844.5 L 1006.5 844.5" stroke-opacity="0.23529411764705882" stroke-linecap="round" stroke-linejoin="round" stroke-miterlimit="10"/><path fill="none" stroke="rgb(37,37,37)" paint-order="fill stroke markers" d=" M 91.5 2.5 L 91.5 851.5" stroke-opacity="1" stroke-miterlimit="10"/><path fill="none" stroke="rgb(37,37,37)" paint-order="fill stroke markers" d=" M 91.5 1.5 L 87.5 5.5" stroke-opacity="1" stroke-miterlimit="10"/><path fill="none" stroke="rgb(37,37,37)" paint-order="fill stroke markers" d=" M 91.5 1.5 L 95.5 5.5" stroke-opacity="1" stroke-miterlimit="10"/><text fill="rgb(37,37,37)" stroke="none" font-family="geogebra-sans-serif, sans-serif" font-size="16px" font-style="normal" font-weight="normal" text-decoration="normal" x="988" y="537" text-anchor="start" dominant-baseline="alphabetic" fill-opacity="1">x</text><path fill="none" stroke="rgb(37,37,37)" paint-order="fill stroke markers" d=" M 0.5 541.5 L 1004.5 541.5" stroke-opacity="1" stroke-miterlimit="10"/><path fill="none" stroke="rgb(37,37,37)" paint-order="fill stroke markers" d=" M 1005.5 541.5 L 1001.5 537.5" stroke-opacity="1" stroke-miterlimit="10"/><path fill="none" stroke="rgb(37,37,37)" paint-order="fill stroke markers" d=" M 1005.5 541.5 L 1001.5 545.5" stroke-opacity="1" stroke-miterlimit="10"/><text fill="rgb(37,37,37)" stroke="none" font-family="geogebra-sans-serif, sans-serif" font-size="12px" font-style="normal" font-weight="normal" text-decoration="normal" x="172" y="557" text-anchor="start" dominant-baseline="alphabetic" fill-opacity="1">0.5</text><text fill="none" stroke="rgb(255,255,255)" font-family="geogebra-sans-serif, sans-serif" font-size="12px" font-style="normal" font-weight="normal" text-decoration="normal" x="172" y="557" text-anchor="start" dominant-baseline="alphabetic" stroke-opacity="1" stroke-linejoin="bevel" stroke-miterlimit="10" stroke-width="3">0.5</text><text fill="rgb(37,37,37)" stroke="none" font-family="geogebra-sans-serif, sans-serif" font-size="12px" font-style="normal" font-weight="normal" text-decoration="normal" x="172" y="557" text-anchor="start" dominant-baseline="alphabetic" fill-opacity="1">0.5</text><text fill="rgb(37,37,37)" stroke="none" font-family="geogebra-sans-serif, sans-serif" font-size="12px" font-style="normal" font-weight="normal" text-decoration="normal" x="267" y="557" text-anchor="start" dominant-baseline="alphabetic" fill-opacity="1">1</text><text fill="none" stroke="rgb(255,255,255)" font-family="geogebra-sans-serif, sans-serif" font-size="12px" font-style="normal" font-weight="normal" text-decoration="normal" x="267" y="557" text-anchor="start" dominant-baseline="alphabetic" stroke-opacity="1" stroke-linejoin="bevel" stroke-miterlimit="10" stroke-width="3">1</text><text fill="rgb(37,37,37)" stroke="none" font-family="geogebra-sans-serif, sans-serif" font-size="12px" font-style="normal" font-weight="normal" text-decoration="normal" x="267" y="557" text-anchor="start" dominant-baseline="alphabetic" fill-opacity="1">1</text><text fill="rgb(37,37,37)" stroke="none" font-family="geogebra-sans-serif, sans-serif" font-size="12px" font-style="normal" font-weight="normal" text-decoration="normal" x="350" y="557" text-anchor="start" dominant-baseline="alphabetic" fill-opacity="1">1.5</text><text fill="none" stroke="rgb(255,255,255)" font-family="geogebra-sans-serif, sans-serif" font-size="12px" font-style="normal" font-weight="normal" text-decoration="normal" x="350" y="557" text-anchor="start" dominant-baseline="alphabetic" stroke-opacity="1" stroke-linejoin="bevel" stroke-miterlimit="10" stroke-width="3">1.5</text><text fill="rgb(37,37,37)" stroke="none" font-family="geogebra-sans-serif, sans-serif" font-size="12px" font-style="normal" font-weight="normal" text-decoration="normal" x="350" y="557" text-anchor="start" dominant-baseline="alphabetic" fill-opacity="1">1.5</text><text fill="rgb(37,37,37)" stroke="none" font-family="geogebra-sans-serif, sans-serif" font-size="12px" font-style="normal" font-weight="normal" text-decoration="normal" x="445" y="557" text-anchor="start" dominant-baseline="alphabetic" fill-opacity="1">2</text><text fill="none" stroke="rgb(255,255,255)" font-family="geogebra-sans-serif, sans-serif" font-size="12px" font-style="normal" font-weight="normal" text-decoration="normal" x="445" y="557" text-anchor="start" dominant-baseline="alphabetic" stroke-opacity="1" stroke-linejoin="bevel" stroke-miterlimit="10" stroke-width="3">2</text><text fill="rgb(37,37,37)" stroke="none" font-family="geogebra-sans-serif, sans-serif" font-size="12px" font-style="normal" font-weight="normal" text-decoration="normal" x="445" y="557" text-anchor="start" dominant-baseline="alphabetic" fill-opacity="1">2</text><text fill="rgb(37,37,37)" stroke="none" font-family="geogebra-sans-serif, sans-serif" font-size="12px" font-style="normal" font-weight="normal" text-decoration="normal" x="528" y="557" text-anchor="start" dominant-baseline="alphabetic" fill-opacity="1">2.5</text><text fill="none" stroke="rgb(255,255,255)" font-family="geogebra-sans-serif, sans-serif" font-size="12px" font-style="normal" font-weight="normal" text-decoration="normal" x="528" y="557" text-anchor="start" dominant-baseline="alphabetic" stroke-opacity="1" stroke-linejoin="bevel" stroke-miterlimit="10" stroke-width="3">2.5</text><text fill="rgb(37,37,37)" stroke="none" font-family="geogebra-sans-serif, sans-serif" font-size="12px" font-style="normal" font-weight="normal" text-decoration="normal" x="528" y="557" text-anchor="start" dominant-baseline="alphabetic" fill-opacity="1">2.5</text><text fill="rgb(37,37,37)" stroke="none" font-family="geogebra-sans-serif, sans-serif" font-size="12px" font-style="normal" font-weight="normal" text-decoration="normal" x="623" y="557" text-anchor="start" dominant-baseline="alphabetic" fill-opacity="1">3</text><text fill="none" stroke="rgb(255,255,255)" font-family="geogebra-sans-serif, sans-serif" font-size="12px" font-style="normal" font-weight="normal" text-decoration="normal" x="623" y="557" text-anchor="start" dominant-baseline="alphabetic" stroke-opacity="1" stroke-linejoin="bevel" stroke-miterlimit="10" stroke-width="3">3</text><text fill="rgb(37,37,37)" stroke="none" font-family="geogebra-sans-serif, sans-serif" font-size="12px" font-style="normal" font-weight="normal" text-decoration="normal" x="623" y="557" text-anchor="start" dominant-baseline="alphabetic" fill-opacity="1">3</text><text fill="rgb(37,37,37)" stroke="none" font-family="geogebra-sans-serif, sans-serif" font-size="12px" font-style="normal" font-weight="normal" text-decoration="normal" x="706" y="557" text-anchor="start" dominant-baseline="alphabetic" fill-opacity="1">3.5</text><text fill="none" stroke="rgb(255,255,255)" font-family="geogebra-sans-serif, sans-serif" font-size="12px" font-style="normal" font-weight="normal" text-decoration="normal" x="706" y="557" text-anchor="start" dominant-baseline="alphabetic" stroke-opacity="1" stroke-linejoin="bevel" stroke-miterlimit="10" stroke-width="3">3.5</text><text fill="rgb(37,37,37)" stroke="none" font-family="geogebra-sans-serif, sans-serif" font-size="12px" font-style="normal" font-weight="normal" text-decoration="normal" x="706" y="557" text-anchor="start" dominant-baseline="alphabetic" fill-opacity="1">3.5</text><text fill="rgb(37,37,37)" stroke="none" font-family="geogebra-sans-serif, sans-serif" font-size="12px" font-style="normal" font-weight="normal" text-decoration="normal" x="801" y="557" text-anchor="start" dominant-baseline="alphabetic" fill-opacity="1">4</text><text fill="none" stroke="rgb(255,255,255)" font-family="geogebra-sans-serif, sans-serif" font-size="12px" font-style="normal" font-weight="normal" text-decoration="normal" x="801" y="557" text-anchor="start" dominant-baseline="alphabetic" stroke-opacity="1" stroke-linejoin="bevel" stroke-miterlimit="10" stroke-width="3">4</text><text fill="rgb(37,37,37)" stroke="none" font-family="geogebra-sans-serif, sans-serif" font-size="12px" font-style="normal" font-weight="normal" text-decoration="normal" x="801" y="557" text-anchor="start" dominant-baseline="alphabetic" fill-opacity="1">4</text><text fill="rgb(37,37,37)" stroke="none" font-family="geogebra-sans-serif, sans-serif" font-size="12px" font-style="normal" font-weight="normal" text-decoration="normal" x="884" y="557" text-anchor="start" dominant-baseline="alphabetic" fill-opacity="1">4.5</text><text fill="none" stroke="rgb(255,255,255)" font-family="geogebra-sans-serif, sans-serif" font-size="12px" font-style="normal" font-weight="normal" text-decoration="normal" x="884" y="557" text-anchor="start" dominant-baseline="alphabetic" stroke-opacity="1" stroke-linejoin="bevel" stroke-miterlimit="10" stroke-width="3">4.5</text><text fill="rgb(37,37,37)" stroke="none" font-family="geogebra-sans-serif, sans-serif" font-size="12px" font-style="normal" font-weight="normal" text-decoration="normal" x="884" y="557" text-anchor="start" dominant-baseline="alphabetic" fill-opacity="1">4.5</text><text fill="rgb(37,37,37)" stroke="none" font-family="geogebra-sans-serif, sans-serif" font-size="12px" font-style="normal" font-weight="normal" text-decoration="normal" x="979" y="557" text-anchor="start" dominant-baseline="alphabetic" fill-opacity="1">5</text><text fill="none" stroke="rgb(255,255,255)" font-family="geogebra-sans-serif, sans-serif" font-size="12px" font-style="normal" font-weight="normal" text-decoration="normal" x="979" y="557" text-anchor="start" dominant-baseline="alphabetic" stroke-opacity="1" stroke-linejoin="bevel" stroke-miterlimit="10" stroke-width="3">5</text><text fill="rgb(37,37,37)" stroke="none" font-family="geogebra-sans-serif, sans-serif" font-size="12px" font-style="normal" font-weight="normal" text-decoration="normal" x="979" y="557" text-anchor="start" dominant-baseline="alphabetic" fill-opacity="1">5</text><text fill="rgb(37,37,37)" stroke="none" font-family="geogebra-sans-serif, sans-serif" font-size="12px" font-style="normal" font-weight="normal" text-decoration="normal" x="61" y="814" text-anchor="start" dominant-baseline="alphabetic" fill-opacity="1">–1.5</text><text fill="none" stroke="rgb(255,255,255)" font-family="geogebra-sans-serif, sans-serif" font-size="12px" font-style="normal" font-weight="normal" text-decoration="normal" x="61" y="814" text-anchor="start" dominant-baseline="alphabetic" stroke-opacity="1" stroke-linejoin="bevel" stroke-miterlimit="10" stroke-width="3">–1.5</text><text fill="rgb(37,37,37)" stroke="none" font-family="geogebra-sans-serif, sans-serif" font-size="12px" font-style="normal" font-weight="normal" text-decoration="normal" x="61" y="814" text-anchor="start" dominant-baseline="alphabetic" fill-opacity="1">–1.5</text><text fill="rgb(37,37,37)" stroke="none" font-family="geogebra-sans-serif, sans-serif" font-size="12px" font-style="normal" font-weight="normal" text-decoration="normal" x="70" y="725" text-anchor="start" dominant-baseline="alphabetic" fill-opacity="1">–1</text><text fill="none" stroke="rgb(255,255,255)" font-family="geogebra-sans-serif, sans-serif" font-size="12px" font-style="normal" font-weight="normal" text-decoration="normal" x="70" y="725" text-anchor="start" dominant-baseline="alphabetic" stroke-opacity="1" stroke-linejoin="bevel" stroke-miterlimit="10" stroke-width="3">–1</text><text fill="rgb(37,37,37)" stroke="none" font-family="geogebra-sans-serif, sans-serif" font-size="12px" font-style="normal" font-weight="normal" text-decoration="normal" x="70" y="725" text-anchor="start" dominant-baseline="alphabetic" fill-opacity="1">–1</text><text fill="rgb(37,37,37)" stroke="none" font-family="geogebra-sans-serif, sans-serif" font-size="12px" font-style="normal" font-weight="normal" text-decoration="normal" x="61" y="636" text-anchor="start" dominant-baseline="alphabetic" fill-opacity="1">–0.5</text><text fill="none" stroke="rgb(255,255,255)" font-family="geogebra-sans-serif, sans-serif" font-size="12px" font-style="normal" font-weight="normal" text-decoration="normal" x="61" y="636" text-anchor="start" dominant-baseline="alphabetic" stroke-opacity="1" stroke-linejoin="bevel" stroke-miterlimit="10" stroke-width="3">–0.5</text><text fill="rgb(37,37,37)" stroke="none" font-family="geogebra-sans-serif, sans-serif" font-size="12px" font-style="normal" font-weight="normal" text-decoration="normal" x="61" y="636" text-anchor="start" dominant-baseline="alphabetic" fill-opacity="1">–0.5</text><text fill="rgb(37,37,37)" stroke="none" font-family="geogebra-sans-serif, sans-serif" font-size="12px" font-style="normal" font-weight="normal" text-decoration="normal" x="67" y="457" text-anchor="start" dominant-baseline="alphabetic" fill-opacity="1">0.5</text><text fill="none" stroke="rgb(255,255,255)" font-family="geogebra-sans-serif, sans-serif" font-size="12px" font-style="normal" font-weight="normal" text-decoration="normal" x="67" y="457" text-anchor="start" dominant-baseline="alphabetic" stroke-opacity="1" stroke-linejoin="bevel" stroke-miterlimit="10" stroke-width="3">0.5</text><text fill="rgb(37,37,37)" stroke="none" font-family="geogebra-sans-serif, sans-serif" font-size="12px" font-style="normal" font-weight="normal" text-decoration="normal" x="67" y="457" text-anchor="start" dominant-baseline="alphabetic" fill-opacity="1">0.5</text><text fill="rgb(37,37,37)" stroke="none" font-family="geogebra-sans-serif, sans-serif" font-size="12px" font-style="normal" font-weight="normal" text-decoration="normal" x="77" y="368" text-anchor="start" dominant-baseline="alphabetic" fill-opacity="1">1</text><text fill="none" stroke="rgb(255,255,255)" font-family="geogebra-sans-serif, sans-serif" font-size="12px" font-style="normal" font-weight="normal" text-decoration="normal" x="77" y="368" text-anchor="start" dominant-baseline="alphabetic" stroke-opacity="1" stroke-linejoin="bevel" stroke-miterlimit="10" stroke-width="3">1</text><text fill="rgb(37,37,37)" stroke="none" font-family="geogebra-sans-serif, sans-serif" font-size="12px" font-style="normal" font-weight="normal" text-decoration="normal" x="77" y="368" text-anchor="start" dominant-baseline="alphabetic" fill-opacity="1">1</text><text fill="rgb(37,37,37)" stroke="none" font-family="geogebra-sans-serif, sans-serif" font-size="12px" font-style="normal" font-weight="normal" text-decoration="normal" x="67" y="279" text-anchor="start" dominant-baseline="alphabetic" fill-opacity="1">1.5</text><text fill="none" stroke="rgb(255,255,255)" font-family="geogebra-sans-serif, sans-serif" font-size="12px" font-style="normal" font-weight="normal" text-decoration="normal" x="67" y="279" text-anchor="start" dominant-baseline="alphabetic" stroke-opacity="1" stroke-linejoin="bevel" stroke-miterlimit="10" stroke-width="3">1.5</text><text fill="rgb(37,37,37)" stroke="none" font-family="geogebra-sans-serif, sans-serif" font-size="12px" font-style="normal" font-weight="normal" text-decoration="normal" x="67" y="279" text-anchor="start" dominant-baseline="alphabetic" fill-opacity="1">1.5</text><text fill="rgb(37,37,37)" stroke="none" font-family="geogebra-sans-serif, sans-serif" font-size="12px" font-style="normal" font-weight="normal" text-decoration="normal" x="77" y="190" text-anchor="start" dominant-baseline="alphabetic" fill-opacity="1">2</text><text fill="none" stroke="rgb(255,255,255)" font-family="geogebra-sans-serif, sans-serif" font-size="12px" font-style="normal" font-weight="normal" text-decoration="normal" x="77" y="190" text-anchor="start" dominant-baseline="alphabetic" stroke-opacity="1" stroke-linejoin="bevel" stroke-miterlimit="10" stroke-width="3">2</text><text fill="rgb(37,37,37)" stroke="none" font-family="geogebra-sans-serif, sans-serif" font-size="12px" font-style="normal" font-weight="normal" text-decoration="normal" x="77" y="190" text-anchor="start" dominant-baseline="alphabetic" fill-opacity="1">2</text><text fill="rgb(37,37,37)" stroke="none" font-family="geogebra-sans-serif, sans-serif" font-size="12px" font-style="normal" font-weight="normal" text-decoration="normal" x="67" y="101" text-anchor="start" dominant-baseline="alphabetic" fill-opacity="1">2.5</text><text fill="none" stroke="rgb(255,255,255)" font-family="geogebra-sans-serif, sans-serif" font-size="12px" font-style="normal" font-weight="normal" text-decoration="normal" x="67" y="101" text-anchor="start" dominant-baseline="alphabetic" stroke-opacity="1" stroke-linejoin="bevel" stroke-miterlimit="10" stroke-width="3">2.5</text><text fill="rgb(37,37,37)" stroke="none" font-family="geogebra-sans-serif, sans-serif" font-size="12px" font-style="normal" font-weight="normal" text-decoration="normal" x="67" y="101" text-anchor="start" dominant-baseline="alphabetic" fill-opacity="1">2.5</text><text fill="rgb(37,37,37)" stroke="none" font-family="geogebra-sans-serif, sans-serif" font-size="12px" font-style="normal" font-weight="normal" text-decoration="normal" x="77" y="557" text-anchor="start" dominant-baseline="alphabetic" fill-opacity="1">0</text><text fill="none" stroke="rgb(255,255,255)" font-family="geogebra-sans-serif, sans-serif" font-size="12px" font-style="normal" font-weight="normal" text-decoration="normal" x="77" y="557" text-anchor="start" dominant-baseline="alphabetic" stroke-opacity="1" stroke-linejoin="bevel" stroke-miterlimit="10" stroke-width="3">0</text><text fill="rgb(37,37,37)" stroke="none" font-family="geogebra-sans-serif, sans-serif" font-size="12px" font-style="normal" font-weight="normal" text-decoration="normal" x="77" y="557" text-anchor="start" dominant-baseline="alphabetic" fill-opacity="1">0</text><path fill="none" stroke="rgb(46,125,50)" paint-order="fill stroke markers" d=" M 0 541.9941377430532 L 0.35658118530871263 541.9941377430532 L 1.0697435559261663 541.9941377430532 L 1.7829059265436058 541.9941377430532 L 2.4960682971610595 541.9941377430532 L 3.209230667778499 541.9941377430532 L 3.9223930383959384 541.9941377430532 L 4.635555409013392 541.9941377430532 L 5.348717779630832 541.9941377430532 L 6.061880150248285 541.9941377430532 L 6.775042520865725 541.9941377430532 L 7.4882048914831785 541.9941377430532 L 8.201367262100618 541.9941377430532 L 8.914529632718057 541.9941377430532 L 9.627692003335497 541.9941377430532 L 10.34085437395295 541.9941377430532 L 11.05401674457039 541.9941377430532 L 11.767179115187844 541.9941377430532 L 12.480341485805283 541.9941377430532 L 13.193503856422737 541.9941377430532 L 13.906666227040176 541.9941377430532 L 14.619828597657616 541.9941377430532 L 15.33299096827507 541.9941377430532 L 16.04615333889251 541.9941377430532 L 16.75931570950995 541.9941377430532 L 17.472478080127402 541.9941377430532 L 18.18564045074484 541.9941377430532 L 18.898802821362295 541.9941377430532 L 19.611965191979735 541.9941377430532 L 20.32512756259719 541.9941377430532 L 21.038289933214628 541.9941377430532 L 21.75145230383208 541.9941377430532 L 22.464614674449507 541.9941377430532 L 23.177777045066975 541.9941377430532 L 23.8909394156844 541.9941377430532 L 24.604101786301868 541.9941377430532 L 25.317264156919293 541.9941377430532 L 26.030426527536747 541.9941377430532 L 26.743588898154186 541.9941377430532 L 27.456751268771633 541.9941377430532 L 28.16991363938908 541.9941377430532 L 28.88307601000652 541.9941377430532 L 29.596238380623973 541.9941377430532 L 30.309400751241412 541.9941377430532 L 31.022563121858866 541.9941377430532 L 31.735725492476305 541.9941377430532 L 32.44888786309375 541.9941377430532 L 33.1620502337112 541.9941377430532 L 33.87521260432864 541.9941377430532 L 34.588374974946085 541.9941377430532 L 35.30153734556353 541.9941377430532 L 36.01469971618098 541.9941377430532 L 36.72786208679842 541.9941377430532 L 37.44102445741587 541.9941377430532 L 38.15418682803331 541.9941377430532 L 38.867349198650764 541.9941377430532 L 39.580511569268204 541.9941377430532 L 40.29367393988564 541.9941377430532 L 41.00683631050309 541.9941377430532 L 41.719998681120536 541.9941377430532 L 42.43316105173798 541.9941377430532 L 43.14632342235543 541.9941377430532 L 43.859485792972876 541.9941377430532 L 44.57264816359032 541.9941377430532 L 45.28581053420777 541.9941377430532 M 45.64239171951649 541.9941377430532 L 45.99897290482521 541.9941377430532 L 46.71213527544265 541.9941377430532 L 47.425297646060095 541.9941377430532 L 48.13846001667754 541.9941377430532 L 48.85162238729499 541.9941377430532 L 49.564784757912435 541.9941377430532 L 50.27794712852988 541.9941377430532 L 50.99110949914733 541.9941377430532 L 51.704271869764774 541.9941377430532 L 52.417434240382214 541.9941377430532 L 53.13059661099966 541.9941377430532 L 53.84375898161711 541.9941377430532 L 54.55692135223455 541.9941377430532 L 55.27008372285199 541.9941377430532 L 55.98324609346944 541.9941377430532 L 56.696408464086886 541.9941377430532 L 57.40957083470433 541.9941377430532 L 58.12273320532178 541.9941377430532 L 58.835895575939226 541.9941377430532 L 59.54905794655667 541.9941377430532 L 60.26222031717411 541.9941377430532 L 60.97538268779156 541.9941377430532 L 61.688545058409005 541.9941377430532 L 62.401707429026445 541.9941377430532 L 63.11486979964389 541.9941377430532 L 63.82803217026134 541.9941377430532 L 64.54119454087879 541.9941377430532 L 65.25435691149623 541.9941377430532 L 65.96751928211367 541.9941377430532 L 66.68068165273112 541.9941377430532 L 67.39384402334856 541.9941377430532 L 68.107006393966 541.9941377430532 M 68.46358757927473 541.9941377430532 L 68.82016876458346 541.9941377430532 L 69.5333311352009 541.9941377430532 L 70.24649350581835 541.9941377430532 L 70.95965587643579 541.9941377430532 L 71.67281824705324 541.9941377430532 L 72.38598061767068 541.9941377430532 L 73.09914298828812 541.9941377430532 L 73.81230535890558 541.9941377430532 L 74.52546772952302 541.9941377430532 L 75.23863010014045 541.9941377430532 L 75.95179247075791 541.9941377430532 L 76.66495484137535 541.9941377430532 L 77.3781172119928 541.9941377430532 L 78.09127958261024 541.9941377430532 L 78.80444195322768 541.9941377430532 L 79.51760432384513 541.9941377430532 M 79.87418550915386 541.9941377430532 L 80.23076669446257 541.9941377430532 L 80.94392906508003 541.9941377430532 L 81.65709143569747 541.9941377430532 L 82.3702538063149 541.9941377430532 L 83.08341617693236 541.9941377430532 L 83.7965785475498 541.9941377430532 L 84.50974091816725 541.9941377430532 L 85.22290328878469 541.9941377430532 M 85.57948447409342 541.9941377430532 L 85.93606565940215 541.9941377430532 L 86.64922803001959 541.9941377430532 L 87.36239040063703 541.9941377430532 L 88.07555277125448 541.9941377430532 M 88.43213395656319 541.9941377430532 L 88.78871514187192 541.9941377430532 L 89.50187751248937 541.9941377430532 M 89.85845869779808 541.9941377430532 L 90.21503988310681 541.9941377430532 M 90.57162106841554 541.9941377430532 L 90.92820225372425 541.9941377430532 M 90.92820225372425 541.9941377430532 L 91.28478165861205 541.9941377430532 M 91.28478521945391 541.9941374463164 L 93.37121421970205 541.6463992796083 M 93.37121421970205 541.6463992796083 L 95.45764500037113 541.2986608161635 M 95.45764500037113 541.2986608161635 L 97.5440757810402 540.9509223527186 L 99.63050656170928 540.6031838892739 M 99.63050656170928 540.6031838892739 L 101.71693734237836 540.255445425829 L 103.80336812304742 539.9077069623842 L 105.8897989037165 539.5599684989393 L 107.97622968438557 539.2122300354945 M 107.97622968438557 539.2122300354945 L 110.06266046505465 538.8644915720496 L 112.14909124572372 538.5167531086048 L 114.2355220263928 538.1690146451599 L 116.32195280706188 537.8212761817151 L 118.40838358773095 537.4735377182702 L 120.49481436840003 537.1257992548254 L 122.5812451490691 536.7780607913805 L 124.66767592973818 536.4303223279358 M 124.66767592973818 536.4303223279358 L 126.75410671040726 536.0825838644909 L 128.84053749107633 535.734845401046 L 130.9269682717454 535.3871069376012 L 133.01339905241448 535.0393684741563 L 135.09982983308356 534.6916300107115 L 137.18626061375264 534.3438915472666 L 139.2726913944217 533.9961530838218 L 141.35912217509076 533.6484146203769 L 143.44555295575987 533.3006761569321 L 145.5319837364289 532.9529376934872 L 147.61841451709802 532.6051992300424 L 149.70484529776706 532.2574607665975 L 151.79127607843614 531.9097223031528 L 153.87770685910522 531.5619838397079 L 155.96413763977432 531.2142453762631 L 158.05056842044337 530.8665069128182 M 158.05056842044337 530.8665069128182 L 160.13699920111245 530.5187684493734 L 162.22342998178152 530.1710299859285 L 164.3098607624506 529.8232915224836 L 166.39629154311967 529.4755530590388 L 168.48272232378875 529.1278145955939 L 170.56915310445783 528.7800761321491 L 172.6555838851269 528.4323376687042 L 174.74201466579598 528.0845992052595 L 176.82844544646505 527.7368607418146 L 178.91487622713413 527.3891222783698 L 181.0013070078032 527.0413838149249 L 183.08773778847228 526.6936453514801 L 185.17416856914133 526.3459068880352 L 187.26059934981043 525.9981684245904 L 189.34703013047948 525.6504299611455 L 191.4334609111486 525.3026914977007 L 193.51989169181763 524.9549530342558 L 195.60632247248674 524.607214570811 L 197.6927532531558 524.2594761073661 L 199.7791840338249 523.9117376439212 L 201.86561481449394 523.5639991804765 L 203.95204559516304 523.2162607170316 L 206.0384763758321 522.8685222535868 L 208.1249071565012 522.5207837901419 L 210.21133793717024 522.1730453266971 L 212.29776871783932 521.8253068632522 L 214.3841994985084 521.4775683998074 L 216.47063027917747 521.1298299363625 L 218.55706105984655 520.7820914729177 L 220.64349184051565 520.4343530094728 L 222.7299226211847 520.086614546028 L 224.8163534018538 519.7388760825831 M 224.8163534018538 519.7388760825831 L 226.90278418252285 519.3911376191384 L 228.9892149631919 519.0433991556935 L 231.075645743861 518.6956606922487 L 233.16207652453005 518.3479222288038 L 235.24850730519915 518.0001837653589 L 237.3349380858682 517.6524453019141 L 239.4213688665373 517.3047068384692 L 241.50779964720635 516.9569683750244 L 243.59423042787546 516.6092299115795 L 245.6806612085445 516.2614914481347 L 247.7670919892136 515.9137529846898 L 249.85352276988266 515.566014521245 L 251.93995355055176 515.2182760578002 L 254.0263843312208 514.8705375943554 L 256.1128151118899 514.5227991309105 L 258.19924589255896 514.1750606674657 L 260.28567667322807 513.8273222040208 L 262.3721074538971 513.479583740576 L 264.4585382345662 513.1318452771311 L 266.54496901523527 512.7841068136863 L 268.6313997959044 512.4363683502414 L 270.7178305765734 512.0886298867965 L 272.8042613572425 511.74089142335174 L 274.89069213791157 511.3931529599069 L 276.9771229185807 511.04541449646206 L 279.0635536992497 510.6976760330172 L 281.14998447991877 510.3499375695724 L 283.2364152605879 510.00219910612753 L 285.3228460412569 509.6544606426827 L 287.409276821926 509.3067221792378 L 289.4957076025951 508.95898371579295 L 291.5821383832642 508.6112452523481 L 293.6685691639332 508.26350678890327 L 295.75499994460233 507.91576832545843 L 297.8414307252714 507.5680298620136 L 299.9278615059405 507.22029139856875 L 302.01429228660953 506.8725529351239 L 304.10072306727864 506.52481447167906 L 306.1871538479477 506.1770760082342 L 308.2735846286168 505.8293375447894 L 310.36001540928584 505.48159908134454 L 312.44644618995494 505.1338606178997 L 314.532876970624 504.78612215445486 L 316.6193077512931 504.43838369101 L 318.70573853196214 504.0906452275652 L 320.79216931263124 503.74290676412033 L 322.8786000933003 503.39516830067544 L 324.9650308739694 503.04742983723065 L 327.05146165463844 502.69969137378575 L 329.13789243530755 502.3519529103409 L 331.2243232159766 502.00421444689607 L 333.31075399664564 501.65647598345123 L 335.39718477731475 501.3087375200064 L 337.4836155579838 500.96099905656155 L 339.5700463386529 500.6132605931167 L 341.65647711932195 500.26552212967187 L 343.74290789999105 499.917783666227 L 345.8293386806601 499.5700452027822 L 347.9157694613292 499.22230673933734 L 350.0022002419983 498.8745682758925 L 352.08863102266736 498.52682981244766 L 354.17506180333646 498.1790913490028 L 356.2614925840055 497.831352885558 L 358.3479233646746 497.4836144221131 M 358.3479233646746 497.4836144221131 L 360.43435414534366 497.1358759586683 L 362.5207849260127 496.7881374952234 L 364.6072157066818 496.44039903177855 L 366.69364648735086 496.0926605683337 L 368.78007726801997 495.7449221048889 L 370.866508048689 495.39718364144403 L 372.9529388293581 495.0494451779992 L 375.03936961002717 494.70170671455435 L 377.12580039069627 494.3539682511095 L 379.2122311713653 494.00622978766467 L 381.2986619520344 493.6584913242198 L 383.38509273270347 493.310752860775 L 385.4715235133726 492.96301439733014 L 387.5579542940416 492.6152759338853 L 389.6443850747107 492.26753747044046 L 391.7308158553798 491.9197990069956 L 393.8172466360489 491.5720605435507 L 395.9036774167179 491.22432208010594 L 397.99010819738703 490.87658361666104 L 400.0765389780561 490.5288451532162 L 402.1629697587252 490.18110668977135 L 404.24940053939423 489.8333682263265 L 406.33583132006333 489.4856297628817 L 408.4222621007324 489.13789129943683 L 410.5086928814015 488.790152835992 L 412.59512366207053 488.44241437254715 L 414.6815544427396 488.0946759091023 L 416.7679852234087 487.74693744565747 L 418.85441600407773 487.3991989822126 L 420.94084678474684 487.0514605187678 L 423.0272775654159 486.70372205532294 L 425.113708346085 486.3559835918781 L 427.20013912675404 486.00824512843326 L 429.28656990742314 485.66050666498836 L 431.3730006880922 485.3127682015436 L 433.4594314687613 484.9650297380987 L 435.54586224943034 484.61729127465384 L 437.63229303009945 484.269552811209 L 439.7187238107685 483.92181434776415 L 441.8051545914376 483.5740758843193 L 443.89158537210665 483.2263374208745 L 445.97801615277575 482.87859895742963 L 448.0644469334448 482.5308604939848 L 450.1508777141139 482.18312203053995 L 452.23730849478295 481.8353835670951 L 454.32373927545206 481.48764510365027 L 456.4101700561211 481.1399066402054 L 458.4966008367902 480.7921681767606 L 460.58303161745926 480.44442971331574 L 462.66946239812836 480.0966912498709 L 464.7558931787974 479.748952786426 L 466.84232395946646 479.4012143229812 L 468.92875474013556 479.0534758595363 L 471.0151855208046 478.7057373960915 L 473.1016163014737 478.35799893264664 L 475.18804708214276 478.0102604692018 L 477.27447786281186 477.66252200575695 L 479.3609086434809 477.3147835423121 L 481.44733942415 476.9670450788673 L 483.53377020481906 476.61930661542243 L 485.62020098548817 476.2715681519776 L 487.7066317661572 475.92382968853275 L 489.7930625468263 475.5760912250879 L 491.87949332749537 475.22835276164307 M 491.87949332749537 475.22835276164307 L 493.9659241081645 474.8806142981982 L 496.0523548888335 474.5328758347534 L 498.1387856695026 474.18513737130854 L 500.2252164501717 473.83739890786364 L 502.3116472308408 473.48966044441886 L 504.3980780115098 473.14192198097396 L 506.48450879217893 472.7941835175291 L 508.570939572848 472.4464450540843 L 510.6573703535171 472.09870659063944 L 512.7438011341861 471.7509681271946 L 514.8302319148552 471.40322966374976 L 516.9166626955242 471.0554912003049 L 519.0030934761933 470.7077527368601 L 521.0895242568624 470.36001427341523 L 523.1759550375315 470.0122758099704 L 525.2623858182005 469.66453734652555 L 527.3488165988696 469.3167988830807 L 529.4352473795387 468.96906041963587 L 531.5216781602078 468.621321956191 L 533.6081089408768 468.2735834927462 L 535.6945397215459 467.9258450293013 L 537.780970502215 467.5781065658565 L 539.8674012828841 467.2303681024116 L 541.9538320635531 466.88262963896676 L 544.0402628442222 466.5348911755219 L 546.1266936248913 466.1871527120771 L 548.2131244055604 465.83941424863224 L 550.2995551862294 465.4916757851874 L 552.3859859668985 465.14393732174256 L 554.4724167475676 464.7961988582977 L 556.5588475282367 464.4484603948529 L 558.6452783089057 464.10072193140803 M 558.6452783089057 464.10072193140803 L 560.7317090895748 463.7529834679632 L 562.818139870244 463.40524500451835 L 564.904570650913 463.0575065410735 L 566.991001431582 462.70976807762867 L 569.0774322122511 462.3620296141838 L 571.1638629929203 462.0142911507389 L 573.2502937735893 461.66655268729414 L 575.3367245542584 461.31881422384924 L 577.4231553349274 460.9710757604044 L 579.5095861155964 460.62333729695956 L 581.5960168962656 460.2755988335147 L 583.6824476769347 459.9278603700699 L 585.7688784576037 459.58012190662504 L 587.8553092382728 459.2323834431802 L 589.9417400189419 458.88464497973536 L 592.028170799611 458.5369065162905 M 592.028170799611 458.5369065162905 L 594.11460158028 458.1891680528457 L 596.2010323609491 457.84142958940083 L 598.2874631416182 457.493691125956 L 600.3738939222873 457.14595266251115 L 602.4603247029563 456.7982141990663 L 604.5467554836254 456.45047573562147 L 606.6331862642944 456.10273727217657 L 608.7196170449636 455.7549988087318 M 608.7196170449636 455.7549988087318 L 610.8060478256326 455.4072603452869 L 612.8924786063017 455.05952188184204 L 614.9789093869707 454.7117834183972 L 617.0653401676399 454.36404495495236 M 617.0653401676399 454.36404495495236 L 619.1517709483089 454.0163064915075 L 621.238201728978 453.6685680280627 M 621.238201728978 453.6685680280627 L 623.324632509647 453.32082956461784 M 623.324632509647 453.32082956461784 L 625.4110615098951 452.97309139790985 M 625.4110650707371 452.9730919913835 L 626.1065402172059 453.32082956461784 M 626.1065402172059 453.32082956461784 L 626.8020171440955 453.6685680280627 M 626.8020171440955 453.6685680280627 L 627.4974940709852 454.0163064915075 L 628.1929709978749 454.36404495495236 M 628.1929709978749 454.36404495495236 L 628.8884479247646 454.7117834183972 L 629.5839248516543 455.05952188184204 L 630.279401778544 455.4072603452869 L 630.9748787054336 455.7549988087318 M 630.9748787054336 455.7549988087318 L 631.6703556323233 456.10273727217657 L 632.365832559213 456.45047573562147 L 633.0613094861027 456.7982141990663 L 633.7567864129924 457.14595266251115 L 634.4522633398822 457.493691125956 L 635.1477402667718 457.84142958940083 L 635.8432171936615 458.1891680528457 L 636.5386941205512 458.5369065162905 M 636.5386941205512 458.5369065162905 L 637.2341710474409 458.88464497973536 L 637.9296479743306 459.2323834431802 L 638.6251249012203 459.58012190662504 L 639.32060182811 459.9278603700699 L 640.0160787549996 460.2755988335147 L 640.7115556818893 460.62333729695956 L 641.407032608779 460.9710757604044 L 642.1025095356687 461.31881422384924 L 642.7979864625585 461.66655268729414 L 643.4934633894482 462.0142911507389 L 644.1889403163378 462.3620296141838 L 644.8844172432275 462.70976807762867 L 645.5798941701172 463.0575065410735 L 646.2753710970069 463.40524500451835 L 646.9708480238966 463.7529834679632 L 647.6663249507862 464.10072193140803 M 647.6663249507862 464.10072193140803 L 648.3618018776759 464.4484603948529 L 649.0572788045656 464.7961988582977 L 649.7527557314553 465.14393732174256 L 650.448232658345 465.4916757851874 L 651.1437095852347 465.83941424863224 L 651.8391865121245 466.1871527120771 L 652.5346634390141 466.5348911755219 L 653.2301403659038 466.88262963896676 L 653.9256172927935 467.2303681024116 L 654.6210942196832 467.5781065658565 L 655.3165711465729 467.9258450293013 L 656.0120480734626 468.2735834927462 L 656.7075250003522 468.621321956191 L 657.4030019272419 468.96906041963587 L 658.0984788541316 469.3167988830807 L 658.7939557810213 469.66453734652555 L 659.489432707911 470.0122758099704 L 660.1849096348008 470.36001427341523 L 660.8803865616904 470.7077527368601 L 661.5758634885801 471.0554912003049 L 662.2713404154698 471.40322966374976 L 662.9668173423595 471.7509681271946 L 663.6622942692492 472.09870659063944 L 664.3577711961389 472.4464450540843 L 665.0532481230285 472.7941835175291 L 665.7487250499182 473.14192198097396 L 666.4442019768079 473.48966044441886 L 667.1396789036976 473.83739890786364 L 667.8351558305873 474.18513737130854 L 668.530632757477 474.5328758347534 L 669.2261096843667 474.8806142981982 L 669.9215866112564 475.22835276164307 M 669.9215866112564 475.22835276164307 L 670.6170635381461 475.5760912250879 L 671.3125404650358 475.92382968853275 L 672.0080173919255 476.2715681519776 L 672.7034943188152 476.61930661542243 L 673.3989712457048 476.9670450788673 L 674.0944481725945 477.3147835423121 L 674.7899250994842 477.66252200575695 L 675.4854020263739 478.0102604692018 L 676.1808789532636 478.35799893264664 L 676.8763558801533 478.7057373960915 L 677.571832807043 479.0534758595363 L 678.2673097339327 479.4012143229812 L 678.9627866608224 479.748952786426 L 679.6582635877121 480.0966912498709 L 680.3537405146018 480.44442971331574 L 681.0492174414915 480.7921681767606 L 681.7446943683811 481.1399066402054 L 682.4401712952708 481.48764510365027 L 683.1356482221605 481.8353835670951 L 683.8311251490502 482.18312203053995 L 684.5266020759399 482.5308604939848 L 685.2220790028296 482.87859895742963 L 685.9175559297192 483.2263374208745 L 686.613032856609 483.5740758843193 L 687.3085097834987 483.92181434776415 L 688.0039867103884 484.269552811209 L 688.6994636372781 484.61729127465384 L 689.3949405641678 484.9650297380987 L 690.0904174910575 485.3127682015436 L 690.7858944179471 485.66050666498836 L 691.4813713448368 486.00824512843326 L 692.1768482717265 486.3559835918781 L 692.8723251986162 486.70372205532294 L 693.5678021255059 487.0514605187678 L 694.2632790523955 487.3991989822126 L 694.9587559792853 487.74693744565747 L 695.654232906175 488.0946759091023 L 696.3497098330647 488.44241437254715 L 697.0451867599544 488.790152835992 L 697.7406636868441 489.13789129943683 L 698.4361406137338 489.4856297628817 L 699.1316175406234 489.8333682263265 L 699.8270944675131 490.18110668977135 L 700.5225713944028 490.5288451532162 L 701.2180483212925 490.87658361666104 L 701.9135252481822 491.22432208010594 L 702.6090021750719 491.5720605435507 L 703.3044791019615 491.9197990069956 L 703.9999560288513 492.26753747044046 L 704.695432955741 492.6152759338853 L 705.3909098826307 492.96301439733014 L 706.0863868095204 493.310752860775 L 706.7818637364101 493.6584913242198 L 707.4773406632997 494.00622978766467 L 708.1728175901894 494.3539682511095 L 708.8682945170791 494.70170671455435 L 709.5637714439688 495.0494451779992 L 710.2592483708585 495.39718364144403 L 710.9547252977482 495.7449221048889 L 711.6502022246378 496.0926605683337 L 712.3456791515276 496.44039903177855 L 713.0411560784173 496.7881374952234 L 713.736633005307 497.1358759586683 L 714.4321099321967 497.4836144221131 M 714.4321099321967 497.4836144221131 L 715.1275868590864 497.831352885558 L 715.823063785976 498.1790913490028 L 716.5185407128657 498.52682981244766 L 717.2140176397554 498.8745682758925 L 717.9094945666451 499.22230673933734 L 718.6049714935348 499.5700452027822 L 719.3004484204245 499.917783666227 L 719.9959253473141 500.26552212967187 L 720.6914022742038 500.6132605931167 L 721.3868792010936 500.96099905656155 L 722.0823561279833 501.3087375200064 L 722.777833054873 501.65647598345123 L 723.4733099817627 502.00421444689607 L 724.1687869086524 502.3519529103409 L 724.864263835542 502.69969137378575 L 725.5597407624317 503.04742983723065 L 726.2552176893214 503.39516830067544 L 726.9506946162111 503.74290676412033 L 727.6461715431008 504.0906452275652 L 728.3416484699904 504.43838369101 L 729.0371253968801 504.78612215445486 L 729.7326023237699 505.1338606178997 L 730.4280792506596 505.48159908134454 L 731.1235561775493 505.8293375447894 L 731.819033104439 506.1770760082342 L 732.5145100313287 506.52481447167906 L 733.2099869582183 506.8725529351239 L 733.905463885108 507.22029139856875 L 734.6009408119977 507.5680298620136 L 735.2964177388874 507.91576832545843 L 735.9918946657771 508.26350678890327 L 736.6873715926668 508.6112452523481 L 737.3828485195564 508.95898371579295 L 738.0783254464461 509.3067221792378 L 738.7738023733359 509.6544606426827 L 739.4692793002256 510.00219910612753 L 740.1647562271153 510.3499375695724 L 740.860233154005 510.6976760330172 L 741.5557100808946 511.04541449646206 L 742.2511870077843 511.3931529599069 L 742.946663934674 511.74089142335174 L 743.6421408615637 512.0886298867965 L 744.3376177884534 512.4363683502414 L 745.033094715343 512.7841068136863 L 745.7285716422327 513.1318452771311 L 746.4240485691224 513.479583740576 L 747.1195254960122 513.8273222040208 L 747.8150024229019 514.1750606674657 L 748.5104793497916 514.5227991309105 L 749.2059562766813 514.8705375943554 L 749.901433203571 515.2182760578002 L 750.5969101304606 515.566014521245 L 751.2923870573503 515.9137529846898 L 751.98786398424 516.2614914481347 L 752.6833409111297 516.6092299115795 L 753.3788178380194 516.9569683750244 L 754.074294764909 517.3047068384692 L 754.7697716917987 517.6524453019141 L 755.4652486186884 518.0001837653589 L 756.1607255455782 518.3479222288038 L 756.8562024724679 518.6956606922487 L 757.5516793993576 519.0433991556935 L 758.2471563262473 519.3911376191384 L 758.9426332531369 519.7388760825831 M 758.9426332531369 519.7388760825831 L 759.6381101800266 520.086614546028 L 760.3335871069163 520.4343530094728 L 761.029064033806 520.7820914729177 L 761.7245409606957 521.1298299363625 L 762.4200178875853 521.4775683998074 L 763.115494814475 521.8253068632522 L 763.8109717413647 522.1730453266971 L 764.5064486682545 522.5207837901419 L 765.2019255951442 522.8685222535868 L 765.8974025220339 523.2162607170316 L 766.5928794489236 523.5639991804765 L 767.2883563758132 523.9117376439212 L 767.9838333027029 524.2594761073661 L 768.6793102295926 524.607214570811 L 769.3747871564823 524.9549530342558 L 770.070264083372 525.3026914977007 L 770.7657410102616 525.6504299611455 L 771.4612179371513 525.9981684245904 L 772.156694864041 526.3459068880352 L 772.8521717909307 526.6936453514801 L 773.5476487178205 527.0413838149249 L 774.2431256447102 527.3891222783698 L 774.9386025715999 527.7368607418146 L 775.6340794984895 528.0845992052595 L 776.3295564253792 528.4323376687042 L 777.0250333522689 528.7800761321491 L 777.7205102791586 529.1278145955939 L 778.4159872060483 529.4755530590388 L 779.111464132938 529.8232915224836 L 779.8069410598276 530.1710299859285 L 780.5024179867173 530.5187684493734 L 781.197894913607 530.8665069128182 M 781.197894913607 530.8665069128182 L 781.8933718404968 531.2142453762631 L 782.5888487673865 531.5619838397079 L 783.2843256942762 531.9097223031528 L 783.9798026211658 532.2574607665975 L 784.6752795480555 532.6051992300424 L 785.3707564749452 532.9529376934872 L 786.0662334018349 533.3006761569321 L 786.7617103287246 533.6484146203769 L 787.4571872556143 533.9961530838218 L 788.1526641825039 534.3438915472666 L 788.8481411093936 534.6916300107115 L 789.5436180362833 535.0393684741563 L 790.239094963173 535.3871069376012 L 790.9345718900628 535.734845401046 L 791.6300488169525 536.0825838644909 L 792.3255257438421 536.4303223279358 M 792.3255257438421 536.4303223279358 L 793.0210026707318 536.7780607913805 L 793.7164795976215 537.1257992548254 L 794.4119565245112 537.4735377182702 L 795.1074334514009 537.8212761817151 L 795.8029103782906 538.1690146451599 L 796.4983873051802 538.5167531086048 L 797.1938642320699 538.8644915720496 L 797.8893411589596 539.2122300354945 M 797.8893411589596 539.2122300354945 L 798.5848180858493 539.5599684989393 L 799.2802950127391 539.9077069623842 L 799.9757719396288 540.255445425829 L 800.6712488665185 540.6031838892739 M 800.6712488665185 540.6031838892739 L 801.3667257934081 540.9509223527186 L 802.0622027202978 541.2986608161635 M 802.0622027202978 541.2986608161635 L 802.7576796471875 541.6463992796083 M 802.7576796471875 541.6463992796083 L 803.4531547936562 541.9941368528428 M 803.4531583544982 541.9941377430532 L 804.2443551812096 541.9941377430532 M 804.2443551812096 541.9941377430532 L 805.0355537883422 541.9941377430532 M 805.0355537883422 541.9941377430532 L 805.8267523954747 541.9941377430532 L 806.6179510026072 541.9941377430532 M 806.6179510026072 541.9941377430532 L 807.4091496097396 541.9941377430532 L 808.2003482168723 541.9941377430532 L 808.9915468240048 541.9941377430532 L 809.7827454311372 541.9941377430532 M 809.7827454311372 541.9941377430532 L 810.5739440382697 541.9941377430532 L 811.3651426454022 541.9941377430532 L 812.1563412525348 541.9941377430532 L 812.9475398596672 541.9941377430532 L 813.7387384667996 541.9941377430532 L 814.5299370739323 541.9941377430532 L 815.3211356810649 541.9941377430532 L 816.1123342881973 541.9941377430532 M 816.1123342881973 541.9941377430532 L 816.9035328953298 541.9941377430532 L 817.6947315024623 541.9941377430532 L 818.4859301095948 541.9941377430532 L 819.2771287167274 541.9941377430532 L 820.0683273238599 541.9941377430532 L 820.8595259309923 541.9941377430532 L 821.6507245381249 541.9941377430532 L 822.4419231452573 541.9941377430532 L 823.2331217523899 541.9941377430532 L 824.0243203595224 541.9941377430532 L 824.815518966655 541.9941377430532 L 825.6067175737875 541.9941377430532 L 826.39791618092 541.9941377430532 L 827.1891147880525 541.9941377430532 L 827.9803133951849 541.9941377430532 L 828.7715120023175 541.9941377430532 M 828.7715120023175 541.9941377430532 L 829.5627106094502 541.9941377430532 L 830.3539092165826 541.9941377430532 L 831.1451078237152 541.9941377430532 L 831.9363064308476 541.9941377430532 L 832.7275050379801 541.9941377430532 L 833.5187036451126 541.9941377430532 L 834.3099022522451 541.9941377430532 L 835.1011008593775 541.9941377430532 L 835.8922994665102 541.9941377430532 L 836.6834980736426 541.9941377430532 L 837.4746966807752 541.9941377430532 L 838.2658952879076 541.9941377430532 L 839.0570938950402 541.9941377430532 L 839.8482925021726 541.9941377430532 L 840.6394911093053 541.9941377430532 L 841.4306897164378 541.9941377430532 L 842.2218883235702 541.9941377430532 L 843.0130869307028 541.9941377430532 L 843.8042855378352 541.9941377430532 L 844.5954841449678 541.9941377430532 L 845.3866827521002 541.9941377430532 L 846.1778813592329 541.9941377430532 L 846.9690799663653 541.9941377430532 L 847.7602785734979 541.9941377430532 L 848.5514771806303 541.9941377430532 L 849.3426757877629 541.9941377430532 L 850.1338743948953 541.9941377430532 L 850.9250730020278 541.9941377430532 L 851.7162716091603 541.9941377430532 L 852.5074702162929 541.9941377430532 L 853.2986688234253 541.9941377430532 L 854.0898674305579 541.9941377430532 M 854.0898674305579 541.9941377430532 L 854.8810660376905 541.9941377430532 L 855.6722646448229 541.9941377430532 L 856.4634632519555 541.9941377430532 L 857.254661859088 541.9941377430532 L 858.0458604662205 541.9941377430532 L 858.837059073353 541.9941377430532 L 859.6282576804855 541.9941377430532 L 860.4194562876179 541.9941377430532 L 861.2106548947505 541.9941377430532 L 862.0018535018829 541.9941377430532 L 862.7930521090155 541.9941377430532 L 863.584250716148 541.9941377430532 L 864.3754493232806 541.9941377430532 L 865.166647930413 541.9941377430532 L 865.9578465375456 541.9941377430532 L 866.749045144678 541.9941377430532 L 867.5402437518106 541.9941377430532 L 868.3314423589431 541.9941377430532 L 869.1226409660756 541.9941377430532 L 869.9138395732082 541.9941377430532 L 870.7050381803406 541.9941377430532 L 871.4962367874732 541.9941377430532 L 872.2874353946056 541.9941377430532 L 873.0786340017382 541.9941377430532 L 873.8698326088706 541.9941377430532 L 874.6610312160033 541.9941377430532 L 875.4522298231357 541.9941377430532 L 876.2434284302682 541.9941377430532 L 877.0346270374007 541.9941377430532 L 877.8258256445332 541.9941377430532 L 878.6170242516656 541.9941377430532 L 879.4082228587982 541.9941377430532 L 880.1994214659309 541.9941377430532 L 880.9906200730633 541.9941377430532 L 881.7818186801959 541.9941377430532 L 882.5730172873283 541.9941377430532 L 883.3642158944608 541.9941377430532 L 884.1554145015933 541.9941377430532 L 884.9466131087258 541.9941377430532 L 885.7378117158582 541.9941377430532 L 886.5290103229909 541.9941377430532 L 887.3202089301233 541.9941377430532 L 888.1114075372559 541.9941377430532 L 888.9026061443883 541.9941377430532 L 889.6938047515209 541.9941377430532 L 890.4850033586533 541.9941377430532 L 891.276201965786 541.9941377430532 L 892.0674005729185 541.9941377430532 L 892.858599180051 541.9941377430532 L 893.6497977871835 541.9941377430532 L 894.4409963943159 541.9941377430532 L 895.2321950014485 541.9941377430532 L 896.0233936085809 541.9941377430532 L 896.8145922157136 541.9941377430532 L 897.605790822846 541.9941377430532 L 898.3969894299786 541.9941377430532 L 899.188188037111 541.9941377430532 L 899.9793866442436 541.9941377430532 L 900.770585251376 541.9941377430532 L 901.5617838585085 541.9941377430532 L 902.352982465641 541.9941377430532 L 903.1441810727736 541.9941377430532 L 903.9353796799062 541.9941377430532 L 904.7265782870386 541.9941377430532 M 904.7265782870386 541.9941377430532 L 905.5177768941712 541.9941377430532 L 906.3089755013036 541.9941377430532 L 907.1001741084362 541.9941377430532 L 907.8913727155687 541.9941377430532 L 908.6825713227012 541.9941377430532 L 909.4737699298337 541.9941377430532 L 910.2649685369662 541.9941377430532 L 911.0561671440987 541.9941377430532 L 911.8473657512312 541.9941377430532 L 912.6385643583636 541.9941377430532 L 913.4297629654963 541.9941377430532 L 914.2209615726287 541.9941377430532 L 915.0121601797613 541.9941377430532 L 915.8033587868937 541.9941377430532 L 916.5945573940263 541.9941377430532 L 917.3857560011587 541.9941377430532 L 918.1769546082913 541.9941377430532 L 918.9681532154239 541.9941377430532 L 919.7593518225563 541.9941377430532 L 920.5505504296889 541.9941377430532 L 921.3417490368213 541.9941377430532 L 922.1329476439539 541.9941377430532 L 922.9241462510863 541.9941377430532 L 923.7153448582189 541.9941377430532 L 924.5065434653513 541.9941377430532 L 925.297742072484 541.9941377430532 L 926.0889406796164 541.9941377430532 L 926.8801392867489 541.9941377430532 L 927.6713378938814 541.9941377430532 L 928.4625365010139 541.9941377430532 L 929.2537351081464 541.9941377430532 L 930.044933715279 541.9941377430532 L 930.8361323224116 541.9941377430532 L 931.627330929544 541.9941377430532 L 932.4185295366766 541.9941377430532 L 933.209728143809 541.9941377430532 L 934.0009267509415 541.9941377430532 L 934.792125358074 541.9941377430532 L 935.5833239652065 541.9941377430532 L 936.3745225723391 541.9941377430532 L 937.1657211794716 541.9941377430532 L 937.956919786604 541.9941377430532 L 938.7481183937366 541.9941377430532 L 939.539317000869 541.9941377430532 L 940.3305156080016 541.9941377430532 L 941.121714215134 541.9941377430532 L 941.9129128222667 541.9941377430532 L 942.7041114293992 541.9941377430532 L 943.4953100365317 541.9941377430532 L 944.2865086436642 541.9941377430532 L 945.0777072507966 541.9941377430532 L 945.8689058579292 541.9941377430532 L 946.6601044650616 541.9941377430532 L 947.4513030721943 541.9941377430532 L 948.2425016793267 541.9941377430532 L 949.0337002864593 541.9941377430532 L 949.8248988935917 541.9941377430532 L 950.6160975007243 541.9941377430532 L 951.4072961078567 541.9941377430532 L 952.1984947149892 541.9941377430532 L 952.9896933221218 541.9941377430532 L 953.7808919292543 541.9941377430532 L 954.5720905363869 541.9941377430532 L 955.3632891435193 541.9941377430532 L 956.1544877506517 541.9941377430532 L 956.9456863577843 541.9941377430532 L 957.736884964917 541.9941377430532 L 958.5280835720494 541.9941377430532 L 959.319282179182 541.9941377430532 L 960.1104807863144 541.9941377430532 L 960.9016793934469 541.9941377430532 L 961.6928780005794 541.9941377430532 L 962.4840766077119 541.9941377430532 L 963.2752752148443 541.9941377430532 L 964.066473821977 541.9941377430532 L 964.8576724291094 541.9941377430532 L 965.648871036242 541.9941377430532 L 966.4400696433744 541.9941377430532 L 967.231268250507 541.9941377430532 L 968.0224668576394 541.9941377430532 L 968.813665464772 541.9941377430532 L 969.6048640719046 541.9941377430532 L 970.396062679037 541.9941377430532 L 971.1872612861696 541.9941377430532 L 971.978459893302 541.9941377430532 L 972.7696585004346 541.9941377430532 L 973.560857107567 541.9941377430532 L 974.3520557146996 541.9941377430532 L 975.143254321832 541.9941377430532 L 975.9344529289647 541.9941377430532 L 976.7256515360971 541.9941377430532 L 977.5168501432297 541.9941377430532 L 978.3080487503621 541.9941377430532 L 979.0992473574946 541.9941377430532 L 979.8904459646271 541.9941377430532 L 980.6816445717596 541.9941377430532 L 981.4728431788923 541.9941377430532 L 982.2640417860247 541.9941377430532 L 983.0552403931573 541.9941377430532 L 983.8464390002897 541.9941377430532 L 984.6376376074223 541.9941377430532 L 985.4288362145547 541.9941377430532 L 986.2200348216872 541.9941377430532 L 987.0112334288198 541.9941377430532 L 987.8024320359523 541.9941377430532 L 988.5936306430847 541.9941377430532 L 989.3848292502173 541.9941377430532 L 990.1760278573497 541.9941377430532 L 990.9672264644823 541.9941377430532 L 991.7584250716147 541.9941377430532 L 992.5496236787474 541.9941377430532 L 993.3408222858799 541.9941377430532 L 994.1320208930124 541.9941377430532 L 994.9232195001448 541.9941377430532 L 995.7144181072774 541.9941377430532 L 996.5056167144099 541.9941377430532 L 997.2968153215423 541.9941377430532 L 998.088013928675 541.9941377430532 L 998.8792125358074 541.9941377430532 L 999.67041114294 541.9941377430532 L 1000.4616097500724 541.9941377430532 L 1001.252808357205 541.9941377430532 L 1002.0440069643374 541.9941377430532 L 1002.83520557147 541.9941377430532 L 1003.6264041786025 541.9941377430532 L 1004.417602785735 541.9941377430532 L 1005.2088013928676 541.9941377430532 L 1006 541.9941377430532" stroke-opacity="0.8" stroke-linecap="round" stroke-linejoin="round" stroke-miterlimit="10" stroke-width="2.5"/><path fill="none" stroke="rgb(21,101,192)" paint-order="fill stroke markers" d=" M 0 541.9941377430532 L 0.35658118530871263 541.9941377430532 L 1.0697435559261663 541.9941377430532 L 1.7829059265436058 541.9941377430532 L 2.4960682971610595 541.9941377430532 L 3.209230667778499 541.9941377430532 L 3.9223930383959384 541.9941377430532 L 4.635555409013392 541.9941377430532 L 5.348717779630832 541.9941377430532 L 6.061880150248285 541.9941377430532 L 6.775042520865725 541.9941377430532 L 7.4882048914831785 541.9941377430532 L 8.201367262100618 541.9941377430532 L 8.914529632718057 541.9941377430532 L 9.627692003335497 541.9941377430532 L 10.34085437395295 541.9941377430532 L 11.05401674457039 541.9941377430532 L 11.767179115187844 541.9941377430532 L 12.480341485805283 541.9941377430532 L 13.193503856422737 541.9941377430532 L 13.906666227040176 541.9941377430532 L 14.619828597657616 541.9941377430532 L 15.33299096827507 541.9941377430532 L 16.04615333889251 541.9941377430532 L 16.75931570950995 541.9941377430532 L 17.472478080127402 541.9941377430532 L 18.18564045074484 541.9941377430532 L 18.898802821362295 541.9941377430532 L 19.611965191979735 541.9941377430532 L 20.32512756259719 541.9941377430532 L 21.038289933214628 541.9941377430532 L 21.75145230383208 541.9941377430532 L 22.464614674449507 541.9941377430532 L 23.177777045066975 541.9941377430532 L 23.8909394156844 541.9941377430532 L 24.604101786301868 541.9941377430532 L 25.317264156919293 541.9941377430532 L 26.030426527536747 541.9941377430532 L 26.743588898154186 541.9941377430532 L 27.456751268771633 541.9941377430532 L 28.16991363938908 541.9941377430532 L 28.88307601000652 541.9941377430532 L 29.596238380623973 541.9941377430532 L 30.309400751241412 541.9941377430532 L 31.022563121858866 541.9941377430532 L 31.735725492476305 541.9941377430532 L 32.44888786309375 541.9941377430532 L 33.1620502337112 541.9941377430532 L 33.87521260432864 541.9941377430532 L 34.588374974946085 541.9941377430532 L 35.30153734556353 541.9941377430532 L 36.01469971618098 541.9941377430532 L 36.72786208679842 541.9941377430532 L 37.44102445741587 541.9941377430532 L 38.15418682803331 541.9941377430532 L 38.867349198650764 541.9941377430532 L 39.580511569268204 541.9941377430532 L 40.29367393988564 541.9941377430532 L 41.00683631050309 541.9941377430532 L 41.719998681120536 541.9941377430532 L 42.43316105173798 541.9941377430532 L 43.14632342235543 541.9941377430532 L 43.859485792972876 541.9941377430532 L 44.57264816359032 541.9941377430532 L 45.28581053420777 541.9941377430532 M 45.64239171951649 541.9941377430532 L 45.99897290482521 541.9941377430532 L 46.71213527544265 541.9941377430532 L 47.425297646060095 541.9941377430532 L 48.13846001667754 541.9941377430532 L 48.85162238729499 541.9941377430532 L 49.564784757912435 541.9941377430532 L 50.27794712852988 541.9941377430532 L 50.99110949914733 541.9941377430532 L 51.704271869764774 541.9941377430532 L 52.417434240382214 541.9941377430532 L 53.13059661099966 541.9941377430532 L 53.84375898161711 541.9941377430532 L 54.55692135223455 541.9941377430532 L 55.27008372285199 541.9941377430532 L 55.98324609346944 541.9941377430532 L 56.696408464086886 541.9941377430532 L 57.40957083470433 541.9941377430532 L 58.12273320532178 541.9941377430532 L 58.835895575939226 541.9941377430532 L 59.54905794655667 541.9941377430532 L 60.26222031717411 541.9941377430532 L 60.97538268779156 541.9941377430532 L 61.688545058409005 541.9941377430532 L 62.401707429026445 541.9941377430532 L 63.11486979964389 541.9941377430532 L 63.82803217026134 541.9941377430532 L 64.54119454087879 541.9941377430532 L 65.25435691149623 541.9941377430532 L 65.96751928211367 541.9941377430532 L 66.68068165273112 541.9941377430532 L 67.39384402334856 541.9941377430532 L 68.107006393966 541.9941377430532 M 68.46358757927473 541.9941377430532 L 68.82016876458346 541.9941377430532 L 69.5333311352009 541.9941377430532 L 70.24649350581835 541.9941377430532 L 70.95965587643579 541.9941377430532 L 71.67281824705324 541.9941377430532 L 72.38598061767068 541.9941377430532 L 73.09914298828812 541.9941377430532 L 73.81230535890558 541.9941377430532 L 74.52546772952302 541.9941377430532 L 75.23863010014045 541.9941377430532 L 75.95179247075791 541.9941377430532 L 76.66495484137535 541.9941377430532 L 77.3781172119928 541.9941377430532 L 78.09127958261024 541.9941377430532 L 78.80444195322768 541.9941377430532 L 79.51760432384513 541.9941377430532 M 79.87418550915386 541.9941377430532 L 80.23076669446257 541.9941377430532 L 80.94392906508003 541.9941377430532 L 81.65709143569747 541.9941377430532 L 82.3702538063149 541.9941377430532 L 83.08341617693236 541.9941377430532 L 83.7965785475498 541.9941377430532 L 84.50974091816725 541.9941377430532 L 85.22290328878469 541.9941377430532 M 85.57948447409342 541.9941377430532 L 85.93606565940215 541.9941377430532 L 86.64922803001959 541.9941377430532 L 87.36239040063703 541.9941377430532 L 88.07555277125448 541.9941377430532 M 88.43213395656319 541.9941377430532 L 88.78871514187192 541.9941377430532 L 89.50187751248937 541.9941377430532 M 89.85845869779808 541.9941377430532 L 90.21503988310681 541.9941377430532 M 90.57162106841554 541.9941377430532 L 90.92820225372425 541.9941377430532 M 90.92820225372425 541.9941377430532 L 91.28478165861205 541.9941377430532 M 91.28478521945391 541.9941377430532 L 93.37121421970205 541.9921002129939 M 93.37121421970205 541.9921002129939 L 95.45764500037113 541.9859876228162 M 95.45764500037113 541.9859876228162 L 97.5440757810402 541.97579997252 L 99.63050656170928 541.9615372621053 M 99.63050656170928 541.9615372621053 L 101.71693734237836 541.943199491572 L 103.80336812304742 541.9207866609203 L 105.8897989037165 541.8942987701502 L 107.97622968438557 541.8637358192614 M 107.97622968438557 541.8637358192614 L 110.06266046505465 541.8290978082542 L 112.14909124572372 541.7903847371285 L 114.2355220263928 541.7475966058843 L 116.32195280706188 541.7007334145217 L 118.40838358773095 541.6497951630405 L 120.49481436840003 541.5947818514408 L 122.5812451490691 541.5356934797226 L 124.66767592973818 541.4725300478859 M 124.66767592973818 541.4725300478859 L 126.75410671040726 541.4052915559308 L 128.84053749107633 541.3339780038572 L 130.9269682717454 541.258589391665 L 133.01339905241448 541.1791257193544 L 135.09982983308356 541.0955869869252 L 137.18626061375264 541.0079731943777 L 139.2726913944217 540.9162843417115 L 141.35912217509076 540.8205204289269 L 143.44555295575987 540.7206814560237 L 145.5319837364289 540.6167674230021 L 147.61841451709802 540.508778329862 L 149.70484529776706 540.3967141766035 L 151.79127607843614 540.2805749632264 L 153.87770685910522 540.1603606897307 L 155.96413763977432 540.0360713561167 L 158.05056842044337 539.9077069623842 M 158.05056842044337 539.9077069623842 L 160.13699920111245 539.775267508533 L 162.22342998178152 539.6387529945636 L 164.3098607624506 539.4981634204755 L 166.39629154311967 539.3534987862689 L 168.48272232378875 539.2047590919439 L 170.56915310445783 539.0519443375003 L 172.6555838851269 538.8950545229383 L 174.74201466579598 538.7340896482579 L 176.82844544646505 538.5690497134588 L 178.91487622713413 538.3999347185413 L 181.0013070078032 538.2267446635053 L 183.08773778847228 538.0494795483507 L 185.17416856914133 537.8681393730777 L 187.26059934981043 537.6827241376863 L 189.34703013047948 537.4932338421763 L 191.4334609111486 537.2996684865478 L 193.51989169181763 537.1020280708009 L 195.60632247248674 536.9003125949354 L 197.6927532531558 536.6945220589514 L 199.7791840338249 536.484656462849 L 201.86561481449394 536.270715806628 L 203.95204559516304 536.0527000902886 L 206.0384763758321 535.8306093138307 L 208.1249071565012 535.6044434772542 L 210.21133793717024 535.3742025805593 L 212.29776871783932 535.1398866237458 L 214.3841994985084 534.9014956068139 L 216.47063027917747 534.6590295297635 L 218.55706105984655 534.4124883925946 L 220.64349184051565 534.1618721953072 L 222.7299226211847 533.9071809379013 L 224.8163534018538 533.6484146203769 M 224.8163534018538 533.6484146203769 L 226.90278418252285 533.385573242734 L 228.9892149631919 533.1186568049727 L 231.075645743861 532.8476653070928 L 233.16207652453005 532.5725987490945 L 235.24850730519915 532.2934571309776 L 237.3349380858682 532.0102404527422 L 239.4213688665373 531.7229487143884 L 241.50779964720635 531.431581915916 L 243.59423042787546 531.1361400573252 L 245.6806612085445 530.8366231386159 L 247.7670919892136 530.533031159788 L 249.85352276988266 530.2253641208417 L 251.93995355055176 529.913622021777 L 254.0263843312208 529.5978048625936 L 256.1128151118899 529.2779126432919 L 258.19924589255896 528.9539453638715 L 260.28567667322807 528.6259030243327 L 262.3721074538971 528.2937856246755 L 264.4585382345662 527.9575931648997 L 266.54496901523527 527.6173256450054 L 268.6313997959044 527.2729830649927 L 270.7178305765734 526.9245654248614 L 272.8042613572425 526.5720727246116 L 274.89069213791157 526.2155049642433 L 276.9771229185807 525.8548621437567 L 279.0635536992497 525.4901442631514 L 281.14998447991877 525.1213513224277 L 283.2364152605879 524.7484833215855 L 285.3228460412569 524.3715402606248 L 287.409276821926 523.9905221395455 L 289.4957076025951 523.6054289583478 L 291.5821383832642 523.2162607170316 L 293.6685691639332 522.823017415597 L 295.75499994460233 522.4256990540437 L 297.8414307252714 522.024305632372 L 299.9278615059405 521.6188371505818 L 302.01429228660953 521.2092936086732 L 304.10072306727864 520.795675006646 L 306.1871538479477 520.3779813445003 L 308.2735846286168 519.9562126222362 L 310.36001540928584 519.5303688398535 L 312.44644618995494 519.1004499973524 L 314.532876970624 518.6664560947328 L 316.6193077512931 518.2283871319946 L 318.70573853196214 517.786243109138 L 320.79216931263124 517.3400240261628 L 322.8786000933003 516.8897298830692 L 324.9650308739694 516.4353606798571 L 327.05146165463844 515.9769164165265 L 329.13789243530755 515.5143970930774 L 331.2243232159766 515.0478027095098 L 333.31075399664564 514.5771332658237 L 335.39718477731475 514.1023887620191 L 337.4836155579838 513.6235691980961 L 339.5700463386529 513.1406745740545 L 341.65647711932195 512.6537048898945 L 343.74290789999105 512.1626601456159 L 345.8293386806601 511.66754034121885 L 347.9157694613292 511.1683454767033 L 350.0022002419983 510.66507555206925 L 352.08863102266736 510.1577305673167 L 354.17506180333646 509.6463105224457 L 356.2614925840055 509.1308154174562 L 358.3479233646746 508.6112452523481 M 358.3479233646746 508.6112452523481 L 360.43435414534366 508.0876000271216 L 362.5207849260127 507.5598797417766 L 364.6072157066818 507.0280843963131 L 366.69364648735086 506.4922139907311 L 368.78007726801997 505.9522685250306 L 370.866508048689 505.40824799921165 L 372.9529388293581 504.86015241327414 L 375.03936961002717 504.30798176721817 L 377.12580039069627 503.75173606104374 L 379.2122311713653 503.19141529475075 L 381.2986619520344 502.6270194683393 L 383.38509273270347 502.05854858180936 L 385.4715235133726 501.4860026351609 L 387.5579542940416 500.90938162839393 L 389.6443850747107 500.3286855615085 L 391.7308158553798 499.7439144345046 L 393.8172466360489 499.1550682473822 L 395.9036774167179 498.56214700014124 L 397.99010819738703 497.96515069278183 L 400.0765389780561 497.3640793253039 L 402.1629697587252 496.75893289770755 L 404.24940053939423 496.1497114099926 L 406.33583132006333 495.5364148621593 L 408.4222621007324 494.9190432542074 L 410.5086928814015 494.297596586137 L 412.59512366207053 493.67207485794813 L 414.6815544427396 493.04247806964077 L 416.7679852234087 492.4088062212149 L 418.85441600407773 491.77105931267056 L 420.94084678474684 491.1292373440077 L 423.0272775654159 490.48334031522637 L 425.113708346085 489.8333682263265 L 427.20013912675404 489.1793210773082 L 429.28656990742314 488.5211988681714 L 431.3730006880922 487.85900159891605 L 433.4594314687613 487.1927292695422 L 435.54586224943034 486.5223818800499 L 437.63229303009945 485.8479594304391 L 439.7187238107685 485.1694619207098 L 441.8051545914376 484.48688935086204 L 443.89158537210665 483.80024172089577 L 445.97801615277575 483.109519030811 L 448.0644469334448 482.4147212806077 L 450.1508777141139 481.71584847028595 L 452.23730849478295 481.0129005998457 L 454.32373927545206 480.30587766928693 L 456.4101700561211 479.59477967860965 L 458.4966008367902 478.8796066278139 L 460.58303161745926 478.1603585168997 L 462.66946239812836 477.43703534586695 L 464.7558931787974 476.70963711471575 L 466.84232395946646 475.978163823446 L 468.92875474013556 475.24261547205776 L 471.0151855208046 474.50299206055104 L 473.1016163014737 473.75929358892586 L 475.18804708214276 473.01152005718217 L 477.27447786281186 472.25967146531997 L 479.3609086434809 471.50374781333926 L 481.44733942415 470.7437491012401 L 483.53377020481906 469.9796753290224 L 485.62020098548817 469.21152649668625 L 487.7066317661572 468.4393026042316 L 489.7930625468263 467.6630036516584 L 491.87949332749537 466.88262963896676 M 491.87949332749537 466.88262963896676 L 493.9659241081645 466.09818056615666 L 496.0523548888335 465.309656433228 L 498.1387856695026 464.51705724018086 L 500.2252164501717 463.7203829870152 L 502.3116472308408 462.9196336737311 L 504.3980780115098 462.1148093003285 L 506.48450879217893 461.3059098668074 L 508.570939572848 460.49293537316777 L 510.6573703535171 459.67588581940964 L 512.7438011341861 458.85476120553307 L 514.8302319148552 458.029561531538 L 516.9166626955242 457.2002867974244 L 519.0030934761933 456.36693700319233 L 521.0895242568624 455.5295121488417 L 523.1759550375315 454.68801223437265 L 525.2623858182005 453.84243725978513 L 527.3488165988696 452.99278722507904 L 529.4352473795387 452.1390621302545 L 531.5216781602078 451.28126197531145 L 533.6081089408768 450.41938676024995 L 535.6945397215459 449.5534364850699 L 537.780970502215 448.68341114977136 L 539.8674012828841 447.8093107543543 L 541.9538320635531 446.93113529881884 L 544.0402628442222 446.0488847831648 L 546.1266936248913 445.1625592073923 L 548.2131244055604 444.27215857150134 L 550.2995551862294 443.3776828754918 L 552.3859859668985 442.47913211936384 L 554.4724167475676 441.57650630311736 L 556.5588475282367 440.66980542675236 L 558.6452783089057 439.7590294902689 M 558.6452783089057 439.7590294902689 L 560.7317090895748 438.84417849366696 L 562.818139870244 437.9252524369465 L 564.904570650913 437.0022513201075 L 566.991001431582 436.0751751431501 L 569.0774322122511 435.14402390607415 L 571.1638629929203 434.2087976088797 L 573.2502937735893 433.2694962515668 L 575.3367245542584 432.32611983413534 L 577.4231553349274 431.3786683565854 L 579.5095861155964 430.427141818917 L 581.5960168962656 429.4715402211301 L 583.6824476769347 428.5118635632247 L 585.7688784576037 427.5481118452008 L 587.8553092382728 426.5802850670584 L 589.9417400189419 425.60838322879755 L 592.028170799611 424.6324063304182 M 592.028170799611 424.6324063304182 L 594.11460158028 423.6523543719203 L 596.2010323609491 422.6682273533039 L 598.2874631416182 421.68002527456906 L 600.3738939222873 420.6877481357157 L 602.4603247029563 419.69139593674385 L 604.5467554836254 418.69096867765353 L 606.6331862642944 417.6864663584447 L 608.7196170449636 416.67788897911737 M 608.7196170449636 416.67788897911737 L 610.8060478256326 415.6652365396715 L 612.8924786063017 414.64850904010723 L 614.9789093869707 413.62770648042437 L 617.0653401676399 412.60282886062305 M 617.0653401676399 412.60282886062305 L 619.1517709483089 411.5738761807032 L 621.238201728978 410.54084844066494 M 621.238201728978 410.54084844066494 L 623.324632509647 409.5037456405082 M 623.324632509647 409.5037456405082 L 625.4110615098951 408.4625686704434 M 625.4110650707371 408.46256689002246 L 626.1065402172059 408.11550849347447 M 626.1065402172059 408.11550849347447 L 626.8020171440955 407.76980756008885 M 626.8020171440955 407.76980756008885 L 627.4974940709852 407.4254649800761 L 628.1929709978749 407.08248075343613 M 628.1929709978749 407.08248075343613 L 628.8884479247646 406.7408548801691 L 629.5839248516543 406.4005873602748 L 630.279401778544 406.0616781937533 L 630.9748787054336 405.7241273806047 M 630.9748787054336 405.7241273806047 L 631.6703556323233 405.38793492082897 L 632.365832559213 405.053100814426 L 633.0613094861027 404.7196250613959 L 633.7567864129924 404.3875076617386 L 634.4522633398822 404.0567486154541 L 635.1477402667718 403.72734792254255 L 635.8432171936615 403.39930558300375 L 636.5386941205512 403.0726215968378 M 636.5386941205512 403.0726215968378 L 637.2341710474409 402.74729596404467 L 637.9296479743306 402.4233286846244 L 638.6251249012203 402.10071975857693 L 639.32060182811 401.77946918590226 L 640.0160787549996 401.4595769666005 L 640.7115556818893 401.1410431006715 L 641.407032608779 400.8238675881154 L 642.1025095356687 400.50805042893205 L 642.7979864625585 400.1935916231216 L 643.4934633894482 399.88049117068397 L 644.1889403163378 399.56874907161915 L 644.8844172432275 399.2583653259271 L 645.5798941701172 398.94933993360803 L 646.2753710970069 398.6416728946617 L 646.9708480238966 398.3353642090882 L 647.6663249507862 398.03041387688756 M 647.6663249507862 398.03041387688756 L 648.3618018776759 397.7268218980597 L 649.0572788045656 397.42458827260475 L 649.7527557314553 397.12371300052257 L 650.448232658345 396.8241960818133 L 651.1437095852347 396.5260375164768 L 651.8391865121245 396.22923730451305 L 652.5346634390141 395.9337954459222 L 653.2301403659038 395.6397119407043 L 653.9256172927935 395.3469867888591 L 654.6210942196832 395.05561999038673 L 655.3165711465729 394.76561154528724 L 656.0120480734626 394.47696145356053 L 656.7075250003522 394.1896697152067 L 657.4030019272419 393.9037363302257 L 658.0984788541316 393.61916129861754 L 658.7939557810213 393.3359446203822 L 659.489432707911 393.0540862955196 L 660.1849096348008 392.7735863240299 L 660.8803865616904 392.4944447059131 L 661.5758634885801 392.2166614411691 L 662.2713404154698 391.94023652979786 L 662.9668173423595 391.6651699717995 L 663.6622942692492 391.39146176717395 L 664.3577711961389 391.1191119159213 L 665.0532481230285 390.8481204180414 L 665.7487250499182 390.5784872735344 L 666.4442019768079 390.3102124824002 L 667.1396789036976 390.04329604463874 L 667.8351558305873 389.7777379602502 L 668.530632757477 389.51353822923454 L 669.2261096843667 389.25069685159167 L 669.9215866112564 388.9892138273216 M 669.9215866112564 388.9892138273216 L 670.6170635381461 388.7290891564244 L 671.3125404650358 388.47032283889996 L 672.0080173919255 388.21291487474844 L 672.7034943188152 387.9568652639697 L 673.3989712457048 387.70217400656384 L 674.0944481725945 387.44884110253076 L 674.7899250994842 387.1968665518705 L 675.4854020263739 386.9462503545831 L 676.1808789532636 386.69699251066857 L 676.8763558801533 386.44909302012684 L 677.571832807043 386.2025518829579 L 678.2673097339327 385.95736909916184 L 678.9627866608224 385.7135446687386 L 679.6582635877121 385.4710785916882 L 680.3537405146018 385.2299708680106 L 681.0492174414915 384.9902214977059 L 681.7446943683811 384.75183048077395 L 682.4401712952708 384.5147978172149 L 683.1356482221605 384.27912350702866 L 683.8311251490502 384.0448075502152 L 684.5266020759399 383.8118499467746 L 685.2220790028296 383.58025069670686 L 685.9175559297192 383.35000980001195 L 686.613032856609 383.1211272566899 L 687.3085097834987 382.8936030667406 L 688.0039867103884 382.6674372301642 L 688.6994636372781 382.4426297469605 L 689.3949405641678 382.2191806171298 L 690.0904174910575 381.99708984067183 L 690.7858944179471 381.7763574175867 L 691.4813713448368 381.55698334787445 L 692.1768482717265 381.338967631535 L 692.8723251986162 381.1223102685684 L 693.5678021255059 380.90701125897465 L 694.2632790523955 380.69307060275366 L 694.9587559792853 380.4804882999056 L 695.654232906175 380.26926435043026 L 696.3497098330647 380.05939875432784 L 697.0451867599544 379.8508915115982 L 697.7406636868441 379.6437426222414 L 698.4361406137338 379.43795208625744 L 699.1316175406234 379.2335199036463 L 699.8270944675131 379.030446074408 L 700.5225713944028 378.8287305985425 L 701.2180483212925 378.6283734760499 L 701.9135252481822 378.4293747069301 L 702.6090021750719 378.2317342911831 L 703.3044791019615 378.035452228809 L 703.9999560288513 377.84052851980766 L 704.695432955741 377.64696316417917 L 705.3909098826307 377.45475616192357 L 706.0863868095204 377.26390751304075 L 706.7818637364101 377.07441721753077 L 707.4773406632997 376.88628527539356 L 708.1728175901894 376.6995116866293 L 708.8682945170791 376.5140964512378 L 709.5637714439688 376.33003956921914 L 710.2592483708585 376.14734104057334 L 710.9547252977482 375.9660008653003 L 711.6502022246378 375.7860190434002 L 712.3456791515276 375.60739557487284 L 713.0411560784173 375.4301304597183 L 713.736633005307 375.25422369793665 L 714.4321099321967 375.0796752895278 M 714.4321099321967 375.0796752895278 L 715.1275868590864 374.9064852344918 L 715.823063785976 374.7346535328286 L 716.5185407128657 374.56418018453826 L 717.2140176397554 374.39506518962077 L 717.9094945666451 374.22730854807605 L 718.6049714935348 374.06091025990423 L 719.3004484204245 373.8958703251052 L 719.9959253473141 373.73218874367905 L 720.6914022742038 373.5698655156257 L 721.3868792010936 373.40890064094515 L 722.0823561279833 373.24929411963745 L 722.777833054873 373.0910459517026 L 723.4733099817627 372.9341561371406 L 724.1687869086524 372.7786246759514 L 724.864263835542 372.624451568135 L 725.5597407624317 372.4716368136915 L 726.2552176893214 372.32018041262074 L 726.9506946162111 372.1700823649229 L 727.6461715431008 372.02134267059785 L 728.3416484699904 371.8739613296457 L 729.0371253968801 371.7279383420663 L 729.7326023237699 371.5832737078597 L 730.4280792506596 371.439967427026 L 731.1235561775493 371.29801949956516 L 731.819033104439 371.15742992547706 L 732.5145100313287 371.01819870476186 L 733.2099869582183 370.8803258374195 L 733.905463885108 370.7438113234499 L 734.6009408119977 370.6086551628532 L 735.2964177388874 370.4748573556293 L 735.9918946657771 370.3424179017782 L 736.6873715926668 370.2113368013 L 737.3828485195564 370.0816140541946 L 738.0783254464461 369.953249660462 L 738.7738023733359 369.8262436201023 L 739.4692793002256 369.7005959331153 L 740.1647562271153 369.5763065995013 L 740.860233154005 369.45337561926004 L 741.5557100808946 369.33180299239166 L 742.2511870077843 369.21158871889605 L 742.946663934674 369.09273279877334 L 743.6421408615637 368.97523523202335 L 744.3376177884534 368.8590960186463 L 745.033094715343 368.74431515864205 L 745.7285716422327 368.63089265201063 L 746.4240485691224 368.518828498752 L 747.1195254960122 368.40812269886624 L 747.8150024229019 368.2987752523533 L 748.5104793497916 368.19078615921325 L 749.2059562766813 368.084155419446 L 749.901433203571 367.97888303305155 L 750.5969101304606 367.8749690000299 L 751.2923870573503 367.77241332038113 L 751.98786398424 367.6712159941052 L 752.6833409111297 367.5713770212021 L 753.3788178380194 367.47289640167185 L 754.074294764909 367.37577413551435 L 754.7697716917987 367.28001022272974 L 755.4652486186884 367.185604663318 L 756.1607255455782 367.09255745727904 L 756.8562024724679 367.00086860461295 L 757.5516793993576 366.91053810531963 L 758.2471563262473 366.82156595939915 L 758.9426332531369 366.7339521668515 M 758.9426332531369 366.7339521668515 L 759.6381101800266 366.6476967276767 L 760.3335871069163 366.5627996418748 L 761.029064033806 366.47926090944566 L 761.7245409606957 366.3970805303893 L 762.4200178875853 366.31625850470584 L 763.115494814475 366.2367948323953 L 763.8109717413647 366.15868951345743 L 764.5064486682545 366.0819425478925 L 765.2019255951442 366.0065539357003 L 765.8974025220339 365.93252367688103 L 766.5928794489236 365.8598517714345 L 767.2883563758132 365.7885382193609 L 767.9838333027029 365.71858302066005 L 768.6793102295926 365.64998617533206 L 769.3747871564823 365.5827476833769 L 770.070264083372 365.5168675447946 L 770.7657410102616 365.4523457595851 L 771.4612179371513 365.3891823277484 L 772.156694864041 365.3273772492846 L 772.8521717909307 365.26693052419364 L 773.5476487178205 365.20784215247545 L 774.2431256447102 365.1501121341301 L 774.9386025715999 365.0937404691576 L 775.6340794984895 365.0387271575579 L 776.3295564253792 364.98507219933106 L 777.0250333522689 364.9327755944771 L 777.7205102791586 364.8818373429959 L 778.4159872060483 364.83225744488755 L 779.111464132938 364.78403590015205 L 779.8069410598276 364.73717270878933 L 780.5024179867173 364.6916678707995 L 781.197894913607 364.64752138618246 M 781.197894913607 364.64752138618246 L 781.8933718404968 364.6047332549383 L 782.5888487673865 364.56330347706694 L 783.2843256942762 364.5232320525684 L 783.9798026211658 364.4845189814427 L 784.6752795480555 364.44716426368984 L 785.3707564749452 364.4111678993098 L 786.0662334018349 364.37652988830257 L 786.7617103287246 364.3432502306682 L 787.4571872556143 364.3113289264067 L 788.1526641825039 364.28076597551797 L 788.8481411093936 364.25156137800207 L 789.5436180362833 364.22371513385906 L 790.239094963173 364.19722724308883 L 790.9345718900628 364.1720977056915 L 791.6300488169525 364.14832652166695 L 792.3255257438421 364.12591369101517 M 792.3255257438421 364.12591369101517 L 793.0210026707318 364.1048592137363 L 793.7164795976215 364.08516308983025 L 794.4119565245112 364.06682531929704 L 795.1074334514009 364.04984590213667 L 795.8029103782906 364.0342248383491 L 796.4983873051802 364.0199621279344 L 797.1938642320699 364.00705777089246 L 797.8893411589596 363.9955117672234 M 797.8893411589596 363.9955117672234 L 798.5848180858493 363.98532411692713 L 799.2802950127391 363.9764948200037 L 799.9757719396288 363.9690238764532 L 800.6712488665185 363.96291128627547 M 800.6712488665185 363.96291128627547 L 801.3667257934081 363.9581570494705 L 802.0622027202978 363.95476116603845 M 802.0622027202978 363.95476116603845 L 802.7576796471875 363.95272363597917 M 802.7576796471875 363.95272363597917 L 803.4531547936562 363.9520444592928 M 803.4531583544982 363.9520444592928 L 804.2443551812096 363.9520444592928 M 804.2443551812096 363.9520444592928 L 805.0355537883422 363.9520444592928 M 805.0355537883422 363.9520444592928 L 805.8267523954747 363.9520444592928 L 806.6179510026072 363.9520444592928 M 806.6179510026072 363.9520444592928 L 807.4091496097396 363.9520444592928 L 808.2003482168723 363.9520444592928 L 808.9915468240048 363.9520444592928 L 809.7827454311372 363.9520444592928 M 809.7827454311372 363.9520444592928 L 810.5739440382697 363.9520444592928 L 811.3651426454022 363.9520444592928 L 812.1563412525348 363.9520444592928 L 812.9475398596672 363.9520444592928 L 813.7387384667996 363.9520444592928 L 814.5299370739323 363.9520444592928 L 815.3211356810649 363.9520444592928 L 816.1123342881973 363.9520444592928 M 816.1123342881973 363.9520444592928 L 816.9035328953298 363.9520444592928 L 817.6947315024623 363.9520444592928 L 818.4859301095948 363.9520444592928 L 819.2771287167274 363.9520444592928 L 820.0683273238599 363.9520444592928 L 820.8595259309923 363.9520444592928 L 821.6507245381249 363.9520444592928 L 822.4419231452573 363.9520444592928 L 823.2331217523899 363.9520444592928 L 824.0243203595224 363.9520444592928 L 824.815518966655 363.9520444592928 L 825.6067175737875 363.9520444592928 L 826.39791618092 363.9520444592928 L 827.1891147880525 363.9520444592928 L 827.9803133951849 363.9520444592928 L 828.7715120023175 363.9520444592928 M 828.7715120023175 363.9520444592928 L 829.5627106094502 363.9520444592928 L 830.3539092165826 363.9520444592928 L 831.1451078237152 363.9520444592928 L 831.9363064308476 363.9520444592928 L 832.7275050379801 363.9520444592928 L 833.5187036451126 363.9520444592928 L 834.3099022522451 363.9520444592928 L 835.1011008593775 363.9520444592928 L 835.8922994665102 363.9520444592928 L 836.6834980736426 363.9520444592928 L 837.4746966807752 363.9520444592928 L 838.2658952879076 363.9520444592928 L 839.0570938950402 363.9520444592928 L 839.8482925021726 363.9520444592928 L 840.6394911093053 363.9520444592928 L 841.4306897164378 363.9520444592928 L 842.2218883235702 363.9520444592928 L 843.0130869307028 363.9520444592928 L 843.8042855378352 363.9520444592928 L 844.5954841449678 363.9520444592928 L 845.3866827521002 363.9520444592928 L 846.1778813592329 363.9520444592928 L 846.9690799663653 363.9520444592928 L 847.7602785734979 363.9520444592928 L 848.5514771806303 363.9520444592928 L 849.3426757877629 363.9520444592928 L 850.1338743948953 363.9520444592928 L 850.9250730020278 363.9520444592928 L 851.7162716091603 363.9520444592928 L 852.5074702162929 363.9520444592928 L 853.2986688234253 363.9520444592928 L 854.0898674305579 363.9520444592928 M 854.0898674305579 363.9520444592928 L 854.8810660376905 363.9520444592928 L 855.6722646448229 363.9520444592928 L 856.4634632519555 363.9520444592928 L 857.254661859088 363.9520444592928 L 858.0458604662205 363.9520444592928 L 858.837059073353 363.9520444592928 L 859.6282576804855 363.9520444592928 L 860.4194562876179 363.9520444592928 L 861.2106548947505 363.9520444592928 L 862.0018535018829 363.9520444592928 L 862.7930521090155 363.9520444592928 L 863.584250716148 363.9520444592928 L 864.3754493232806 363.9520444592928 L 865.166647930413 363.9520444592928 L 865.9578465375456 363.9520444592928 L 866.749045144678 363.9520444592928 L 867.5402437518106 363.9520444592928 L 868.3314423589431 363.9520444592928 L 869.1226409660756 363.9520444592928 L 869.9138395732082 363.9520444592928 L 870.7050381803406 363.9520444592928 L 871.4962367874732 363.9520444592928 L 872.2874353946056 363.9520444592928 L 873.0786340017382 363.9520444592928 L 873.8698326088706 363.9520444592928 L 874.6610312160033 363.9520444592928 L 875.4522298231357 363.9520444592928 L 876.2434284302682 363.9520444592928 L 877.0346270374007 363.9520444592928 L 877.8258256445332 363.9520444592928 L 878.6170242516656 363.9520444592928 L 879.4082228587982 363.9520444592928 L 880.1994214659309 363.9520444592928 L 880.9906200730633 363.9520444592928 L 881.7818186801959 363.9520444592928 L 882.5730172873283 363.9520444592928 L 883.3642158944608 363.9520444592928 L 884.1554145015933 363.9520444592928 L 884.9466131087258 363.9520444592928 L 885.7378117158582 363.9520444592928 L 886.5290103229909 363.9520444592928 L 887.3202089301233 363.9520444592928 L 888.1114075372559 363.9520444592928 L 888.9026061443883 363.9520444592928 L 889.6938047515209 363.9520444592928 L 890.4850033586533 363.9520444592928 L 891.276201965786 363.9520444592928 L 892.0674005729185 363.9520444592928 L 892.858599180051 363.9520444592928 L 893.6497977871835 363.9520444592928 L 894.4409963943159 363.9520444592928 L 895.2321950014485 363.9520444592928 L 896.0233936085809 363.9520444592928 L 896.8145922157136 363.9520444592928 L 897.605790822846 363.9520444592928 L 898.3969894299786 363.9520444592928 L 899.188188037111 363.9520444592928 L 899.9793866442436 363.9520444592928 L 900.770585251376 363.9520444592928 L 901.5617838585085 363.9520444592928 L 902.352982465641 363.9520444592928 L 903.1441810727736 363.9520444592928 L 903.9353796799062 363.9520444592928 L 904.7265782870386 363.9520444592928 M 904.7265782870386 363.9520444592928 L 905.5177768941712 363.9520444592928 L 906.3089755013036 363.9520444592928 L 907.1001741084362 363.9520444592928 L 907.8913727155687 363.9520444592928 L 908.6825713227012 363.9520444592928 L 909.4737699298337 363.9520444592928 L 910.2649685369662 363.9520444592928 L 911.0561671440987 363.9520444592928 L 911.8473657512312 363.9520444592928 L 912.6385643583636 363.9520444592928 L 913.4297629654963 363.9520444592928 L 914.2209615726287 363.9520444592928 L 915.0121601797613 363.9520444592928 L 915.8033587868937 363.9520444592928 L 916.5945573940263 363.9520444592928 L 917.3857560011587 363.9520444592928 L 918.1769546082913 363.9520444592928 L 918.9681532154239 363.9520444592928 L 919.7593518225563 363.9520444592928 L 920.5505504296889 363.9520444592928 L 921.3417490368213 363.9520444592928 L 922.1329476439539 363.9520444592928 L 922.9241462510863 363.9520444592928 L 923.7153448582189 363.9520444592928 L 924.5065434653513 363.9520444592928 L 925.297742072484 363.9520444592928 L 926.0889406796164 363.9520444592928 L 926.8801392867489 363.9520444592928 L 927.6713378938814 363.9520444592928 L 928.4625365010139 363.9520444592928 L 929.2537351081464 363.9520444592928 L 930.044933715279 363.9520444592928 L 930.8361323224116 363.9520444592928 L 931.627330929544 363.9520444592928 L 932.4185295366766 363.9520444592928 L 933.209728143809 363.9520444592928 L 934.0009267509415 363.9520444592928 L 934.792125358074 363.9520444592928 L 935.5833239652065 363.9520444592928 L 936.3745225723391 363.9520444592928 L 937.1657211794716 363.9520444592928 L 937.956919786604 363.9520444592928 L 938.7481183937366 363.9520444592928 L 939.539317000869 363.9520444592928 L 940.3305156080016 363.9520444592928 L 941.121714215134 363.9520444592928 L 941.9129128222667 363.9520444592928 L 942.7041114293992 363.9520444592928 L 943.4953100365317 363.9520444592928 L 944.2865086436642 363.9520444592928 L 945.0777072507966 363.9520444592928 L 945.8689058579292 363.9520444592928 L 946.6601044650616 363.9520444592928 L 947.4513030721943 363.9520444592928 L 948.2425016793267 363.9520444592928 L 949.0337002864593 363.9520444592928 L 949.8248988935917 363.9520444592928 L 950.6160975007243 363.9520444592928 L 951.4072961078567 363.9520444592928 L 952.1984947149892 363.9520444592928 L 952.9896933221218 363.9520444592928 L 953.7808919292543 363.9520444592928 L 954.5720905363869 363.9520444592928 L 955.3632891435193 363.9520444592928 L 956.1544877506517 363.9520444592928 L 956.9456863577843 363.9520444592928 L 957.736884964917 363.9520444592928 L 958.5280835720494 363.9520444592928 L 959.319282179182 363.9520444592928 L 960.1104807863144 363.9520444592928 L 960.9016793934469 363.9520444592928 L 961.6928780005794 363.9520444592928 L 962.4840766077119 363.9520444592928 L 963.2752752148443 363.9520444592928 L 964.066473821977 363.9520444592928 L 964.8576724291094 363.9520444592928 L 965.648871036242 363.9520444592928 L 966.4400696433744 363.9520444592928 L 967.231268250507 363.9520444592928 L 968.0224668576394 363.9520444592928 L 968.813665464772 363.9520444592928 L 969.6048640719046 363.9520444592928 L 970.396062679037 363.9520444592928 L 971.1872612861696 363.9520444592928 L 971.978459893302 363.9520444592928 L 972.7696585004346 363.9520444592928 L 973.560857107567 363.9520444592928 L 974.3520557146996 363.9520444592928 L 975.143254321832 363.9520444592928 L 975.9344529289647 363.9520444592928 L 976.7256515360971 363.9520444592928 L 977.5168501432297 363.9520444592928 L 978.3080487503621 363.9520444592928 L 979.0992473574946 363.9520444592928 L 979.8904459646271 363.9520444592928 L 980.6816445717596 363.9520444592928 L 981.4728431788923 363.9520444592928 L 982.2640417860247 363.9520444592928 L 983.0552403931573 363.9520444592928 L 983.8464390002897 363.9520444592928 L 984.6376376074223 363.9520444592928 L 985.4288362145547 363.9520444592928 L 986.2200348216872 363.9520444592928 L 987.0112334288198 363.9520444592928 L 987.8024320359523 363.9520444592928 L 988.5936306430847 363.9520444592928 L 989.3848292502173 363.9520444592928 L 990.1760278573497 363.9520444592928 L 990.9672264644823 363.9520444592928 L 991.7584250716147 363.9520444592928 L 992.5496236787474 363.9520444592928 L 993.3408222858799 363.9520444592928 L 994.1320208930124 363.9520444592928 L 994.9232195001448 363.9520444592928 L 995.7144181072774 363.9520444592928 L 996.5056167144099 363.9520444592928 L 997.2968153215423 363.9520444592928 L 998.088013928675 363.9520444592928 L 998.8792125358074 363.9520444592928 L 999.67041114294 363.9520444592928 L 1000.4616097500724 363.9520444592928 L 1001.252808357205 363.9520444592928 L 1002.0440069643374 363.9520444592928 L 1002.83520557147 363.9520444592928 L 1003.6264041786025 363.9520444592928 L 1004.417602785735 363.9520444592928 L 1005.2088013928676 363.9520444592928 L 1006 363.9520444592928" stroke-opacity="0.8" stroke-linecap="round" stroke-linejoin="round" stroke-miterlimit="10" stroke-width="2.5"/><path fill="rgb(101,87,210)" stroke="none" paint-order="stroke fill markers" fill-rule="evenodd" d=" M 874.5 363 L 927.5 363 C 929.4329966244078 363 931 364.5670033755922 931 366.5 L 931 393.5 C 931 395.4329966244078 929.4329966244078 397 927.5 397 L 874.5 397 C 872.5670033755922 397 871 395.4329966244078 871 393.5 L 871 366.5 C 871 364.5670033755922 872.5670033755922 363 874.5 363 Z" fill-opacity="1"/><path fill="none" stroke="rgb(70,60,147)" paint-order="fill stroke markers" d=" M 874.5 363 L 927.5 363 C 929.4329966244078 363 931 364.5670033755922 931 366.5 L 931 393.5 C 931 395.4329966244078 929.4329966244078 397 927.5 397 L 874.5 397 C 872.5670033755922 397 871 395.4329966244078 871 393.5 L 871 366.5 C 871 364.5670033755922 872.5670033755922 363 874.5 363 Z" stroke-opacity="1" stroke-linecap="round" stroke-linejoin="round" stroke-miterlimit="10"/><text fill="rgb(255,255,255)" stroke="none" font-family="geogebra-sans-serif, sans-serif" font-size="24px" font-style="normal" font-weight="normal" text-decoration="normal" x="881" y="390" text-anchor="start" dominant-baseline="alphabetic" fill-opacity="1">F(x)</text><path fill="rgb(101,87,210)" stroke="none" paint-order="stroke fill markers" fill-rule="evenodd" d=" M 680.5 478 L 729.5 478 C 731.4329966244078 478 733 479.5670033755922 733 481.5 L 733 508.5 C 733 510.4329966244078 731.4329966244078 512 729.5 512 L 680.5 512 C 678.5670033755922 512 677 510.4329966244078 677 508.5 L 677 481.5 C 677 479.5670033755922 678.5670033755922 478 680.5 478 Z" fill-opacity="1"/><path fill="none" stroke="rgb(70,60,147)" paint-order="fill stroke markers" d=" M 680.5 478 L 729.5 478 C 731.4329966244078 478 733 479.5670033755922 733 481.5 L 733 508.5 C 733 510.4329966244078 731.4329966244078 512 729.5 512 L 680.5 512 C 678.5670033755922 512 677 510.4329966244078 677 508.5 L 677 481.5 C 677 479.5670033755922 678.5670033755922 478 680.5 478 Z" stroke-opacity="1" stroke-linecap="round" stroke-linejoin="round" stroke-miterlimit="10"/><text fill="rgb(255,255,255)" stroke="none" font-family="geogebra-sans-serif, sans-serif" font-size="24px" font-style="normal" font-weight="normal" text-decoration="normal" x="687" y="505" text-anchor="start" dominant-baseline="alphabetic" fill-opacity="1">f(x)</text></g></g></svg>