<svg version="1.1" xmlns="http://www.w3.org/2000/svg" xmlns:xlink="http://www.w3.org/1999/xlink" width="1462" height="851"><defs><clipPath id="xbSopuovyIXI"><path fill="none" stroke="none" d=" M 0 0 L 1462 0 L 1462 851 L 0 851 L 0 0 Z"/></clipPath></defs><g transform="scale(1,1)" clip-path="url(#xbSopuovyIXI)"><g><rect fill="rgb(255,255,255)" stroke="none" x="0" y="0" width="1462" height="851" fill-opacity="1"/><path fill="none" stroke="rgb(192,192,192)" paint-order="fill stroke markers" d=" M 192 0 L 192 820 M 327 0 L 327 820 M 462 0 L 462 820 M 597 0 L 597 820 M 731 0 L 731 820 M 866 0 L 866 820 M 1001 0 L 1001 820 M 1136 0 L 1136 820 M 1271 0 L 1271 820 M 1406 0 L 1406 820" stroke-opacity="1" stroke-linecap="round" stroke-linejoin="round" stroke-miterlimit="10" stroke-width="2"/><path fill="none" stroke="rgb(192,192,192)" paint-order="fill stroke markers" d=" M 84 0 L 84 820 M 111 0 L 111 820 M 138 0 L 138 820 M 165 0 L 165 820 M 219 0 L 219 820 M 246 0 L 246 820 M 273 0 L 273 820 M 300 0 L 300 820 M 354 0 L 354 820 M 381 0 L 381 820 M 408 0 L 408 820 M 435 0 L 435 820 M 489 0 L 489 820 M 516 0 L 516 820 M 543 0 L 543 820 M 570 0 L 570 820 M 624 0 L 624 820 M 651 0 L 651 820 M 677 0 L 677 820 M 704 0 L 704 820 M 758 0 L 758 820 M 785 0 L 785 820 M 812 0 L 812 820 M 839 0 L 839 820 M 893 0 L 893 820 M 920 0 L 920 820 M 947 0 L 947 820 M 974 0 L 974 820 M 1028 0 L 1028 820 M 1055 0 L 1055 820 M 1082 0 L 1082 820 M 1109 0 L 1109 820 M 1163 0 L 1163 820 M 1190 0 L 1190 820 M 1217 0 L 1217 820 M 1244 0 L 1244 820 M 1298 0 L 1298 820 M 1325 0 L 1325 820 M 1352 0 L 1352 820 M 1379 0 L 1379 820 M 1433 0 L 1433 820 M 1460 0 L 1460 820" stroke-opacity="0.23529411764705882" stroke-linecap="round" stroke-linejoin="round" stroke-miterlimit="10" stroke-width="2"/><path fill="none" stroke="rgb(192,192,192)" paint-order="fill stroke markers" d=" M 57 104 L 1462 104 M 57 104 L 1462 104 M 57 283 L 1462 283 M 57 462 L 1462 462 M 57 641 L 1462 641" stroke-opacity="1" stroke-linecap="round" stroke-linejoin="round" stroke-miterlimit="10" stroke-width="2"/><path fill="none" stroke="rgb(192,192,192)" paint-order="fill stroke markers" d=" M 57 33 L 1462 33 M 57 33 L 1462 33 M 57 69 L 1462 69 M 57 140 L 1462 140 M 57 176 L 1462 176 M 57 212 L 1462 212 M 57 247 L 1462 247 M 57 319 L 1462 319 M 57 355 L 1462 355 M 57 391 L 1462 391 M 57 426 L 1462 426 M 57 498 L 1462 498 M 57 534 L 1462 534 M 57 570 L 1462 570 M 57 605 L 1462 605 M 57 677 L 1462 677 M 57 713 L 1462 713 M 57 748 L 1462 748 M 57 784 L 1462 784" stroke-opacity="0.23529411764705882" stroke-linecap="round" stroke-linejoin="round" stroke-miterlimit="10" stroke-width="2"/><path fill="none" stroke="rgb(37,37,37)" paint-order="fill stroke markers" d=" M 57 3 L 57 820" stroke-opacity="1" stroke-miterlimit="10" stroke-width="2"/><path fill="rgb(37,37,37)" stroke="none" paint-order="stroke fill markers" fill-rule="evenodd" d=" M 56.6743363323471 2 L 47.6743363323471 38 L 65.67433633234711 38" fill-opacity="1"/><text fill="rgb(37,37,37)" stroke="none" font-family="geogebra-sans-serif, sans-serif" font-size="32px" font-style="normal" font-weight="normal" text-decoration="normal" x="1435" y="816" text-anchor="start" dominant-baseline="alphabetic" fill-opacity="1">k</text><path fill="none" stroke="rgb(37,37,37)" paint-order="fill stroke markers" d=" M 56 820 L 1459 820" stroke-opacity="1" stroke-miterlimit="10" stroke-width="2"/><path fill="rgb(37,37,37)" stroke="none" paint-order="stroke fill markers" fill-rule="evenodd" d=" M 1460 820.0493245122246 L 1424 811.0493245122246 L 1424 829.0493245122246" fill-opacity="1"/><text fill="rgb(37,37,37)" stroke="none" font-family="geogebra-sans-serif, sans-serif" font-size="24px" font-style="normal" font-weight="bold" text-decoration="normal" x="185" y="840" text-anchor="start" dominant-baseline="alphabetic" fill-opacity="1">1</text><text fill="none" stroke="rgb(255,255,255)" font-family="geogebra-sans-serif, sans-serif" font-size="24px" font-style="normal" font-weight="bold" text-decoration="normal" x="185" y="840" text-anchor="start" dominant-baseline="alphabetic" stroke-opacity="1" stroke-linejoin="bevel" stroke-miterlimit="10" stroke-width="3">1</text><text fill="rgb(37,37,37)" stroke="none" font-family="geogebra-sans-serif, sans-serif" font-size="24px" font-style="normal" font-weight="bold" text-decoration="normal" x="185" y="840" text-anchor="start" dominant-baseline="alphabetic" fill-opacity="1">1</text><text fill="rgb(37,37,37)" stroke="none" font-family="geogebra-sans-serif, sans-serif" font-size="24px" font-style="normal" font-weight="bold" text-decoration="normal" x="320" y="840" text-anchor="start" dominant-baseline="alphabetic" fill-opacity="1">2</text><text fill="none" stroke="rgb(255,255,255)" font-family="geogebra-sans-serif, sans-serif" font-size="24px" font-style="normal" font-weight="bold" text-decoration="normal" x="320" y="840" text-anchor="start" dominant-baseline="alphabetic" stroke-opacity="1" stroke-linejoin="bevel" stroke-miterlimit="10" stroke-width="3">2</text><text fill="rgb(37,37,37)" stroke="none" font-family="geogebra-sans-serif, sans-serif" font-size="24px" font-style="normal" font-weight="bold" text-decoration="normal" x="320" y="840" text-anchor="start" dominant-baseline="alphabetic" fill-opacity="1">2</text><text fill="rgb(37,37,37)" stroke="none" font-family="geogebra-sans-serif, sans-serif" font-size="24px" font-style="normal" font-weight="bold" text-decoration="normal" x="455" y="840" text-anchor="start" dominant-baseline="alphabetic" fill-opacity="1">3</text><text fill="none" stroke="rgb(255,255,255)" font-family="geogebra-sans-serif, sans-serif" font-size="24px" font-style="normal" font-weight="bold" text-decoration="normal" x="455" y="840" text-anchor="start" dominant-baseline="alphabetic" stroke-opacity="1" stroke-linejoin="bevel" stroke-miterlimit="10" stroke-width="3">3</text><text fill="rgb(37,37,37)" stroke="none" font-family="geogebra-sans-serif, sans-serif" font-size="24px" font-style="normal" font-weight="bold" text-decoration="normal" x="455" y="840" text-anchor="start" dominant-baseline="alphabetic" fill-opacity="1">3</text><text fill="rgb(37,37,37)" stroke="none" font-family="geogebra-sans-serif, sans-serif" font-size="24px" font-style="normal" font-weight="bold" text-decoration="normal" x="590" y="840" text-anchor="start" dominant-baseline="alphabetic" fill-opacity="1">4</text><text fill="none" stroke="rgb(255,255,255)" font-family="geogebra-sans-serif, sans-serif" font-size="24px" font-style="normal" font-weight="bold" text-decoration="normal" x="590" y="840" text-anchor="start" dominant-baseline="alphabetic" stroke-opacity="1" stroke-linejoin="bevel" stroke-miterlimit="10" stroke-width="3">4</text><text fill="rgb(37,37,37)" stroke="none" font-family="geogebra-sans-serif, sans-serif" font-size="24px" font-style="normal" font-weight="bold" text-decoration="normal" x="590" y="840" text-anchor="start" dominant-baseline="alphabetic" fill-opacity="1">4</text><text fill="rgb(37,37,37)" stroke="none" font-family="geogebra-sans-serif, sans-serif" font-size="24px" font-style="normal" font-weight="bold" text-decoration="normal" x="725" y="840" text-anchor="start" dominant-baseline="alphabetic" fill-opacity="1">5</text><text fill="none" stroke="rgb(255,255,255)" font-family="geogebra-sans-serif, sans-serif" font-size="24px" font-style="normal" font-weight="bold" text-decoration="normal" x="725" y="840" text-anchor="start" dominant-baseline="alphabetic" stroke-opacity="1" stroke-linejoin="bevel" stroke-miterlimit="10" stroke-width="3">5</text><text fill="rgb(37,37,37)" stroke="none" font-family="geogebra-sans-serif, sans-serif" font-size="24px" font-style="normal" font-weight="bold" text-decoration="normal" x="725" y="840" text-anchor="start" dominant-baseline="alphabetic" fill-opacity="1">5</text><text fill="rgb(37,37,37)" stroke="none" font-family="geogebra-sans-serif, sans-serif" font-size="24px" font-style="normal" font-weight="bold" text-decoration="normal" x="860" y="840" text-anchor="start" dominant-baseline="alphabetic" fill-opacity="1">6</text><text fill="none" stroke="rgb(255,255,255)" font-family="geogebra-sans-serif, sans-serif" font-size="24px" font-style="normal" font-weight="bold" text-decoration="normal" x="860" y="840" text-anchor="start" dominant-baseline="alphabetic" stroke-opacity="1" stroke-linejoin="bevel" stroke-miterlimit="10" stroke-width="3">6</text><text fill="rgb(37,37,37)" stroke="none" font-family="geogebra-sans-serif, sans-serif" font-size="24px" font-style="normal" font-weight="bold" text-decoration="normal" x="860" y="840" text-anchor="start" dominant-baseline="alphabetic" fill-opacity="1">6</text><text fill="rgb(37,37,37)" stroke="none" font-family="geogebra-sans-serif, sans-serif" font-size="24px" font-style="normal" font-weight="bold" text-decoration="normal" x="995" y="840" text-anchor="start" dominant-baseline="alphabetic" fill-opacity="1">7</text><text fill="none" stroke="rgb(255,255,255)" font-family="geogebra-sans-serif, sans-serif" font-size="24px" font-style="normal" font-weight="bold" text-decoration="normal" x="995" y="840" text-anchor="start" dominant-baseline="alphabetic" stroke-opacity="1" stroke-linejoin="bevel" stroke-miterlimit="10" stroke-width="3">7</text><text fill="rgb(37,37,37)" stroke="none" font-family="geogebra-sans-serif, sans-serif" font-size="24px" font-style="normal" font-weight="bold" text-decoration="normal" x="995" y="840" text-anchor="start" dominant-baseline="alphabetic" fill-opacity="1">7</text><text fill="rgb(37,37,37)" stroke="none" font-family="geogebra-sans-serif, sans-serif" font-size="24px" font-style="normal" font-weight="bold" text-decoration="normal" x="1130" y="840" text-anchor="start" dominant-baseline="alphabetic" fill-opacity="1">8</text><text fill="none" stroke="rgb(255,255,255)" font-family="geogebra-sans-serif, sans-serif" font-size="24px" font-style="normal" font-weight="bold" text-decoration="normal" x="1130" y="840" text-anchor="start" dominant-baseline="alphabetic" stroke-opacity="1" stroke-linejoin="bevel" stroke-miterlimit="10" stroke-width="3">8</text><text fill="rgb(37,37,37)" stroke="none" font-family="geogebra-sans-serif, sans-serif" font-size="24px" font-style="normal" font-weight="bold" text-decoration="normal" x="1130" y="840" text-anchor="start" dominant-baseline="alphabetic" fill-opacity="1">8</text><text fill="rgb(37,37,37)" stroke="none" font-family="geogebra-sans-serif, sans-serif" font-size="24px" font-style="normal" font-weight="bold" text-decoration="normal" x="1265" y="840" text-anchor="start" dominant-baseline="alphabetic" fill-opacity="1">9</text><text fill="none" stroke="rgb(255,255,255)" font-family="geogebra-sans-serif, sans-serif" font-size="24px" font-style="normal" font-weight="bold" text-decoration="normal" x="1265" y="840" text-anchor="start" dominant-baseline="alphabetic" stroke-opacity="1" stroke-linejoin="bevel" stroke-miterlimit="10" stroke-width="3">9</text><text fill="rgb(37,37,37)" stroke="none" font-family="geogebra-sans-serif, sans-serif" font-size="24px" font-style="normal" font-weight="bold" text-decoration="normal" x="1265" y="840" text-anchor="start" dominant-baseline="alphabetic" fill-opacity="1">9</text><text fill="rgb(37,37,37)" stroke="none" font-family="geogebra-sans-serif, sans-serif" font-size="24px" font-style="normal" font-weight="bold" text-decoration="normal" x="1392" y="840" text-anchor="start" dominant-baseline="alphabetic" fill-opacity="1">10</text><text fill="none" stroke="rgb(255,255,255)" font-family="geogebra-sans-serif, sans-serif" font-size="24px" font-style="normal" font-weight="bold" text-decoration="normal" x="1392" y="840" text-anchor="start" dominant-baseline="alphabetic" stroke-opacity="1" stroke-linejoin="bevel" stroke-miterlimit="10" stroke-width="3">10</text><text fill="rgb(37,37,37)" stroke="none" font-family="geogebra-sans-serif, sans-serif" font-size="24px" font-style="normal" font-weight="bold" text-decoration="normal" x="1392" y="840" text-anchor="start" dominant-baseline="alphabetic" fill-opacity="1">10</text><text fill="rgb(37,37,37)" stroke="none" font-family="geogebra-sans-serif, sans-serif" font-size="32px" font-style="normal" font-weight="normal" text-decoration="normal" x="61" y="30" text-anchor="start" dominant-baseline="alphabetic" fill-opacity="1">P{X=k}</text><text fill="rgb(37,37,37)" stroke="none" font-family="geogebra-sans-serif, sans-serif" font-size="24px" font-style="normal" font-weight="bold" text-decoration="normal" x="0" y="652" text-anchor="start" dominant-baseline="alphabetic" fill-opacity="1">0.05</text><text fill="none" stroke="rgb(255,255,255)" font-family="geogebra-sans-serif, sans-serif" font-size="24px" font-style="normal" font-weight="bold" text-decoration="normal" x="0" y="652" text-anchor="start" dominant-baseline="alphabetic" stroke-opacity="1" stroke-linejoin="bevel" stroke-miterlimit="10" stroke-width="3">0.05</text><text fill="rgb(37,37,37)" stroke="none" font-family="geogebra-sans-serif, sans-serif" font-size="24px" font-style="normal" font-weight="bold" text-decoration="normal" x="0" y="652" text-anchor="start" dominant-baseline="alphabetic" fill-opacity="1">0.05</text><text fill="rgb(37,37,37)" stroke="none" font-family="geogebra-sans-serif, sans-serif" font-size="24px" font-style="normal" font-weight="bold" text-decoration="normal" x="15" y="473" text-anchor="start" dominant-baseline="alphabetic" fill-opacity="1">0.1</text><text fill="none" stroke="rgb(255,255,255)" font-family="geogebra-sans-serif, sans-serif" font-size="24px" font-style="normal" font-weight="bold" text-decoration="normal" x="15" y="473" text-anchor="start" dominant-baseline="alphabetic" stroke-opacity="1" stroke-linejoin="bevel" stroke-miterlimit="10" stroke-width="3">0.1</text><text fill="rgb(37,37,37)" stroke="none" font-family="geogebra-sans-serif, sans-serif" font-size="24px" font-style="normal" font-weight="bold" text-decoration="normal" x="15" y="473" text-anchor="start" dominant-baseline="alphabetic" fill-opacity="1">0.1</text><text fill="rgb(37,37,37)" stroke="none" font-family="geogebra-sans-serif, sans-serif" font-size="24px" font-style="normal" font-weight="bold" text-decoration="normal" x="0" y="294" text-anchor="start" dominant-baseline="alphabetic" fill-opacity="1">0.15</text><text fill="none" stroke="rgb(255,255,255)" font-family="geogebra-sans-serif, sans-serif" font-size="24px" font-style="normal" font-weight="bold" text-decoration="normal" x="0" y="294" text-anchor="start" dominant-baseline="alphabetic" stroke-opacity="1" stroke-linejoin="bevel" stroke-miterlimit="10" stroke-width="3">0.15</text><text fill="rgb(37,37,37)" stroke="none" font-family="geogebra-sans-serif, sans-serif" font-size="24px" font-style="normal" font-weight="bold" text-decoration="normal" x="0" y="294" text-anchor="start" dominant-baseline="alphabetic" fill-opacity="1">0.15</text><text fill="rgb(37,37,37)" stroke="none" font-family="geogebra-sans-serif, sans-serif" font-size="24px" font-style="normal" font-weight="bold" text-decoration="normal" x="15" y="115" text-anchor="start" dominant-baseline="alphabetic" fill-opacity="1">0.2</text><text fill="none" stroke="rgb(255,255,255)" font-family="geogebra-sans-serif, sans-serif" font-size="24px" font-style="normal" font-weight="bold" text-decoration="normal" x="15" y="115" text-anchor="start" dominant-baseline="alphabetic" stroke-opacity="1" stroke-linejoin="bevel" stroke-miterlimit="10" stroke-width="3">0.2</text><text fill="rgb(37,37,37)" stroke="none" font-family="geogebra-sans-serif, sans-serif" font-size="24px" font-style="normal" font-weight="bold" text-decoration="normal" x="15" y="115" text-anchor="start" dominant-baseline="alphabetic" fill-opacity="1">0.2</text><text fill="rgb(37,37,37)" stroke="none" font-family="geogebra-sans-serif, sans-serif" font-size="24px" font-style="normal" font-weight="bold" text-decoration="normal" x="31" y="848" text-anchor="start" dominant-baseline="alphabetic" fill-opacity="1">0</text><text fill="none" stroke="rgb(255,255,255)" font-family="geogebra-sans-serif, sans-serif" font-size="24px" font-style="normal" font-weight="bold" text-decoration="normal" x="31" y="848" text-anchor="start" dominant-baseline="alphabetic" stroke-opacity="1" stroke-linejoin="bevel" stroke-miterlimit="10" stroke-width="3">0</text><text fill="rgb(37,37,37)" stroke="none" font-family="geogebra-sans-serif, sans-serif" font-size="24px" font-style="normal" font-weight="bold" text-decoration="normal" x="31" y="848" text-anchor="start" dominant-baseline="alphabetic" fill-opacity="1">0</text><path fill="rgb(76,66,161)" stroke="none" paint-order="stroke fill markers" d=" M 61.6743363323471 777.1056698227002 C 61.6743363323471 779.8670935718542 59.43576008150107 782.1056698227002 56.6743363323471 782.1056698227002 C 53.91291258319313 782.1056698227002 51.6743363323471 779.8670935718542 51.6743363323471 777.1056698227002 C 51.6743363323471 774.3442460735462 53.91291258319313 772.1056698227002 56.6743363323471 772.1056698227002 C 59.43576008150107 772.1056698227002 61.6743363323471 774.3442460735462 61.6743363323471 777.1056698227002 Z" fill-opacity="1"/><path fill="rgb(76,66,161)" stroke="none" paint-order="stroke fill markers" d=" M 196.63542105798248 612.4883268461899 C 196.63542105798248 615.2497505953439 194.39684480713646 617.4883268461899 191.63542105798248 617.4883268461899 C 188.8739973088285 617.4883268461899 186.63542105798248 615.2497505953439 186.63542105798248 612.4883268461899 C 186.63542105798248 609.7269030970359 188.8739973088285 607.4883268461899 191.63542105798248 607.4883268461899 C 194.39684480713646 607.4883268461899 196.63542105798248 609.7269030970359 196.63542105798248 612.4883268461899 Z" fill-opacity="1"/><path fill="rgb(76,66,161)" stroke="none" paint-order="stroke fill markers" d=" M 331.59650578361783 329.7759334734873 C 331.59650578361783 332.5373572226413 329.3579295327718 334.7759334734873 326.59650578361783 334.7759334734873 C 323.8350820344639 334.7759334734873 321.59650578361783 332.5373572226413 321.59650578361783 329.7759334734873 C 321.59650578361783 327.0145097243334 323.8350820344639 324.7759334734873 326.59650578361783 324.7759334734873 C 329.3579295327718 324.7759334734873 331.59650578361783 327.0145097243334 331.59650578361783 329.7759334734873 Z" fill-opacity="1"/><path fill="rgb(76,66,161)" stroke="none" paint-order="stroke fill markers" d=" M 466.5575905092532 86.42855689951557 C 466.5575905092532 89.18998064866953 464.31901425840715 91.42855689951557 461.5575905092532 91.42855689951557 C 458.79616676009925 91.42855689951557 456.5575905092532 89.18998064866953 456.5575905092532 86.42855689951557 C 456.5575905092532 83.66713315036161 458.79616676009925 81.42855689951557 461.5575905092532 81.42855689951557 C 464.31901425840715 81.42855689951557 466.5575905092532 83.66713315036161 466.5575905092532 86.42855689951557 Z" fill-opacity="1"/><path fill="rgb(76,66,161)" stroke="none" paint-order="stroke fill markers" d=" M 601.5186752348886 39.906264319197476 C 601.5186752348886 42.66768806835144 599.2800989840426 44.906264319197476 596.5186752348886 44.906264319197476 C 593.7572514857346 44.906264319197476 591.5186752348886 42.66768806835144 591.5186752348886 39.906264319197476 C 591.5186752348886 37.144840570043506 593.7572514857346 34.906264319197476 596.5186752348886 34.906264319197476 C 599.2800989840426 34.906264319197476 601.5186752348886 37.144840570043506 601.5186752348886 39.906264319197476 Z" fill-opacity="1"/><path fill="rgb(76,66,161)" stroke="none" paint-order="stroke fill markers" d=" M 736.479759960524 193.78769362332673 C 736.479759960524 196.5491173724807 734.241183709678 198.78769362332673 731.479759960524 198.78769362332673 C 728.71833621137 198.78769362332673 726.479759960524 196.5491173724807 726.479759960524 193.78769362332673 C 726.479759960524 191.02626987417275 728.71833621137 188.78769362332673 731.479759960524 188.78769362332673 C 734.241183709678 188.78769362332673 736.479759960524 191.02626987417275 736.479759960524 193.78769362332673 Z" fill-opacity="1"/><path fill="rgb(76,66,161)" stroke="none" paint-order="stroke fill markers" d=" M 871.4408446861594 429.97779441571106 C 871.4408446861594 432.739218164865 869.2022684353134 434.97779441571106 866.4408446861594 434.97779441571106 C 863.6794209370054 434.97779441571106 861.4408446861594 432.739218164865 861.4408446861594 429.97779441571106 C 861.4408446861594 427.2163706665571 863.6794209370054 424.97779441571106 866.4408446861594 424.97779441571106 C 869.2022684353134 424.97779441571106 871.4408446861594 427.2163706665571 871.4408446861594 429.97779441571106 Z" fill-opacity="1"/><path fill="rgb(76,66,161)" stroke="none" paint-order="stroke fill markers" d=" M 1006.4019294117948 623.2242405185709 C 1006.4019294117948 625.9856642677249 1004.1633531609488 628.2242405185709 1001.4019294117948 628.2242405185709 C 998.6405056626407 628.2242405185709 996.4019294117948 625.9856642677249 996.4019294117948 623.2242405185709 C 996.4019294117948 620.4628167694169 998.6405056626407 618.2242405185709 1001.4019294117948 618.2242405185709 C 1004.1633531609488 618.2242405185709 1006.4019294117948 620.4628167694169 1006.4019294117948 623.2242405185709 Z" fill-opacity="1"/><path fill="rgb(76,66,161)" stroke="none" paint-order="stroke fill markers" d=" M 1141.3630141374301 741.3192909147632 C 1141.3630141374301 744.0807146639172 1139.124437886584 746.3192909147632 1136.3630141374301 746.3192909147632 C 1133.6015903882762 746.3192909147632 1131.3630141374301 744.0807146639172 1131.3630141374301 741.3192909147632 C 1131.3630141374301 738.5578671656092 1133.6015903882762 736.3192909147632 1136.3630141374301 736.3192909147632 C 1139.124437886584 736.3192909147632 1141.3630141374301 738.5578671656092 1141.3630141374301 741.3192909147632 Z" fill-opacity="1"/><path fill="rgb(76,66,161)" stroke="none" paint-order="stroke fill markers" d=" M 1276.3240988630655 794.9988592766688 C 1276.3240988630655 797.7602830258228 1274.0855226122194 799.9988592766688 1271.3240988630655 799.9988592766688 C 1268.5626751139116 799.9988592766688 1266.3240988630655 797.7602830258228 1266.3240988630655 794.9988592766688 C 1266.3240988630655 792.2374355275148 1268.5626751139116 789.9988592766688 1271.3240988630655 789.9988592766688 C 1274.0855226122194 789.9988592766688 1276.3240988630655 792.2374355275148 1276.3240988630655 794.9988592766688 Z" fill-opacity="1"/><path fill="rgb(76,66,161)" stroke="none" paint-order="stroke fill markers" d=" M 1411.2851835887009 812.8920487306373 C 1411.2851835887009 815.6534724797913 1409.0466073378548 817.8920487306373 1406.2851835887009 817.8920487306373 C 1403.523759839547 817.8920487306373 1401.2851835887009 815.6534724797913 1401.2851835887009 812.8920487306373 C 1401.2851835887009 810.1306249814833 1403.523759839547 807.8920487306373 1406.2851835887009 807.8920487306373 C 1409.0466073378548 807.8920487306373 1411.2851835887009 810.1306249814833 1411.2851835887009 812.8920487306373 Z" fill-opacity="1"/></g></g></svg>