<svg version="1.1" xmlns="http://www.w3.org/2000/svg" xmlns:xlink="http://www.w3.org/1999/xlink" width="901" height="851"><defs><clipPath id="NGfWZEThJFWN"><path fill="none" stroke="none" d=" M 0 0 L 901 0 L 901 851 L 0 851 L 0 0 Z"/></clipPath></defs><g transform="scale(1,1)" clip-path="url(#NGfWZEThJFWN)"><g><rect fill="rgb(255,255,255)" stroke="none" x="0" y="0" width="901" height="851" fill-opacity="1"/><path fill="none" stroke="rgb(192,192,192)" paint-order="fill stroke markers" d=" M 62.5 0.5 L 62.5 851.5 M 62.5 0.5 L 62.5 851.5 M 253.5 0.5 L 253.5 851.5 M 348.5 0.5 L 348.5 851.5 M 443.5 0.5 L 443.5 851.5 M 539.5 0.5 L 539.5 851.5 M 634.5 0.5 L 634.5 851.5 M 730.5 0.5 L 730.5 851.5 M 825.5 0.5 L 825.5 851.5" stroke-opacity="1" stroke-linecap="round" stroke-linejoin="round" stroke-miterlimit="10"/><path fill="none" stroke="rgb(192,192,192)" paint-order="fill stroke markers" d=" M 4.5 0.5 L 4.5 851.5 M 23.5 0.5 L 23.5 851.5 M 43.5 0.5 L 43.5 851.5 M 81.5 0.5 L 81.5 851.5 M 100.5 0.5 L 100.5 851.5 M 119.5 0.5 L 119.5 851.5 M 138.5 0.5 L 138.5 851.5 M 176.5 0.5 L 176.5 851.5 M 195.5 0.5 L 195.5 851.5 M 214.5 0.5 L 214.5 851.5 M 233.5 0.5 L 233.5 851.5 M 272.5 0.5 L 272.5 851.5 M 291.5 0.5 L 291.5 851.5 M 310.5 0.5 L 310.5 851.5 M 329.5 0.5 L 329.5 851.5 M 367.5 0.5 L 367.5 851.5 M 386.5 0.5 L 386.5 851.5 M 405.5 0.5 L 405.5 851.5 M 424.5 0.5 L 424.5 851.5 M 463.5 0.5 L 463.5 851.5 M 482.5 0.5 L 482.5 851.5 M 501.5 0.5 L 501.5 851.5 M 520.5 0.5 L 520.5 851.5 M 558.5 0.5 L 558.5 851.5 M 577.5 0.5 L 577.5 851.5 M 596.5 0.5 L 596.5 851.5 M 615.5 0.5 L 615.5 851.5 M 653.5 0.5 L 653.5 851.5 M 673.5 0.5 L 673.5 851.5 M 692.5 0.5 L 692.5 851.5 M 711.5 0.5 L 711.5 851.5 M 749.5 0.5 L 749.5 851.5 M 768.5 0.5 L 768.5 851.5 M 787.5 0.5 L 787.5 851.5 M 806.5 0.5 L 806.5 851.5 M 844.5 0.5 L 844.5 851.5 M 863.5 0.5 L 863.5 851.5 M 883.5 0.5 L 883.5 851.5" stroke-opacity="0.23529411764705882" stroke-linecap="round" stroke-linejoin="round" stroke-miterlimit="10"/><path fill="none" stroke="rgb(192,192,192)" paint-order="fill stroke markers" d=" M 0.5 3.5 L 901.5 3.5 M 0.5 3.5 L 901.5 3.5 M 0.5 98.5 L 901.5 98.5 M 0.5 193.5 L 901.5 193.5 M 0.5 289.5 L 901.5 289.5 M 0.5 384.5 L 901.5 384.5 M 0.5 480.5 L 901.5 480.5 M 0.5 671.5 L 901.5 671.5 M 0.5 766.5 L 901.5 766.5" stroke-opacity="1" stroke-linecap="round" stroke-linejoin="round" stroke-miterlimit="10"/><path fill="none" stroke="rgb(192,192,192)" paint-order="fill stroke markers" d=" M 0.5 3.5 L 901.5 3.5 M 0.5 22.5 L 901.5 22.5 M 0.5 41.5 L 901.5 41.5 M 0.5 60.5 L 901.5 60.5 M 0.5 79.5 L 901.5 79.5 M 0.5 117.5 L 901.5 117.5 M 0.5 136.5 L 901.5 136.5 M 0.5 155.5 L 901.5 155.5 M 0.5 174.5 L 901.5 174.5 M 0.5 212.5 L 901.5 212.5 M 0.5 232.5 L 901.5 232.5 M 0.5 251.5 L 901.5 251.5 M 0.5 270.5 L 901.5 270.5 M 0.5 308.5 L 901.5 308.5 M 0.5 327.5 L 901.5 327.5 M 0.5 346.5 L 901.5 346.5 M 0.5 365.5 L 901.5 365.5 M 0.5 403.5 L 901.5 403.5 M 0.5 422.5 L 901.5 422.5 M 0.5 442.5 L 901.5 442.5 M 0.5 461.5 L 901.5 461.5 M 0.5 499.5 L 901.5 499.5 M 0.5 518.5 L 901.5 518.5 M 0.5 537.5 L 901.5 537.5 M 0.5 556.5 L 901.5 556.5 M 0.5 594.5 L 901.5 594.5 M 0.5 613.5 L 901.5 613.5 M 0.5 632.5 L 901.5 632.5 M 0.5 652.5 L 901.5 652.5 M 0.5 690.5 L 901.5 690.5 M 0.5 709.5 L 901.5 709.5 M 0.5 728.5 L 901.5 728.5 M 0.5 747.5 L 901.5 747.5 M 0.5 785.5 L 901.5 785.5 M 0.5 804.5 L 901.5 804.5 M 0.5 823.5 L 901.5 823.5 M 0.5 842.5 L 901.5 842.5" stroke-opacity="0.23529411764705882" stroke-linecap="round" stroke-linejoin="round" stroke-miterlimit="10"/><path fill="none" stroke="rgb(37,37,37)" paint-order="fill stroke markers" d=" M 157.5 2.5 L 157.5 851.5" stroke-opacity="1" stroke-miterlimit="10"/><path fill="none" stroke="rgb(37,37,37)" paint-order="fill stroke markers" d=" M 157.5 1.5 L 153.5 5.5" stroke-opacity="1" stroke-miterlimit="10"/><path fill="none" stroke="rgb(37,37,37)" paint-order="fill stroke markers" d=" M 157.5 1.5 L 161.5 5.5" stroke-opacity="1" stroke-miterlimit="10"/><text fill="rgb(37,37,37)" stroke="none" font-family="geogebra-sans-serif, sans-serif" font-size="16px" font-style="normal" font-weight="normal" text-decoration="normal" x="883" y="571" text-anchor="start" dominant-baseline="alphabetic" fill-opacity="1">x</text><path fill="none" stroke="rgb(37,37,37)" paint-order="fill stroke markers" d=" M 0.5 575.5 L 899.5 575.5" stroke-opacity="1" stroke-miterlimit="10"/><path fill="none" stroke="rgb(37,37,37)" paint-order="fill stroke markers" d=" M 900.5 575.5 L 896.5 571.5" stroke-opacity="1" stroke-miterlimit="10"/><path fill="none" stroke="rgb(37,37,37)" paint-order="fill stroke markers" d=" M 900.5 575.5 L 896.5 579.5" stroke-opacity="1" stroke-miterlimit="10"/><text fill="rgb(37,37,37)" stroke="none" font-family="geogebra-sans-serif, sans-serif" font-size="12px" font-style="normal" font-weight="normal" text-decoration="normal" x="51" y="591" text-anchor="start" dominant-baseline="alphabetic" fill-opacity="1">–0.5</text><text fill="none" stroke="rgb(255,255,255)" font-family="geogebra-sans-serif, sans-serif" font-size="12px" font-style="normal" font-weight="normal" text-decoration="normal" x="51" y="591" text-anchor="start" dominant-baseline="alphabetic" stroke-opacity="1" stroke-linejoin="bevel" stroke-miterlimit="10" stroke-width="3">–0.5</text><text fill="rgb(37,37,37)" stroke="none" font-family="geogebra-sans-serif, sans-serif" font-size="12px" font-style="normal" font-weight="normal" text-decoration="normal" x="51" y="591" text-anchor="start" dominant-baseline="alphabetic" fill-opacity="1">–0.5</text><text fill="rgb(37,37,37)" stroke="none" font-family="geogebra-sans-serif, sans-serif" font-size="12px" font-style="normal" font-weight="normal" text-decoration="normal" x="245" y="591" text-anchor="start" dominant-baseline="alphabetic" fill-opacity="1">0.5</text><text fill="none" stroke="rgb(255,255,255)" font-family="geogebra-sans-serif, sans-serif" font-size="12px" font-style="normal" font-weight="normal" text-decoration="normal" x="245" y="591" text-anchor="start" dominant-baseline="alphabetic" stroke-opacity="1" stroke-linejoin="bevel" stroke-miterlimit="10" stroke-width="3">0.5</text><text fill="rgb(37,37,37)" stroke="none" font-family="geogebra-sans-serif, sans-serif" font-size="12px" font-style="normal" font-weight="normal" text-decoration="normal" x="245" y="591" text-anchor="start" dominant-baseline="alphabetic" fill-opacity="1">0.5</text><text fill="rgb(37,37,37)" stroke="none" font-family="geogebra-sans-serif, sans-serif" font-size="12px" font-style="normal" font-weight="normal" text-decoration="normal" x="346" y="591" text-anchor="start" dominant-baseline="alphabetic" fill-opacity="1">1</text><text fill="none" stroke="rgb(255,255,255)" font-family="geogebra-sans-serif, sans-serif" font-size="12px" font-style="normal" font-weight="normal" text-decoration="normal" x="346" y="591" text-anchor="start" dominant-baseline="alphabetic" stroke-opacity="1" stroke-linejoin="bevel" stroke-miterlimit="10" stroke-width="3">1</text><text fill="rgb(37,37,37)" stroke="none" font-family="geogebra-sans-serif, sans-serif" font-size="12px" font-style="normal" font-weight="normal" text-decoration="normal" x="346" y="591" text-anchor="start" dominant-baseline="alphabetic" fill-opacity="1">1</text><text fill="rgb(37,37,37)" stroke="none" font-family="geogebra-sans-serif, sans-serif" font-size="12px" font-style="normal" font-weight="normal" text-decoration="normal" x="435" y="591" text-anchor="start" dominant-baseline="alphabetic" fill-opacity="1">1.5</text><text fill="none" stroke="rgb(255,255,255)" font-family="geogebra-sans-serif, sans-serif" font-size="12px" font-style="normal" font-weight="normal" text-decoration="normal" x="435" y="591" text-anchor="start" dominant-baseline="alphabetic" stroke-opacity="1" stroke-linejoin="bevel" stroke-miterlimit="10" stroke-width="3">1.5</text><text fill="rgb(37,37,37)" stroke="none" font-family="geogebra-sans-serif, sans-serif" font-size="12px" font-style="normal" font-weight="normal" text-decoration="normal" x="435" y="591" text-anchor="start" dominant-baseline="alphabetic" fill-opacity="1">1.5</text><text fill="rgb(37,37,37)" stroke="none" font-family="geogebra-sans-serif, sans-serif" font-size="12px" font-style="normal" font-weight="normal" text-decoration="normal" x="537" y="591" text-anchor="start" dominant-baseline="alphabetic" fill-opacity="1">2</text><text fill="none" stroke="rgb(255,255,255)" font-family="geogebra-sans-serif, sans-serif" font-size="12px" font-style="normal" font-weight="normal" text-decoration="normal" x="537" y="591" text-anchor="start" dominant-baseline="alphabetic" stroke-opacity="1" stroke-linejoin="bevel" stroke-miterlimit="10" stroke-width="3">2</text><text fill="rgb(37,37,37)" stroke="none" font-family="geogebra-sans-serif, sans-serif" font-size="12px" font-style="normal" font-weight="normal" text-decoration="normal" x="537" y="591" text-anchor="start" dominant-baseline="alphabetic" fill-opacity="1">2</text><text fill="rgb(37,37,37)" stroke="none" font-family="geogebra-sans-serif, sans-serif" font-size="12px" font-style="normal" font-weight="normal" text-decoration="normal" x="626" y="591" text-anchor="start" dominant-baseline="alphabetic" fill-opacity="1">2.5</text><text fill="none" stroke="rgb(255,255,255)" font-family="geogebra-sans-serif, sans-serif" font-size="12px" font-style="normal" font-weight="normal" text-decoration="normal" x="626" y="591" text-anchor="start" dominant-baseline="alphabetic" stroke-opacity="1" stroke-linejoin="bevel" stroke-miterlimit="10" stroke-width="3">2.5</text><text fill="rgb(37,37,37)" stroke="none" font-family="geogebra-sans-serif, sans-serif" font-size="12px" font-style="normal" font-weight="normal" text-decoration="normal" x="626" y="591" text-anchor="start" dominant-baseline="alphabetic" fill-opacity="1">2.5</text><text fill="rgb(37,37,37)" stroke="none" font-family="geogebra-sans-serif, sans-serif" font-size="12px" font-style="normal" font-weight="normal" text-decoration="normal" x="728" y="591" text-anchor="start" dominant-baseline="alphabetic" fill-opacity="1">3</text><text fill="none" stroke="rgb(255,255,255)" font-family="geogebra-sans-serif, sans-serif" font-size="12px" font-style="normal" font-weight="normal" text-decoration="normal" x="728" y="591" text-anchor="start" dominant-baseline="alphabetic" stroke-opacity="1" stroke-linejoin="bevel" stroke-miterlimit="10" stroke-width="3">3</text><text fill="rgb(37,37,37)" stroke="none" font-family="geogebra-sans-serif, sans-serif" font-size="12px" font-style="normal" font-weight="normal" text-decoration="normal" x="728" y="591" text-anchor="start" dominant-baseline="alphabetic" fill-opacity="1">3</text><text fill="rgb(37,37,37)" stroke="none" font-family="geogebra-sans-serif, sans-serif" font-size="12px" font-style="normal" font-weight="normal" text-decoration="normal" x="817" y="591" text-anchor="start" dominant-baseline="alphabetic" fill-opacity="1">3.5</text><text fill="none" stroke="rgb(255,255,255)" font-family="geogebra-sans-serif, sans-serif" font-size="12px" font-style="normal" font-weight="normal" text-decoration="normal" x="817" y="591" text-anchor="start" dominant-baseline="alphabetic" stroke-opacity="1" stroke-linejoin="bevel" stroke-miterlimit="10" stroke-width="3">3.5</text><text fill="rgb(37,37,37)" stroke="none" font-family="geogebra-sans-serif, sans-serif" font-size="12px" font-style="normal" font-weight="normal" text-decoration="normal" x="817" y="591" text-anchor="start" dominant-baseline="alphabetic" fill-opacity="1">3.5</text><text fill="rgb(37,37,37)" stroke="none" font-family="geogebra-sans-serif, sans-serif" font-size="12px" font-style="normal" font-weight="normal" text-decoration="normal" x="136" y="771" text-anchor="start" dominant-baseline="alphabetic" fill-opacity="1">–1</text><text fill="none" stroke="rgb(255,255,255)" font-family="geogebra-sans-serif, sans-serif" font-size="12px" font-style="normal" font-weight="normal" text-decoration="normal" x="136" y="771" text-anchor="start" dominant-baseline="alphabetic" stroke-opacity="1" stroke-linejoin="bevel" stroke-miterlimit="10" stroke-width="3">–1</text><text fill="rgb(37,37,37)" stroke="none" font-family="geogebra-sans-serif, sans-serif" font-size="12px" font-style="normal" font-weight="normal" text-decoration="normal" x="136" y="771" text-anchor="start" dominant-baseline="alphabetic" fill-opacity="1">–1</text><text fill="rgb(37,37,37)" stroke="none" font-family="geogebra-sans-serif, sans-serif" font-size="12px" font-style="normal" font-weight="normal" text-decoration="normal" x="127" y="676" text-anchor="start" dominant-baseline="alphabetic" fill-opacity="1">–0.5</text><text fill="none" stroke="rgb(255,255,255)" font-family="geogebra-sans-serif, sans-serif" font-size="12px" font-style="normal" font-weight="normal" text-decoration="normal" x="127" y="676" text-anchor="start" dominant-baseline="alphabetic" stroke-opacity="1" stroke-linejoin="bevel" stroke-miterlimit="10" stroke-width="3">–0.5</text><text fill="rgb(37,37,37)" stroke="none" font-family="geogebra-sans-serif, sans-serif" font-size="12px" font-style="normal" font-weight="normal" text-decoration="normal" x="127" y="676" text-anchor="start" dominant-baseline="alphabetic" fill-opacity="1">–0.5</text><text fill="rgb(37,37,37)" stroke="none" font-family="geogebra-sans-serif, sans-serif" font-size="12px" font-style="normal" font-weight="normal" text-decoration="normal" x="133" y="485" text-anchor="start" dominant-baseline="alphabetic" fill-opacity="1">0.5</text><text fill="none" stroke="rgb(255,255,255)" font-family="geogebra-sans-serif, sans-serif" font-size="12px" font-style="normal" font-weight="normal" text-decoration="normal" x="133" y="485" text-anchor="start" dominant-baseline="alphabetic" stroke-opacity="1" stroke-linejoin="bevel" stroke-miterlimit="10" stroke-width="3">0.5</text><text fill="rgb(37,37,37)" stroke="none" font-family="geogebra-sans-serif, sans-serif" font-size="12px" font-style="normal" font-weight="normal" text-decoration="normal" x="133" y="485" text-anchor="start" dominant-baseline="alphabetic" fill-opacity="1">0.5</text><text fill="rgb(37,37,37)" stroke="none" font-family="geogebra-sans-serif, sans-serif" font-size="12px" font-style="normal" font-weight="normal" text-decoration="normal" x="143" y="389" text-anchor="start" dominant-baseline="alphabetic" fill-opacity="1">1</text><text fill="none" stroke="rgb(255,255,255)" font-family="geogebra-sans-serif, sans-serif" font-size="12px" font-style="normal" font-weight="normal" text-decoration="normal" x="143" y="389" text-anchor="start" dominant-baseline="alphabetic" stroke-opacity="1" stroke-linejoin="bevel" stroke-miterlimit="10" stroke-width="3">1</text><text fill="rgb(37,37,37)" stroke="none" font-family="geogebra-sans-serif, sans-serif" font-size="12px" font-style="normal" font-weight="normal" text-decoration="normal" x="143" y="389" text-anchor="start" dominant-baseline="alphabetic" fill-opacity="1">1</text><text fill="rgb(37,37,37)" stroke="none" font-family="geogebra-sans-serif, sans-serif" font-size="12px" font-style="normal" font-weight="normal" text-decoration="normal" x="133" y="294" text-anchor="start" dominant-baseline="alphabetic" fill-opacity="1">1.5</text><text fill="none" stroke="rgb(255,255,255)" font-family="geogebra-sans-serif, sans-serif" font-size="12px" font-style="normal" font-weight="normal" text-decoration="normal" x="133" y="294" text-anchor="start" dominant-baseline="alphabetic" stroke-opacity="1" stroke-linejoin="bevel" stroke-miterlimit="10" stroke-width="3">1.5</text><text fill="rgb(37,37,37)" stroke="none" font-family="geogebra-sans-serif, sans-serif" font-size="12px" font-style="normal" font-weight="normal" text-decoration="normal" x="133" y="294" text-anchor="start" dominant-baseline="alphabetic" fill-opacity="1">1.5</text><text fill="rgb(37,37,37)" stroke="none" font-family="geogebra-sans-serif, sans-serif" font-size="12px" font-style="normal" font-weight="normal" text-decoration="normal" x="143" y="198" text-anchor="start" dominant-baseline="alphabetic" fill-opacity="1">2</text><text fill="none" stroke="rgb(255,255,255)" font-family="geogebra-sans-serif, sans-serif" font-size="12px" font-style="normal" font-weight="normal" text-decoration="normal" x="143" y="198" text-anchor="start" dominant-baseline="alphabetic" stroke-opacity="1" stroke-linejoin="bevel" stroke-miterlimit="10" stroke-width="3">2</text><text fill="rgb(37,37,37)" stroke="none" font-family="geogebra-sans-serif, sans-serif" font-size="12px" font-style="normal" font-weight="normal" text-decoration="normal" x="143" y="198" text-anchor="start" dominant-baseline="alphabetic" fill-opacity="1">2</text><text fill="rgb(37,37,37)" stroke="none" font-family="geogebra-sans-serif, sans-serif" font-size="12px" font-style="normal" font-weight="normal" text-decoration="normal" x="133" y="103" text-anchor="start" dominant-baseline="alphabetic" fill-opacity="1">2.5</text><text fill="none" stroke="rgb(255,255,255)" font-family="geogebra-sans-serif, sans-serif" font-size="12px" font-style="normal" font-weight="normal" text-decoration="normal" x="133" y="103" text-anchor="start" dominant-baseline="alphabetic" stroke-opacity="1" stroke-linejoin="bevel" stroke-miterlimit="10" stroke-width="3">2.5</text><text fill="rgb(37,37,37)" stroke="none" font-family="geogebra-sans-serif, sans-serif" font-size="12px" font-style="normal" font-weight="normal" text-decoration="normal" x="133" y="103" text-anchor="start" dominant-baseline="alphabetic" fill-opacity="1">2.5</text><text fill="rgb(37,37,37)" stroke="none" font-family="geogebra-sans-serif, sans-serif" font-size="12px" font-style="normal" font-weight="normal" text-decoration="normal" x="143" y="591" text-anchor="start" dominant-baseline="alphabetic" fill-opacity="1">0</text><text fill="none" stroke="rgb(255,255,255)" font-family="geogebra-sans-serif, sans-serif" font-size="12px" font-style="normal" font-weight="normal" text-decoration="normal" x="143" y="591" text-anchor="start" dominant-baseline="alphabetic" stroke-opacity="1" stroke-linejoin="bevel" stroke-miterlimit="10" stroke-width="3">0</text><text fill="rgb(37,37,37)" stroke="none" font-family="geogebra-sans-serif, sans-serif" font-size="12px" font-style="normal" font-weight="normal" text-decoration="normal" x="143" y="591" text-anchor="start" dominant-baseline="alphabetic" fill-opacity="1">0</text><path fill="none" stroke="rgb(46,125,50)" paint-order="fill stroke markers" d=" M 0 575.7222385252255 L 3.51953125 575.7222385252255 L 7.0390625 575.7222385252255 L 10.558593750000028 575.7222385252255 L 14.078125000000028 575.7222385252255 L 17.59765625000003 575.7222385252255 L 21.1171875 575.7222385252255 L 24.63671875 575.7222385252255 L 28.15625 575.7222385252255 L 31.67578125 575.7222385252255 L 35.195312500000014 575.7222385252255 L 38.714843750000014 575.7222385252255 L 42.234375000000014 575.7222385252255 L 45.753906250000014 575.7222385252255 L 49.273437500000014 575.7222385252255 L 52.79296875000003 575.7222385252255 L 56.3125 575.7222385252255 L 59.832031250000014 575.7222385252255 L 63.351562500000014 575.7222385252255 L 66.87109375000001 575.7222385252255 L 70.39062500000001 575.7222385252255 L 73.91015625000001 575.7222385252255 L 77.42968750000001 575.7222385252255 L 80.94921875000001 575.7222385252255 L 84.46875000000001 575.7222385252255 L 87.98828125000001 575.7222385252255 L 91.50781250000001 575.7222385252255 L 95.02734375 575.7222385252255 L 98.546875 575.7222385252255 L 102.06640625000003 575.7222385252255 L 105.58593750000001 575.7222385252255 L 109.10546875000001 575.7222385252255 L 112.625 575.7222385252255 L 116.14453125 575.7222385252255 L 119.6640625 575.7222385252255 L 123.18359375 575.7222385252255 L 126.70312500000001 575.7222385252255 L 130.22265625 575.7222385252255 L 133.7421875 575.7222385252255 L 137.26171875 575.7222385252255 L 140.78125 575.7222385252255 L 144.30078125 575.7222385252255 L 147.82031250000003 575.7222385252255 L 151.33984375000003 575.7222385252255 L 154.859375 575.7222385252255 L 158.37890625 575.7222385252255 L 161.8984375 575.7222385252255 L 165.41796875 575.7222385252255 L 168.93750000000003 575.7222385252255 L 172.45703125000003 575.7222385252255 L 175.9765625 575.7222385252255 L 179.49609375 575.7222385252255 L 183.015625 575.7222385252255 L 186.53515625 575.7222385252255 L 190.0546875 575.7222385252255 L 193.57421875 575.7222385252255 L 197.09375 575.7222385252255 L 200.61328125 575.7222385252255 L 204.13281250000003 575.7222385252255 L 207.65234375 575.7222385252255 L 211.17187500000003 575.7222385252255 L 214.69140625 575.7222385252255 M 214.87013244628906 480.2687435967398 L 214.88388061523438 480.2687435967398 L 215.5712890625 480.2687435967398 L 216.45117187500003 480.2687435967398 L 218.2109375 480.2687435967398 L 221.73046875 480.2687435967398 L 225.25 480.2687435967398 L 228.76953125000003 480.2687435967398 L 232.2890625 480.2687435967398 L 235.80859375 480.2687435967398 L 239.328125 480.2687435967398 L 242.84765625 480.2687435967398 L 246.3671875 480.2687435967398 L 249.88671875 480.2687435967398 L 253.40625000000003 480.2687435967398 L 256.92578125 480.2687435967398 L 260.4453125 480.2687435967398 L 263.96484375 480.2687435967398 L 267.484375 480.2687435967398 L 271.00390625 480.2687435967398 L 274.5234375 480.2687435967398 L 278.04296875 480.2687435967398 L 281.5625 480.2687435967398 L 285.08203125 480.2687435967398 L 288.6015625 480.2687435967398 L 292.12109375 480.2687435967398 L 295.640625 480.2687435967398 L 299.16015625 480.2687435967398 L 302.6796875 480.2687435967398 L 306.19921875 480.2687435967398 L 309.71875 480.2687435967398 L 313.23828125 480.2687435967398 L 316.7578125 480.2687435967398 L 320.27734375 480.2687435967398 L 323.796875 480.2687435967398 L 327.31640625 480.2687435967398 L 330.8359375 480.2687435967398 L 334.35546875 480.2687435967398 L 337.875 480.2687435967398 L 341.39453125 480.2687435967398 L 344.9140625 480.2687435967398 L 348.43359375 480.2687435967398 L 351.953125 480.2687435967398 L 355.47265625 480.2687435967398 L 358.9921875 480.2687435967398 L 362.51171875 480.2687435967398 L 366.03125 480.2687435967398 L 369.55078125 480.2687435967398 L 373.0703125 480.2687435967398 L 376.58984375 480.2687435967398 L 380.109375 480.2687435967398 L 383.62890625000006 480.2687435967398 L 387.1484375 480.2687435967398 L 390.66796875 480.2687435967398 L 394.1875 480.2687435967398 L 397.70703125 480.2687435967398 L 401.2265625 480.2687435967398 L 404.74609375 480.2687435967398 L 408.26562500000006 480.2687435967398 L 411.78515625 480.2687435967398 L 415.3046875 480.2687435967398 L 418.82421875 480.2687435967398 L 422.34375 480.2687435967398 L 425.86328125 480.2687435967398 L 429.3828125 480.2687435967398 L 432.90234375 480.2687435967398 L 436.421875 480.2687435967398 L 439.94140625 480.2687435967398 L 443.4609375 480.2687435967398 L 446.98046875 480.2687435967398 L 450.5 480.2687435967398 L 454.01953125 480.2687435967398 L 457.5390625 480.2687435967398 L 461.05859375 480.2687435967398 L 464.578125 480.2687435967398 L 468.09765625 480.2687435967398 L 471.6171875 480.2687435967398 L 475.13671875 480.2687435967398 L 478.65625 480.2687435967398 L 482.17578125 480.2687435967398 L 485.6953125 480.2687435967398 L 489.21484375 480.2687435967398 L 492.734375 480.2687435967398 L 496.25390625 480.2687435967398 L 499.7734375 480.2687435967398 L 503.29296875 480.2687435967398 L 506.8125 480.2687435967398 L 510.33203125 480.2687435967398 L 513.8515625 480.2687435967398 L 517.37109375 480.2687435967398 L 520.890625 480.2687435967398 L 524.41015625 480.2687435967398 L 527.9296875 480.2687435967398 L 531.44921875 480.2687435967398 L 534.96875 480.2687435967398 L 538.48828125 480.2687435967398 L 542.0078125 480.2687435967398 L 545.52734375 480.2687435967398 L 549.046875 480.2687435967398 L 552.5664062499999 480.2687435967398 L 556.0859375000001 480.2687435967398 L 559.60546875 480.2687435967398 L 563.125 480.2687435967398 L 566.64453125 480.2687435967398 L 570.1640625 480.2687435967398 L 573.68359375 480.2687435967398 L 577.2031249999999 480.2687435967398 L 580.7226562500001 480.2687435967398 L 584.2421875 480.2687435967398 L 587.76171875 480.2687435967398 L 591.28125 480.2687435967398 L 594.80078125 480.2687435967398 L 596.560546875 480.2687435967398 M 596.6842803955078 575.7222385252255 L 596.6980285644531 575.7222385252255 L 597.4404296875 575.7222385252255 L 598.3203125 575.7222385252255 L 601.8398437499999 575.7222385252255 L 605.3593750000001 575.7222385252255 L 608.87890625 575.7222385252255 L 612.3984375 575.7222385252255 L 615.91796875 575.7222385252255 L 619.4375 575.7222385252255 L 622.95703125 575.7222385252255 L 626.4765624999999 575.7222385252255 L 629.9960937500001 575.7222385252255 L 633.515625 575.7222385252255 L 637.03515625 575.7222385252255 L 640.5546875 575.7222385252255 L 644.07421875 575.7222385252255 L 647.5937499999999 575.7222385252255 L 651.1132812499999 575.7222385252255 L 654.6328125000001 575.7222385252255 L 658.15234375 575.7222385252255 L 661.671875 575.7222385252255 L 665.19140625 575.7222385252255 L 668.7109375 575.7222385252255 L 672.2304687499999 575.7222385252255 L 675.7500000000001 575.7222385252255 L 679.26953125 575.7222385252255 L 682.7890625 575.7222385252255 L 686.30859375 575.7222385252255 L 689.828125 575.7222385252255 L 693.3476562499999 575.7222385252255 L 696.8671874999999 575.7222385252255 L 700.38671875 575.7222385252255 L 703.90625 575.7222385252255 L 707.42578125 575.7222385252255 L 710.9453125 575.7222385252255 L 714.46484375 575.7222385252255 L 717.9843749999999 575.7222385252255 L 721.5039062499999 575.7222385252255 L 725.0234375 575.7222385252255 L 728.54296875 575.7222385252255 L 732.0625 575.7222385252255 L 735.58203125 575.7222385252255 L 739.1015625 575.7222385252255 L 742.6210937499999 575.7222385252255 L 746.1406249999999 575.7222385252255 L 749.66015625 575.7222385252255 L 753.1796875 575.7222385252255 L 756.69921875 575.7222385252255 L 760.21875 575.7222385252255 L 763.73828125 575.7222385252255 L 767.2578125000001 575.7222385252255 L 770.7773437500001 575.7222385252255 L 774.296875 575.7222385252255 L 777.81640625 575.7222385252255 L 781.3359375 575.7222385252255 L 784.85546875 575.7222385252255 L 788.375 575.7222385252255 L 791.8945312500001 575.7222385252255 L 795.4140625000001 575.7222385252255 L 798.93359375 575.7222385252255 L 802.453125 575.7222385252255 L 805.97265625 575.7222385252255 L 809.4921875 575.7222385252255 L 813.01171875 575.7222385252255 L 816.5312500000001 575.7222385252255 L 820.0507812500001 575.7222385252255 L 823.5703125 575.7222385252255 L 827.08984375 575.7222385252255 L 830.609375 575.7222385252255 L 834.12890625 575.7222385252255 L 837.6484375 575.7222385252255 L 841.1679687500001 575.7222385252255 L 844.6875000000001 575.7222385252255 L 848.20703125 575.7222385252255 L 851.7265625 575.7222385252255 L 855.24609375 575.7222385252255 L 858.765625 575.7222385252255 L 862.2851562499999 575.7222385252255 L 865.8046875000001 575.7222385252255 L 869.3242187500001 575.7222385252255 L 872.84375 575.7222385252255 L 876.36328125 575.7222385252255 L 879.8828125 575.7222385252255 L 883.40234375 575.7222385252255 L 886.9218749999999 575.7222385252255 L 890.4414062500001 575.7222385252255 L 893.9609375000001 575.7222385252255 L 897.48046875 575.7222385252255 L 900.9999999999999 575.7222385252255" stroke-opacity="0.8" stroke-linecap="round" stroke-linejoin="round" stroke-miterlimit="10" stroke-width="2.5"/><path fill="none" stroke="rgb(21,101,192)" paint-order="fill stroke markers" d=" M 0 575.7222385252255 L 3.51953125 575.7222385252255 L 7.0390625 575.7222385252255 L 10.558593750000028 575.7222385252255 L 14.078125000000028 575.7222385252255 L 17.59765625000003 575.7222385252255 L 21.1171875 575.7222385252255 L 24.63671875 575.7222385252255 L 28.15625 575.7222385252255 L 31.67578125 575.7222385252255 L 35.195312500000014 575.7222385252255 L 38.714843750000014 575.7222385252255 L 42.234375000000014 575.7222385252255 L 45.753906250000014 575.7222385252255 L 49.273437500000014 575.7222385252255 L 52.79296875000003 575.7222385252255 L 56.3125 575.7222385252255 L 59.832031250000014 575.7222385252255 L 63.351562500000014 575.7222385252255 L 66.87109375000001 575.7222385252255 L 70.39062500000001 575.7222385252255 L 73.91015625000001 575.7222385252255 L 77.42968750000001 575.7222385252255 L 80.94921875000001 575.7222385252255 L 84.46875000000001 575.7222385252255 L 87.98828125000001 575.7222385252255 L 91.50781250000001 575.7222385252255 L 95.02734375 575.7222385252255 L 98.546875 575.7222385252255 L 102.06640625000003 575.7222385252255 L 105.58593750000001 575.7222385252255 L 109.10546875000001 575.7222385252255 L 112.625 575.7222385252255 L 116.14453125 575.7222385252255 L 119.6640625 575.7222385252255 L 123.18359375 575.7222385252255 L 126.70312500000001 575.7222385252255 L 130.22265625 575.7222385252255 L 133.7421875 575.7222385252255 L 137.26171875 575.7222385252255 L 140.78125 575.7222385252255 L 144.30078125 575.7222385252255 L 147.82031250000003 575.7222385252255 L 151.33984375000003 575.7222385252255 L 154.859375 575.7222385252255 L 158.37890625 575.7222385252255 L 161.8984375 575.7222385252255 L 165.41796875 575.7222385252255 L 168.93750000000003 575.7222385252255 L 172.45703125000003 575.7222385252255 L 175.9765625 575.7222385252255 L 179.49609375 575.7222385252255 L 183.015625 575.7222385252255 L 186.53515625 575.7222385252255 L 190.0546875 575.7222385252255 L 193.57421875 575.7222385252255 L 197.09375 575.7222385252255 L 200.61328125 575.7222385252255 L 204.13281250000003 575.7222385252255 L 207.65234375 575.7222385252255 L 211.17187500000003 575.7222385252255 L 214.69140625 575.7222385252255 L 215.5712890625 575.3693753523493 L 216.45117187500003 574.9294339460993 L 218.2109375 574.0495511335993 L 221.73046875 572.2897855085993 L 225.25 570.5300198835993 L 228.76953125000003 568.7702542585993 L 232.2890625 567.0104886335993 L 235.80859375 565.2507230085993 L 239.328125 563.4909573835994 L 242.84765625 561.7311917585994 L 246.3671875 559.9714261335994 L 249.88671875 558.2116605085994 L 253.40625000000003 556.4518948835994 L 256.92578125 554.6921292585994 L 260.4453125 552.9323636335994 L 263.96484375 551.1725980085994 L 267.484375 549.4128323835994 L 271.00390625 547.6530667585994 L 274.5234375 545.8933011335994 L 278.04296875 544.1335355085994 L 281.5625 542.3737698835994 L 285.08203125 540.6140042585994 L 288.6015625 538.8542386335994 L 292.12109375 537.0944730085994 L 295.640625 535.3347073835994 L 299.16015625 533.5749417585995 L 302.6796875 531.8151761335995 L 306.19921875 530.0554105085995 L 309.71875 528.2956448835995 L 313.23828125 526.5358792585995 L 316.7578125 524.7761136335995 L 320.27734375 523.0163480085995 L 323.796875 521.2565823835995 L 327.31640625 519.4968167585995 L 330.8359375 517.7370511335995 L 334.35546875 515.9772855085995 L 337.875 514.2175198835995 L 341.39453125 512.4577542585995 L 344.9140625 510.69798863359955 L 348.43359375 508.93822300859955 L 351.953125 507.17845738359955 L 355.47265625 505.41869175859955 L 358.9921875 503.65892613359955 L 362.51171875 501.89916050859955 L 366.03125 500.1393948835996 L 369.55078125 498.3796292585996 L 373.0703125 496.6198636335996 L 376.58984375 494.8600980085996 L 380.109375 493.1003323835996 L 383.62890625000006 491.3405667585996 L 387.1484375 489.5808011335996 L 390.66796875 487.8210355085996 L 394.1875 486.06126988359966 L 397.70703125 484.3015042585996 L 401.2265625 482.54173863359966 L 404.74609375 480.78197300859966 L 408.26562500000006 479.0222073835996 L 411.78515625 477.26244175859966 L 415.3046875 475.50267613359966 L 418.82421875 473.7429105085997 L 422.34375 471.98314488359966 L 425.86328125 470.2233792585997 L 429.3828125 468.4636136335997 L 432.90234375 466.7038480085997 L 436.421875 464.9440823835997 L 439.94140625 463.1843167585997 L 443.4609375 461.4245511335997 L 446.98046875 459.6647855085997 L 450.5 457.9050198835997 L 454.01953125 456.1452542585998 L 457.5390625 454.3854886335997 L 461.05859375 452.6257230085997 L 464.578125 450.8659573835998 L 468.09765625 449.1061917585998 L 471.6171875 447.3464261335998 L 475.13671875 445.5866605085998 L 478.65625 443.82689488359983 L 482.17578125 442.0671292585998 L 485.6953125 440.30736363359983 L 489.21484375 438.54759800859983 L 492.734375 436.78783238359983 L 496.25390625 435.02806675859983 L 499.7734375 433.26830113359983 L 503.29296875 431.50853550859983 L 506.8125 429.74876988359983 L 510.33203125 427.98900425859983 L 513.8515625 426.22923863359983 L 517.37109375 424.4694730085999 L 520.890625 422.70970738359983 L 524.41015625 420.9499417585999 L 527.9296875 419.19017613359995 L 531.44921875 417.4304105085999 L 534.96875 415.67064488359995 L 538.48828125 413.91087925859995 L 542.0078125 412.15111363359995 L 545.52734375 410.39134800859995 L 549.046875 408.63158238359995 L 552.5664062499999 406.87181675859995 L 556.0859375000001 405.11205113359995 L 559.60546875 403.35228550859995 L 563.125 401.59251988359995 L 566.64453125 399.83275425859995 L 570.1640625 398.0729886336 L 573.68359375 396.3132230086 L 577.2031249999999 394.55345738360006 L 580.7226562500001 392.79369175859995 L 584.2421875 391.03392613359995 L 587.76171875 389.2741605086 L 591.28125 387.51439488360006 L 594.80078125 385.75462925860006 L 596.560546875 384.87474644610006 L 597.4404296875 384.81524866825407 L 598.3203125 384.81524866825407 L 601.8398437499999 384.81524866825407 L 605.3593750000001 384.81524866825407 L 608.87890625 384.81524866825407 L 612.3984375 384.81524866825407 L 615.91796875 384.81524866825407 L 619.4375 384.81524866825407 L 622.95703125 384.81524866825407 L 626.4765624999999 384.81524866825407 L 629.9960937500001 384.81524866825407 L 633.515625 384.81524866825407 L 637.03515625 384.81524866825407 L 640.5546875 384.81524866825407 L 644.07421875 384.81524866825407 L 647.5937499999999 384.81524866825407 L 651.1132812499999 384.81524866825407 L 654.6328125000001 384.81524866825407 L 658.15234375 384.81524866825407 L 661.671875 384.81524866825407 L 665.19140625 384.81524866825407 L 668.7109375 384.81524866825407 L 672.2304687499999 384.81524866825407 L 675.7500000000001 384.81524866825407 L 679.26953125 384.81524866825407 L 682.7890625 384.81524866825407 L 686.30859375 384.81524866825407 L 689.828125 384.81524866825407 L 693.3476562499999 384.81524866825407 L 696.8671874999999 384.81524866825407 L 700.38671875 384.81524866825407 L 703.90625 384.81524866825407 L 707.42578125 384.81524866825407 L 710.9453125 384.81524866825407 L 714.46484375 384.81524866825407 L 717.9843749999999 384.81524866825407 L 721.5039062499999 384.81524866825407 L 725.0234375 384.81524866825407 L 728.54296875 384.81524866825407 L 732.0625 384.81524866825407 L 735.58203125 384.81524866825407 L 739.1015625 384.81524866825407 L 742.6210937499999 384.81524866825407 L 746.1406249999999 384.81524866825407 L 749.66015625 384.81524866825407 L 753.1796875 384.81524866825407 L 756.69921875 384.81524866825407 L 760.21875 384.81524866825407 L 763.73828125 384.81524866825407 L 767.2578125000001 384.81524866825407 L 770.7773437500001 384.81524866825407 L 774.296875 384.81524866825407 L 777.81640625 384.81524866825407 L 781.3359375 384.81524866825407 L 784.85546875 384.81524866825407 L 788.375 384.81524866825407 L 791.8945312500001 384.81524866825407 L 795.4140625000001 384.81524866825407 L 798.93359375 384.81524866825407 L 802.453125 384.81524866825407 L 805.97265625 384.81524866825407 L 809.4921875 384.81524866825407 L 813.01171875 384.81524866825407 L 816.5312500000001 384.81524866825407 L 820.0507812500001 384.81524866825407 L 823.5703125 384.81524866825407 L 827.08984375 384.81524866825407 L 830.609375 384.81524866825407 L 834.12890625 384.81524866825407 L 837.6484375 384.81524866825407 L 841.1679687500001 384.81524866825407 L 844.6875000000001 384.81524866825407 L 848.20703125 384.81524866825407 L 851.7265625 384.81524866825407 L 855.24609375 384.81524866825407 L 858.765625 384.81524866825407 L 862.2851562499999 384.81524866825407 L 865.8046875000001 384.81524866825407 L 869.3242187500001 384.81524866825407 L 872.84375 384.81524866825407 L 876.36328125 384.81524866825407 L 879.8828125 384.81524866825407 L 883.40234375 384.81524866825407 L 886.9218749999999 384.81524866825407 L 890.4414062500001 384.81524866825407 L 893.9609375000001 384.81524866825407 L 897.48046875 384.81524866825407 L 900.9999999999999 384.81524866825407" stroke-opacity="0.8" stroke-linecap="round" stroke-linejoin="round" stroke-miterlimit="10" stroke-width="2.5"/><path fill="none" stroke="rgb(0,0,0)" paint-order="fill stroke markers" d=" M 38.5 98.5 L 238.5 98.5" stroke-opacity="0.39215686274509803" stroke-linecap="round" stroke-linejoin="round" stroke-miterlimit="10" stroke-width="5"/><path fill="rgb(0,0,0)" stroke="none" paint-order="stroke fill markers" d=" M 153.00000000000003 98.5 C 153.00000000000003 103.19442037356174 149.19442037356177 107 144.50000000000003 107 C 139.8055796264383 107 136.00000000000003 103.19442037356174 136.00000000000003 98.5 C 136.00000000000003 93.80557962643826 139.8055796264383 90 144.50000000000003 90 C 149.19442037356177 90 153.00000000000003 93.80557962643826 153.00000000000003 98.5 Z" fill-opacity="0.39215686274509803"/><path fill="none" stroke="rgb(0,0,0)" paint-order="fill stroke markers" d=" M 153.00000000000003 98.5 C 153.00000000000003 103.19442037356174 149.19442037356177 107 144.50000000000003 107 C 139.8055796264383 107 136.00000000000003 103.19442037356174 136.00000000000003 98.5 C 136.00000000000003 93.80557962643826 139.8055796264383 90 144.50000000000003 90 C 149.19442037356177 90 153.00000000000003 93.80557962643826 153.00000000000003 98.5 Z" stroke-opacity="0.39215686274509803" stroke-linecap="round" stroke-linejoin="round" stroke-miterlimit="10"/><path fill="rgb(0,0,0)" stroke="none" paint-order="stroke fill markers" d=" M 150.00000000000003 98.5 C 150.00000000000003 101.53756612406936 147.5375661240694 104 144.50000000000003 104 C 141.46243387593066 104 139.00000000000003 101.53756612406936 139.00000000000003 98.5 C 139.00000000000003 95.46243387593064 141.46243387593066 93 144.50000000000003 93 C 147.5375661240694 93 150.00000000000003 95.46243387593064 150.00000000000003 98.5 Z" fill-opacity="1"/><path fill="none" stroke="rgb(0,0,0)" paint-order="fill stroke markers" d=" M 150.00000000000003 98.5 C 150.00000000000003 101.53756612406936 147.5375661240694 104 144.50000000000003 104 C 141.46243387593066 104 139.00000000000003 101.53756612406936 139.00000000000003 98.5 C 139.00000000000003 95.46243387593064 141.46243387593066 93 144.50000000000003 93 C 147.5375661240694 93 150.00000000000003 95.46243387593064 150.00000000000003 98.5 Z" stroke-opacity="1" stroke-linecap="round" stroke-linejoin="round" stroke-miterlimit="10"/><text fill="rgb(0,0,0)" stroke="none" font-family="geogebra-sans-serif, sans-serif" font-size="16px" font-style="normal" font-weight="normal" text-decoration="normal" x="133" y="83" text-anchor="start" dominant-baseline="alphabetic" fill-opacity="1">a = 0.3</text><text fill="none" stroke="rgb(255,255,255)" font-family="geogebra-sans-serif, sans-serif" font-size="16px" font-style="normal" font-weight="normal" text-decoration="normal" x="133" y="83" text-anchor="start" dominant-baseline="alphabetic" stroke-opacity="1" stroke-linejoin="bevel" stroke-miterlimit="10" stroke-width="3">a = 0.3</text><text fill="rgb(0,0,0)" stroke="none" font-family="geogebra-sans-serif, sans-serif" font-size="16px" font-style="normal" font-weight="normal" text-decoration="normal" x="133" y="83" text-anchor="start" dominant-baseline="alphabetic" fill-opacity="1">a = 0.3</text><path fill="none" stroke="rgb(0,0,0)" paint-order="fill stroke markers" d=" M 38.5 138.5 L 238.5 138.5" stroke-opacity="0.39215686274509803" stroke-linecap="round" stroke-linejoin="round" stroke-miterlimit="10" stroke-width="5"/><path fill="rgb(0,0,0)" stroke="none" paint-order="stroke fill markers" d=" M 193 138.5 C 193 143.19442037356174 189.19442037356174 147 184.5 147 C 179.80557962643826 147 176 143.19442037356174 176 138.5 C 176 133.80557962643826 179.80557962643826 130 184.5 130 C 189.19442037356174 130 193 133.80557962643826 193 138.5 Z" fill-opacity="0.39215686274509803"/><path fill="none" stroke="rgb(0,0,0)" paint-order="fill stroke markers" d=" M 193 138.5 C 193 143.19442037356174 189.19442037356174 147 184.5 147 C 179.80557962643826 147 176 143.19442037356174 176 138.5 C 176 133.80557962643826 179.80557962643826 130 184.5 130 C 189.19442037356174 130 193 133.80557962643826 193 138.5 Z" stroke-opacity="0.39215686274509803" stroke-linecap="round" stroke-linejoin="round" stroke-miterlimit="10"/><path fill="rgb(0,0,0)" stroke="none" paint-order="stroke fill markers" d=" M 190 138.5 C 190 141.53756612406937 187.53756612406937 144 184.5 144 C 181.46243387593063 144 179 141.53756612406937 179 138.5 C 179 135.46243387593063 181.46243387593063 133 184.5 133 C 187.53756612406937 133 190 135.46243387593063 190 138.5 Z" fill-opacity="1"/><path fill="none" stroke="rgb(0,0,0)" paint-order="fill stroke markers" d=" M 190 138.5 C 190 141.53756612406937 187.53756612406937 144 184.5 144 C 181.46243387593063 144 179 141.53756612406937 179 138.5 C 179 135.46243387593063 181.46243387593063 133 184.5 133 C 187.53756612406937 133 190 135.46243387593063 190 138.5 Z" stroke-opacity="1" stroke-linecap="round" stroke-linejoin="round" stroke-miterlimit="10"/><text fill="rgb(0,0,0)" stroke="none" font-family="geogebra-sans-serif, sans-serif" font-size="16px" font-style="normal" font-weight="normal" text-decoration="normal" x="173" y="123" text-anchor="start" dominant-baseline="alphabetic" fill-opacity="1">b = 2.3</text><text fill="none" stroke="rgb(255,255,255)" font-family="geogebra-sans-serif, sans-serif" font-size="16px" font-style="normal" font-weight="normal" text-decoration="normal" x="173" y="123" text-anchor="start" dominant-baseline="alphabetic" stroke-opacity="1" stroke-linejoin="bevel" stroke-miterlimit="10" stroke-width="3">b = 2.3</text><text fill="rgb(0,0,0)" stroke="none" font-family="geogebra-sans-serif, sans-serif" font-size="16px" font-style="normal" font-weight="normal" text-decoration="normal" x="173" y="123" text-anchor="start" dominant-baseline="alphabetic" fill-opacity="1">b = 2.3</text><path fill="rgb(211,47,47)" stroke="none" paint-order="stroke fill markers" d=" M 220 576 C 220 578.761423749154 217.76142374915398 581 215 581 C 212.23857625084602 581 210 578.761423749154 210 576 C 210 573.238576250846 212.23857625084602 571 215 571 C 217.76142374915398 571 220 573.238576250846 220 576 Z" fill-opacity="1"/><path fill="none" stroke="rgb(0,0,0)" paint-order="fill stroke markers" d=" M 220 576 C 220 578.761423749154 217.76142374915398 581 215 581 C 212.23857625084602 581 210 578.761423749154 210 576 C 210 573.238576250846 212.23857625084602 571 215 571 C 217.76142374915398 571 220 573.238576250846 220 576 Z" stroke-opacity="1" stroke-linecap="round" stroke-linejoin="round" stroke-miterlimit="10"/><text fill="rgb(211,47,47)" stroke="none" font-family="geogebra-sans-serif, sans-serif" font-size="16px" font-style="normal" font-weight="normal" text-decoration="normal" x="219" y="566" text-anchor="start" dominant-baseline="alphabetic" fill-opacity="1">A</text><text fill="none" stroke="rgb(255,255,255)" font-family="geogebra-sans-serif, sans-serif" font-size="16px" font-style="normal" font-weight="normal" text-decoration="normal" x="219" y="566" text-anchor="start" dominant-baseline="alphabetic" stroke-opacity="1" stroke-linejoin="bevel" stroke-miterlimit="10" stroke-width="3">A</text><text fill="rgb(211,47,47)" stroke="none" font-family="geogebra-sans-serif, sans-serif" font-size="16px" font-style="normal" font-weight="normal" text-decoration="normal" x="219" y="566" text-anchor="start" dominant-baseline="alphabetic" fill-opacity="1">A</text><path fill="rgb(211,47,47)" stroke="none" paint-order="stroke fill markers" d=" M 599 577 C 599 579.761423749154 596.761423749154 582 594 582 C 591.238576250846 582 589 579.761423749154 589 577 C 589 574.238576250846 591.238576250846 572 594 572 C 596.761423749154 572 599 574.238576250846 599 577 Z" fill-opacity="1"/><path fill="none" stroke="rgb(0,0,0)" paint-order="fill stroke markers" d=" M 599 577 C 599 579.761423749154 596.761423749154 582 594 582 C 591.238576250846 582 589 579.761423749154 589 577 C 589 574.238576250846 591.238576250846 572 594 572 C 596.761423749154 572 599 574.238576250846 599 577 Z" stroke-opacity="1" stroke-linecap="round" stroke-linejoin="round" stroke-miterlimit="10"/><text fill="rgb(211,47,47)" stroke="none" font-family="geogebra-sans-serif, sans-serif" font-size="16px" font-style="normal" font-weight="normal" text-decoration="normal" x="598" y="567" text-anchor="start" dominant-baseline="alphabetic" fill-opacity="1">B</text><text fill="none" stroke="rgb(255,255,255)" font-family="geogebra-sans-serif, sans-serif" font-size="16px" font-style="normal" font-weight="normal" text-decoration="normal" x="598" y="567" text-anchor="start" dominant-baseline="alphabetic" stroke-opacity="1" stroke-linejoin="bevel" stroke-miterlimit="10" stroke-width="3">B</text><text fill="rgb(211,47,47)" stroke="none" font-family="geogebra-sans-serif, sans-serif" font-size="16px" font-style="normal" font-weight="normal" text-decoration="normal" x="598" y="567" text-anchor="start" dominant-baseline="alphabetic" fill-opacity="1">B</text><g transform="scale(35,35)"><g transform="translate(5.857142857142857,17.316714285714287)"><path fill="rgb(211,47,47)" stroke="none" paint-order="stroke fill markers" d=" M 0.373 -0.378 Q 0.378 -0.41200000000000003 0.404 -0.42 Q 0.40900000000000003 -0.422 0.41500000000000004 -0.422 Q 0.441 -0.422 0.444 -0.395 Q 0.444 -0.389 0.437 -0.361 L 0.401 -0.221 Q 0.386 -0.158 0.379 -0.131 Q 0.366 -0.079 0.366 -0.057 Q 0.366 -0.011 0.396 -0.011 Q 0.434 -0.011 0.46 -0.091 Q 0.465 -0.108 0.47200000000000003 -0.135 Q 0.48 -0.152 0.486 -0.153 Q 0.498 -0.153 0.498 -0.14300000000000002 Q 0.498 -0.128 0.48 -0.073 Q 0.47400000000000003 -0.056 0.468 -0.044 Q 0.44 0.011 0.394 0.011 Q 0.338 0.011 0.313 -0.037 Q 0.306 -0.049 0.303 -0.064 Q 0.24 0.011 0.17300000000000001 0.011 Q 0.098 0.011 0.062 -0.057 Q 0.04 -0.097 0.04 -0.149 Q 0.04 -0.257 0.115 -0.34900000000000003 Q 0.185 -0.433 0.267 -0.441 Q 0.274 -0.442 0.281 -0.442 Q 0.342 -0.442 0.373 -0.378 M 0.308 -0.11900000000000001 L 0.308 -0.11900000000000001 L 0.358 -0.315 Q 0.361 -0.33 0.361 -0.332 Q 0.361 -0.353 0.343 -0.383 Q 0.321 -0.42 0.28200000000000003 -0.42 Q 0.23 -0.42 0.183 -0.352 Q 0.17400000000000002 -0.339 0.166 -0.324 Q 0.137 -0.266 0.117 -0.159 Q 0.111 -0.125 0.111 -0.105 Q 0.111 -0.037 0.149 -0.017 Q 0.16 -0.011 0.17500000000000002 -0.011 Q 0.231 -0.011 0.28800000000000003 -0.082 Q 0.302 -0.098 0.307 -0.115 L 0.307 -0.116 Q 0.308 -0.11800000000000001 0.308 -0.11900000000000001 Z"/></g></g><g transform="scale(35,35)"><g transform="translate(16.771428571428572,17.46542857142857)"><path fill="rgb(211,47,47)" stroke="none" paint-order="stroke fill markers" d=" M 0.23900000000000002 -0.683 L 0.165 -0.382 Q 0.223 -0.442 0.28200000000000003 -0.442 Q 0.357 -0.442 0.394 -0.373 Q 0.41500000000000004 -0.333 0.41500000000000004 -0.28200000000000003 Q 0.41500000000000004 -0.176 0.341 -0.084 Q 0.272 0.001 0.189 0.01 Q 0.181 0.011 0.17400000000000002 0.011 Q 0.10200000000000001 0.011 0.067 -0.056 Q 0.047 -0.094 0.047 -0.146 Q 0.047 -0.18 0.063 -0.247 L 0.145 -0.5730000000000001 Q 0.159 -0.632 0.159 -0.635 Q 0.159 -0.646 0.145 -0.649 L 0.145 -0.649 Q 0.133 -0.652 0.109 -0.652 Q 0.08700000000000001 -0.652 0.085 -0.664 Q 0.085 -0.681 0.10400000000000001 -0.684 L 0.226 -0.6940000000000001 Q 0.23900000000000002 -0.6940000000000001 0.23900000000000002 -0.683 M 0.145 -0.305 L 0.123 -0.213 Q 0.107 -0.15 0.107 -0.112 Q 0.107 -0.026000000000000002 0.159 -0.013000000000000001 Q 0.166 -0.011 0.17400000000000002 -0.011 Q 0.227 -0.011 0.273 -0.081 Q 0.28300000000000003 -0.096 0.292 -0.114 Q 0.319 -0.171 0.337 -0.268 Q 0.343 -0.303 0.343 -0.326 Q 0.343 -0.406 0.294 -0.418 L 0.293 -0.419 Q 0.28700000000000003 -0.42 0.28 -0.42 Q 0.22 -0.42 0.16 -0.34 Q 0.152 -0.33 0.145 -0.305 Z"/></g></g><path fill="rgb(101,87,210)" stroke="none" paint-order="stroke fill markers" fill-rule="evenodd" d=" M 760.5 384 L 813.5 384 C 815.4329966244078 384 817 385.5670033755922 817 387.5 L 817 414.5 C 817 416.4329966244078 815.4329966244078 418 813.5 418 L 760.5 418 C 758.5670033755922 418 757 416.4329966244078 757 414.5 L 757 387.5 C 757 385.5670033755922 758.5670033755922 384 760.5 384 Z" fill-opacity="1"/><path fill="none" stroke="rgb(70,60,147)" paint-order="fill stroke markers" d=" M 760.5 384 L 813.5 384 C 815.4329966244078 384 817 385.5670033755922 817 387.5 L 817 414.5 C 817 416.4329966244078 815.4329966244078 418 813.5 418 L 760.5 418 C 758.5670033755922 418 757 416.4329966244078 757 414.5 L 757 387.5 C 757 385.5670033755922 758.5670033755922 384 760.5 384 Z" stroke-opacity="1" stroke-linecap="round" stroke-linejoin="round" stroke-miterlimit="10"/><text fill="rgb(255,255,255)" stroke="none" font-family="geogebra-sans-serif, sans-serif" font-size="24px" font-style="normal" font-weight="normal" text-decoration="normal" x="767" y="411" text-anchor="start" dominant-baseline="alphabetic" fill-opacity="1">F(x)</text><path fill="rgb(101,87,210)" stroke="none" paint-order="stroke fill markers" fill-rule="evenodd" d=" M 465.5 479 L 514.5 479 C 516.4329966244078 479 518 480.5670033755922 518 482.5 L 518 509.5 C 518 511.4329966244078 516.4329966244078 513 514.5 513 L 465.5 513 C 463.5670033755922 513 462 511.4329966244078 462 509.5 L 462 482.5 C 462 480.5670033755922 463.5670033755922 479 465.5 479 Z" fill-opacity="1"/><path fill="none" stroke="rgb(70,60,147)" paint-order="fill stroke markers" d=" M 465.5 479 L 514.5 479 C 516.4329966244078 479 518 480.5670033755922 518 482.5 L 518 509.5 C 518 511.4329966244078 516.4329966244078 513 514.5 513 L 465.5 513 C 463.5670033755922 513 462 511.4329966244078 462 509.5 L 462 482.5 C 462 480.5670033755922 463.5670033755922 479 465.5 479 Z" stroke-opacity="1" stroke-linecap="round" stroke-linejoin="round" stroke-miterlimit="10"/><text fill="rgb(255,255,255)" stroke="none" font-family="geogebra-sans-serif, sans-serif" font-size="24px" font-style="normal" font-weight="normal" text-decoration="normal" x="472" y="506" text-anchor="start" dominant-baseline="alphabetic" fill-opacity="1">f(x)</text></g></g></svg>