<svg version="1.1" xmlns="http://www.w3.org/2000/svg" xmlns:xlink="http://www.w3.org/1999/xlink" width="909" height="851"><defs><clipPath id="IivdspMTOMkl"><path fill="none" stroke="none" d=" M 0 0 L 909 0 L 909 851 L 0 851 L 0 0 Z"/></clipPath></defs><g transform="scale(1,1)" clip-path="url(#IivdspMTOMkl)"><g><rect fill="rgb(255,255,255)" stroke="none" x="0" y="0" width="909" height="851" fill-opacity="1"/><path fill="none" stroke="rgb(192,192,192)" paint-order="fill stroke markers" d=" M 62.5 0.5 L 62.5 851.5 M 62.5 0.5 L 62.5 851.5 M 253.5 0.5 L 253.5 851.5 M 348.5 0.5 L 348.5 851.5 M 443.5 0.5 L 443.5 851.5 M 539.5 0.5 L 539.5 851.5 M 634.5 0.5 L 634.5 851.5 M 730.5 0.5 L 730.5 851.5 M 825.5 0.5 L 825.5 851.5" stroke-opacity="1" stroke-linecap="round" stroke-linejoin="round" stroke-miterlimit="10"/><path fill="none" stroke="rgb(192,192,192)" paint-order="fill stroke markers" d=" M 4.5 0.5 L 4.5 851.5 M 23.5 0.5 L 23.5 851.5 M 43.5 0.5 L 43.5 851.5 M 81.5 0.5 L 81.5 851.5 M 100.5 0.5 L 100.5 851.5 M 119.5 0.5 L 119.5 851.5 M 138.5 0.5 L 138.5 851.5 M 176.5 0.5 L 176.5 851.5 M 195.5 0.5 L 195.5 851.5 M 214.5 0.5 L 214.5 851.5 M 233.5 0.5 L 233.5 851.5 M 272.5 0.5 L 272.5 851.5 M 291.5 0.5 L 291.5 851.5 M 310.5 0.5 L 310.5 851.5 M 329.5 0.5 L 329.5 851.5 M 367.5 0.5 L 367.5 851.5 M 386.5 0.5 L 386.5 851.5 M 405.5 0.5 L 405.5 851.5 M 424.5 0.5 L 424.5 851.5 M 463.5 0.5 L 463.5 851.5 M 482.5 0.5 L 482.5 851.5 M 501.5 0.5 L 501.5 851.5 M 520.5 0.5 L 520.5 851.5 M 558.5 0.5 L 558.5 851.5 M 577.5 0.5 L 577.5 851.5 M 596.5 0.5 L 596.5 851.5 M 615.5 0.5 L 615.5 851.5 M 653.5 0.5 L 653.5 851.5 M 673.5 0.5 L 673.5 851.5 M 692.5 0.5 L 692.5 851.5 M 711.5 0.5 L 711.5 851.5 M 749.5 0.5 L 749.5 851.5 M 768.5 0.5 L 768.5 851.5 M 787.5 0.5 L 787.5 851.5 M 806.5 0.5 L 806.5 851.5 M 844.5 0.5 L 844.5 851.5 M 863.5 0.5 L 863.5 851.5 M 883.5 0.5 L 883.5 851.5 M 902.5 0.5 L 902.5 851.5" stroke-opacity="0.23529411764705882" stroke-linecap="round" stroke-linejoin="round" stroke-miterlimit="10"/><path fill="none" stroke="rgb(192,192,192)" paint-order="fill stroke markers" d=" M 0.5 3.5 L 909.5 3.5 M 0.5 3.5 L 909.5 3.5 M 0.5 98.5 L 909.5 98.5 M 0.5 193.5 L 909.5 193.5 M 0.5 289.5 L 909.5 289.5 M 0.5 384.5 L 909.5 384.5 M 0.5 480.5 L 909.5 480.5 M 0.5 671.5 L 909.5 671.5 M 0.5 766.5 L 909.5 766.5" stroke-opacity="1" stroke-linecap="round" stroke-linejoin="round" stroke-miterlimit="10"/><path fill="none" stroke="rgb(192,192,192)" paint-order="fill stroke markers" d=" M 0.5 3.5 L 909.5 3.5 M 0.5 22.5 L 909.5 22.5 M 0.5 41.5 L 909.5 41.5 M 0.5 60.5 L 909.5 60.5 M 0.5 79.5 L 909.5 79.5 M 0.5 117.5 L 909.5 117.5 M 0.5 136.5 L 909.5 136.5 M 0.5 155.5 L 909.5 155.5 M 0.5 174.5 L 909.5 174.5 M 0.5 212.5 L 909.5 212.5 M 0.5 232.5 L 909.5 232.5 M 0.5 251.5 L 909.5 251.5 M 0.5 270.5 L 909.5 270.5 M 0.5 308.5 L 909.5 308.5 M 0.5 327.5 L 909.5 327.5 M 0.5 346.5 L 909.5 346.5 M 0.5 365.5 L 909.5 365.5 M 0.5 403.5 L 909.5 403.5 M 0.5 422.5 L 909.5 422.5 M 0.5 442.5 L 909.5 442.5 M 0.5 461.5 L 909.5 461.5 M 0.5 499.5 L 909.5 499.5 M 0.5 518.5 L 909.5 518.5 M 0.5 537.5 L 909.5 537.5 M 0.5 556.5 L 909.5 556.5 M 0.5 594.5 L 909.5 594.5 M 0.5 613.5 L 909.5 613.5 M 0.5 632.5 L 909.5 632.5 M 0.5 652.5 L 909.5 652.5 M 0.5 690.5 L 909.5 690.5 M 0.5 709.5 L 909.5 709.5 M 0.5 728.5 L 909.5 728.5 M 0.5 747.5 L 909.5 747.5 M 0.5 785.5 L 909.5 785.5 M 0.5 804.5 L 909.5 804.5 M 0.5 823.5 L 909.5 823.5 M 0.5 842.5 L 909.5 842.5" stroke-opacity="0.23529411764705882" stroke-linecap="round" stroke-linejoin="round" stroke-miterlimit="10"/><path fill="none" stroke="rgb(37,37,37)" paint-order="fill stroke markers" d=" M 157.5 2.5 L 157.5 851.5" stroke-opacity="1" stroke-miterlimit="10"/><path fill="none" stroke="rgb(37,37,37)" paint-order="fill stroke markers" d=" M 157.5 1.5 L 153.5 5.5" stroke-opacity="1" stroke-miterlimit="10"/><path fill="none" stroke="rgb(37,37,37)" paint-order="fill stroke markers" d=" M 157.5 1.5 L 161.5 5.5" stroke-opacity="1" stroke-miterlimit="10"/><text fill="rgb(37,37,37)" stroke="none" font-family="geogebra-sans-serif, sans-serif" font-size="16px" font-style="normal" font-weight="normal" text-decoration="normal" x="891" y="571" text-anchor="start" dominant-baseline="alphabetic" fill-opacity="1">x</text><path fill="none" stroke="rgb(37,37,37)" paint-order="fill stroke markers" d=" M 0.5 575.5 L 907.5 575.5" stroke-opacity="1" stroke-miterlimit="10"/><path fill="none" stroke="rgb(37,37,37)" paint-order="fill stroke markers" d=" M 908.5 575.5 L 904.5 571.5" stroke-opacity="1" stroke-miterlimit="10"/><path fill="none" stroke="rgb(37,37,37)" paint-order="fill stroke markers" d=" M 908.5 575.5 L 904.5 579.5" stroke-opacity="1" stroke-miterlimit="10"/><text fill="rgb(37,37,37)" stroke="none" font-family="geogebra-sans-serif, sans-serif" font-size="12px" font-style="normal" font-weight="normal" text-decoration="normal" x="51" y="591" text-anchor="start" dominant-baseline="alphabetic" fill-opacity="1">–0.5</text><text fill="none" stroke="rgb(255,255,255)" font-family="geogebra-sans-serif, sans-serif" font-size="12px" font-style="normal" font-weight="normal" text-decoration="normal" x="51" y="591" text-anchor="start" dominant-baseline="alphabetic" stroke-opacity="1" stroke-linejoin="bevel" stroke-miterlimit="10" stroke-width="3">–0.5</text><text fill="rgb(37,37,37)" stroke="none" font-family="geogebra-sans-serif, sans-serif" font-size="12px" font-style="normal" font-weight="normal" text-decoration="normal" x="51" y="591" text-anchor="start" dominant-baseline="alphabetic" fill-opacity="1">–0.5</text><text fill="rgb(37,37,37)" stroke="none" font-family="geogebra-sans-serif, sans-serif" font-size="12px" font-style="normal" font-weight="normal" text-decoration="normal" x="245" y="591" text-anchor="start" dominant-baseline="alphabetic" fill-opacity="1">0.5</text><text fill="none" stroke="rgb(255,255,255)" font-family="geogebra-sans-serif, sans-serif" font-size="12px" font-style="normal" font-weight="normal" text-decoration="normal" x="245" y="591" text-anchor="start" dominant-baseline="alphabetic" stroke-opacity="1" stroke-linejoin="bevel" stroke-miterlimit="10" stroke-width="3">0.5</text><text fill="rgb(37,37,37)" stroke="none" font-family="geogebra-sans-serif, sans-serif" font-size="12px" font-style="normal" font-weight="normal" text-decoration="normal" x="245" y="591" text-anchor="start" dominant-baseline="alphabetic" fill-opacity="1">0.5</text><text fill="rgb(37,37,37)" stroke="none" font-family="geogebra-sans-serif, sans-serif" font-size="12px" font-style="normal" font-weight="normal" text-decoration="normal" x="346" y="591" text-anchor="start" dominant-baseline="alphabetic" fill-opacity="1">1</text><text fill="none" stroke="rgb(255,255,255)" font-family="geogebra-sans-serif, sans-serif" font-size="12px" font-style="normal" font-weight="normal" text-decoration="normal" x="346" y="591" text-anchor="start" dominant-baseline="alphabetic" stroke-opacity="1" stroke-linejoin="bevel" stroke-miterlimit="10" stroke-width="3">1</text><text fill="rgb(37,37,37)" stroke="none" font-family="geogebra-sans-serif, sans-serif" font-size="12px" font-style="normal" font-weight="normal" text-decoration="normal" x="346" y="591" text-anchor="start" dominant-baseline="alphabetic" fill-opacity="1">1</text><text fill="rgb(37,37,37)" stroke="none" font-family="geogebra-sans-serif, sans-serif" font-size="12px" font-style="normal" font-weight="normal" text-decoration="normal" x="435" y="591" text-anchor="start" dominant-baseline="alphabetic" fill-opacity="1">1.5</text><text fill="none" stroke="rgb(255,255,255)" font-family="geogebra-sans-serif, sans-serif" font-size="12px" font-style="normal" font-weight="normal" text-decoration="normal" x="435" y="591" text-anchor="start" dominant-baseline="alphabetic" stroke-opacity="1" stroke-linejoin="bevel" stroke-miterlimit="10" stroke-width="3">1.5</text><text fill="rgb(37,37,37)" stroke="none" font-family="geogebra-sans-serif, sans-serif" font-size="12px" font-style="normal" font-weight="normal" text-decoration="normal" x="435" y="591" text-anchor="start" dominant-baseline="alphabetic" fill-opacity="1">1.5</text><text fill="rgb(37,37,37)" stroke="none" font-family="geogebra-sans-serif, sans-serif" font-size="12px" font-style="normal" font-weight="normal" text-decoration="normal" x="537" y="591" text-anchor="start" dominant-baseline="alphabetic" fill-opacity="1">2</text><text fill="none" stroke="rgb(255,255,255)" font-family="geogebra-sans-serif, sans-serif" font-size="12px" font-style="normal" font-weight="normal" text-decoration="normal" x="537" y="591" text-anchor="start" dominant-baseline="alphabetic" stroke-opacity="1" stroke-linejoin="bevel" stroke-miterlimit="10" stroke-width="3">2</text><text fill="rgb(37,37,37)" stroke="none" font-family="geogebra-sans-serif, sans-serif" font-size="12px" font-style="normal" font-weight="normal" text-decoration="normal" x="537" y="591" text-anchor="start" dominant-baseline="alphabetic" fill-opacity="1">2</text><text fill="rgb(37,37,37)" stroke="none" font-family="geogebra-sans-serif, sans-serif" font-size="12px" font-style="normal" font-weight="normal" text-decoration="normal" x="626" y="591" text-anchor="start" dominant-baseline="alphabetic" fill-opacity="1">2.5</text><text fill="none" stroke="rgb(255,255,255)" font-family="geogebra-sans-serif, sans-serif" font-size="12px" font-style="normal" font-weight="normal" text-decoration="normal" x="626" y="591" text-anchor="start" dominant-baseline="alphabetic" stroke-opacity="1" stroke-linejoin="bevel" stroke-miterlimit="10" stroke-width="3">2.5</text><text fill="rgb(37,37,37)" stroke="none" font-family="geogebra-sans-serif, sans-serif" font-size="12px" font-style="normal" font-weight="normal" text-decoration="normal" x="626" y="591" text-anchor="start" dominant-baseline="alphabetic" fill-opacity="1">2.5</text><text fill="rgb(37,37,37)" stroke="none" font-family="geogebra-sans-serif, sans-serif" font-size="12px" font-style="normal" font-weight="normal" text-decoration="normal" x="728" y="591" text-anchor="start" dominant-baseline="alphabetic" fill-opacity="1">3</text><text fill="none" stroke="rgb(255,255,255)" font-family="geogebra-sans-serif, sans-serif" font-size="12px" font-style="normal" font-weight="normal" text-decoration="normal" x="728" y="591" text-anchor="start" dominant-baseline="alphabetic" stroke-opacity="1" stroke-linejoin="bevel" stroke-miterlimit="10" stroke-width="3">3</text><text fill="rgb(37,37,37)" stroke="none" font-family="geogebra-sans-serif, sans-serif" font-size="12px" font-style="normal" font-weight="normal" text-decoration="normal" x="728" y="591" text-anchor="start" dominant-baseline="alphabetic" fill-opacity="1">3</text><text fill="rgb(37,37,37)" stroke="none" font-family="geogebra-sans-serif, sans-serif" font-size="12px" font-style="normal" font-weight="normal" text-decoration="normal" x="817" y="591" text-anchor="start" dominant-baseline="alphabetic" fill-opacity="1">3.5</text><text fill="none" stroke="rgb(255,255,255)" font-family="geogebra-sans-serif, sans-serif" font-size="12px" font-style="normal" font-weight="normal" text-decoration="normal" x="817" y="591" text-anchor="start" dominant-baseline="alphabetic" stroke-opacity="1" stroke-linejoin="bevel" stroke-miterlimit="10" stroke-width="3">3.5</text><text fill="rgb(37,37,37)" stroke="none" font-family="geogebra-sans-serif, sans-serif" font-size="12px" font-style="normal" font-weight="normal" text-decoration="normal" x="817" y="591" text-anchor="start" dominant-baseline="alphabetic" fill-opacity="1">3.5</text><text fill="rgb(37,37,37)" stroke="none" font-family="geogebra-sans-serif, sans-serif" font-size="12px" font-style="normal" font-weight="normal" text-decoration="normal" x="136" y="771" text-anchor="start" dominant-baseline="alphabetic" fill-opacity="1">–1</text><text fill="none" stroke="rgb(255,255,255)" font-family="geogebra-sans-serif, sans-serif" font-size="12px" font-style="normal" font-weight="normal" text-decoration="normal" x="136" y="771" text-anchor="start" dominant-baseline="alphabetic" stroke-opacity="1" stroke-linejoin="bevel" stroke-miterlimit="10" stroke-width="3">–1</text><text fill="rgb(37,37,37)" stroke="none" font-family="geogebra-sans-serif, sans-serif" font-size="12px" font-style="normal" font-weight="normal" text-decoration="normal" x="136" y="771" text-anchor="start" dominant-baseline="alphabetic" fill-opacity="1">–1</text><text fill="rgb(37,37,37)" stroke="none" font-family="geogebra-sans-serif, sans-serif" font-size="12px" font-style="normal" font-weight="normal" text-decoration="normal" x="127" y="676" text-anchor="start" dominant-baseline="alphabetic" fill-opacity="1">–0.5</text><text fill="none" stroke="rgb(255,255,255)" font-family="geogebra-sans-serif, sans-serif" font-size="12px" font-style="normal" font-weight="normal" text-decoration="normal" x="127" y="676" text-anchor="start" dominant-baseline="alphabetic" stroke-opacity="1" stroke-linejoin="bevel" stroke-miterlimit="10" stroke-width="3">–0.5</text><text fill="rgb(37,37,37)" stroke="none" font-family="geogebra-sans-serif, sans-serif" font-size="12px" font-style="normal" font-weight="normal" text-decoration="normal" x="127" y="676" text-anchor="start" dominant-baseline="alphabetic" fill-opacity="1">–0.5</text><text fill="rgb(37,37,37)" stroke="none" font-family="geogebra-sans-serif, sans-serif" font-size="12px" font-style="normal" font-weight="normal" text-decoration="normal" x="133" y="485" text-anchor="start" dominant-baseline="alphabetic" fill-opacity="1">0.5</text><text fill="none" stroke="rgb(255,255,255)" font-family="geogebra-sans-serif, sans-serif" font-size="12px" font-style="normal" font-weight="normal" text-decoration="normal" x="133" y="485" text-anchor="start" dominant-baseline="alphabetic" stroke-opacity="1" stroke-linejoin="bevel" stroke-miterlimit="10" stroke-width="3">0.5</text><text fill="rgb(37,37,37)" stroke="none" font-family="geogebra-sans-serif, sans-serif" font-size="12px" font-style="normal" font-weight="normal" text-decoration="normal" x="133" y="485" text-anchor="start" dominant-baseline="alphabetic" fill-opacity="1">0.5</text><text fill="rgb(37,37,37)" stroke="none" font-family="geogebra-sans-serif, sans-serif" font-size="12px" font-style="normal" font-weight="normal" text-decoration="normal" x="143" y="389" text-anchor="start" dominant-baseline="alphabetic" fill-opacity="1">1</text><text fill="none" stroke="rgb(255,255,255)" font-family="geogebra-sans-serif, sans-serif" font-size="12px" font-style="normal" font-weight="normal" text-decoration="normal" x="143" y="389" text-anchor="start" dominant-baseline="alphabetic" stroke-opacity="1" stroke-linejoin="bevel" stroke-miterlimit="10" stroke-width="3">1</text><text fill="rgb(37,37,37)" stroke="none" font-family="geogebra-sans-serif, sans-serif" font-size="12px" font-style="normal" font-weight="normal" text-decoration="normal" x="143" y="389" text-anchor="start" dominant-baseline="alphabetic" fill-opacity="1">1</text><text fill="rgb(37,37,37)" stroke="none" font-family="geogebra-sans-serif, sans-serif" font-size="12px" font-style="normal" font-weight="normal" text-decoration="normal" x="133" y="294" text-anchor="start" dominant-baseline="alphabetic" fill-opacity="1">1.5</text><text fill="none" stroke="rgb(255,255,255)" font-family="geogebra-sans-serif, sans-serif" font-size="12px" font-style="normal" font-weight="normal" text-decoration="normal" x="133" y="294" text-anchor="start" dominant-baseline="alphabetic" stroke-opacity="1" stroke-linejoin="bevel" stroke-miterlimit="10" stroke-width="3">1.5</text><text fill="rgb(37,37,37)" stroke="none" font-family="geogebra-sans-serif, sans-serif" font-size="12px" font-style="normal" font-weight="normal" text-decoration="normal" x="133" y="294" text-anchor="start" dominant-baseline="alphabetic" fill-opacity="1">1.5</text><text fill="rgb(37,37,37)" stroke="none" font-family="geogebra-sans-serif, sans-serif" font-size="12px" font-style="normal" font-weight="normal" text-decoration="normal" x="143" y="198" text-anchor="start" dominant-baseline="alphabetic" fill-opacity="1">2</text><text fill="none" stroke="rgb(255,255,255)" font-family="geogebra-sans-serif, sans-serif" font-size="12px" font-style="normal" font-weight="normal" text-decoration="normal" x="143" y="198" text-anchor="start" dominant-baseline="alphabetic" stroke-opacity="1" stroke-linejoin="bevel" stroke-miterlimit="10" stroke-width="3">2</text><text fill="rgb(37,37,37)" stroke="none" font-family="geogebra-sans-serif, sans-serif" font-size="12px" font-style="normal" font-weight="normal" text-decoration="normal" x="143" y="198" text-anchor="start" dominant-baseline="alphabetic" fill-opacity="1">2</text><text fill="rgb(37,37,37)" stroke="none" font-family="geogebra-sans-serif, sans-serif" font-size="12px" font-style="normal" font-weight="normal" text-decoration="normal" x="133" y="103" text-anchor="start" dominant-baseline="alphabetic" fill-opacity="1">2.5</text><text fill="none" stroke="rgb(255,255,255)" font-family="geogebra-sans-serif, sans-serif" font-size="12px" font-style="normal" font-weight="normal" text-decoration="normal" x="133" y="103" text-anchor="start" dominant-baseline="alphabetic" stroke-opacity="1" stroke-linejoin="bevel" stroke-miterlimit="10" stroke-width="3">2.5</text><text fill="rgb(37,37,37)" stroke="none" font-family="geogebra-sans-serif, sans-serif" font-size="12px" font-style="normal" font-weight="normal" text-decoration="normal" x="133" y="103" text-anchor="start" dominant-baseline="alphabetic" fill-opacity="1">2.5</text><text fill="rgb(37,37,37)" stroke="none" font-family="geogebra-sans-serif, sans-serif" font-size="12px" font-style="normal" font-weight="normal" text-decoration="normal" x="143" y="591" text-anchor="start" dominant-baseline="alphabetic" fill-opacity="1">0</text><text fill="none" stroke="rgb(255,255,255)" font-family="geogebra-sans-serif, sans-serif" font-size="12px" font-style="normal" font-weight="normal" text-decoration="normal" x="143" y="591" text-anchor="start" dominant-baseline="alphabetic" stroke-opacity="1" stroke-linejoin="bevel" stroke-miterlimit="10" stroke-width="3">0</text><text fill="rgb(37,37,37)" stroke="none" font-family="geogebra-sans-serif, sans-serif" font-size="12px" font-style="normal" font-weight="normal" text-decoration="normal" x="143" y="591" text-anchor="start" dominant-baseline="alphabetic" fill-opacity="1">0</text><path fill="none" stroke="rgb(46,125,50)" paint-order="fill stroke markers" d=" M 0 575.7222385252255 L 3.55078125 575.7222385252255 L 7.101562500000028 575.7222385252255 L 10.65234375 575.7222385252255 L 14.203125000000028 575.7222385252255 L 17.75390625 575.7222385252255 L 21.3046875 575.7222385252255 L 24.85546875000003 575.7222385252255 L 28.40625 575.7222385252255 L 31.957031250000014 575.7222385252255 L 35.507812500000014 575.7222385252255 L 39.05859375 575.7222385252255 L 42.609375000000014 575.7222385252255 L 46.16015625 575.7222385252255 L 49.710937500000014 575.7222385252255 L 53.261718750000014 575.7222385252255 L 56.8125 575.7222385252255 L 60.363281250000014 575.7222385252255 L 63.914062500000014 575.7222385252255 L 67.46484375000001 575.7222385252255 L 71.01562500000001 575.7222385252255 L 74.56640625000001 575.7222385252255 L 78.11718750000001 575.7222385252255 L 81.66796875000001 575.7222385252255 L 85.21875000000001 575.7222385252255 L 88.76953125000001 575.7222385252255 L 92.32031250000001 575.7222385252255 L 95.87109375000001 575.7222385252255 L 99.421875 575.7222385252255 L 102.97265625000001 575.7222385252255 L 106.5234375 575.7222385252255 L 110.07421875000003 575.7222385252255 L 113.62500000000001 575.7222385252255 L 117.17578125 575.7222385252255 L 120.72656250000001 575.7222385252255 L 124.27734375 575.7222385252255 L 127.82812500000003 575.7222385252255 L 131.37890625 575.7222385252255 L 134.9296875 575.7222385252255 L 138.48046875000003 575.7222385252255 L 142.03125 575.7222385252255 L 145.58203125000003 575.7222385252255 L 149.1328125 575.7222385252255 L 152.68359375 575.7222385252255 L 156.23437500000003 575.7222385252255 L 159.78515625 575.7222385252255 L 163.33593750000003 575.7222385252255 L 166.88671875 575.7222385252255 L 170.43750000000003 575.7222385252255 L 173.98828125 575.7222385252255 L 177.5390625 575.7222385252255 L 181.08984375000003 575.7222385252255 L 184.640625 575.7222385252255 L 188.19140625000003 575.7222385252255 L 191.7421875 575.7222385252255 L 195.29296875 575.7222385252255 L 198.84375 575.7222385252255 L 202.39453125000003 575.7222385252255 L 205.94531250000003 575.7222385252255 L 209.49609375 575.7222385252255 L 213.046875 575.7222385252255 L 214.822265625 575.7222385252255 M 214.87774658203125 480.2687435967398 L 214.89161682128906 480.2687435967398 L 215.7099609375 480.2687435967398 L 216.59765625 480.2687435967398 L 220.14843750000003 480.2687435967398 L 223.69921875000003 480.2687435967398 L 227.25 480.2687435967398 L 230.80078125 480.2687435967398 L 234.3515625 480.2687435967398 L 237.90234375000003 480.2687435967398 L 241.453125 480.2687435967398 L 245.00390625 480.2687435967398 L 248.5546875 480.2687435967398 L 252.10546875 480.2687435967398 L 255.65625000000003 480.2687435967398 L 259.20703125 480.2687435967398 L 262.7578125 480.2687435967398 L 266.30859375 480.2687435967398 L 269.859375 480.2687435967398 L 273.41015625 480.2687435967398 L 276.9609375 480.2687435967398 L 280.51171875 480.2687435967398 L 284.0625 480.2687435967398 L 287.61328125 480.2687435967398 L 291.1640625 480.2687435967398 L 294.71484375 480.2687435967398 L 298.265625 480.2687435967398 L 301.81640625 480.2687435967398 L 305.3671875 480.2687435967398 L 308.91796875 480.2687435967398 L 312.46875 480.2687435967398 L 316.01953125 480.2687435967398 L 319.5703125 480.2687435967398 L 323.12109375 480.2687435967398 L 326.671875 480.2687435967398 L 330.22265625 480.2687435967398 L 333.7734375 480.2687435967398 L 337.32421875 480.2687435967398 L 340.875 480.2687435967398 L 344.42578125 480.2687435967398 L 347.9765625 480.2687435967398 L 351.52734375 480.2687435967398 L 355.078125 480.2687435967398 L 358.62890625 480.2687435967398 L 362.1796875 480.2687435967398 L 365.73046875 480.2687435967398 L 369.28125 480.2687435967398 L 372.83203125 480.2687435967398 L 376.3828125 480.2687435967398 L 379.93359375 480.2687435967398 L 383.484375 480.2687435967398 L 387.03515625 480.2687435967398 L 390.5859375 480.2687435967398 L 394.13671875 480.2687435967398 L 397.6875 480.2687435967398 L 401.23828125 480.2687435967398 L 404.78906250000006 480.2687435967398 L 408.33984375 480.2687435967398 L 411.890625 480.2687435967398 L 415.44140625 480.2687435967398 L 418.9921875 480.2687435967398 L 422.54296875 480.2687435967398 L 426.09375 480.2687435967398 L 429.64453125 480.2687435967398 L 433.1953125 480.2687435967398 L 436.74609375 480.2687435967398 L 440.296875 480.2687435967398 L 443.84765625 480.2687435967398 L 447.3984375 480.2687435967398 L 450.94921875 480.2687435967398 L 454.5 480.2687435967398 L 458.05078125 480.2687435967398 L 461.6015625 480.2687435967398 L 465.15234375 480.2687435967398 L 468.703125 480.2687435967398 L 472.25390625 480.2687435967398 L 475.8046875 480.2687435967398 L 479.35546875 480.2687435967398 L 482.90625 480.2687435967398 L 486.45703125 480.2687435967398 L 490.0078125 480.2687435967398 L 493.55859375 480.2687435967398 L 497.109375 480.2687435967398 L 500.66015625 480.2687435967398 L 504.2109375 480.2687435967398 L 507.76171875 480.2687435967398 L 511.3125 480.2687435967398 L 514.86328125 480.2687435967398 L 518.4140625 480.2687435967398 L 521.96484375 480.2687435967398 L 525.515625 480.2687435967398 L 529.06640625 480.2687435967398 L 532.6171875 480.2687435967398 L 536.16796875 480.2687435967398 L 539.7187499999999 480.2687435967398 L 543.2695312500001 480.2687435967398 L 546.8203125000001 480.2687435967398 L 550.3710937500001 480.2687435967398 L 553.9218750000001 480.2687435967398 L 557.4726562500001 480.2687435967398 L 561.0234375 480.2687435967398 L 564.57421875 480.2687435967398 L 568.125 480.2687435967398 L 571.67578125 480.2687435967398 L 575.2265625 480.2687435967398 L 578.77734375 480.2687435967398 L 582.328125 480.2687435967398 L 585.87890625 480.2687435967398 L 589.4296875 480.2687435967398 L 592.98046875 480.2687435967398 L 596.53125 480.2687435967398 M 596.6838226318358 575.7222385252255 L 596.6976928710938 575.7222385252255 L 597.4189453125 575.7222385252255 L 598.306640625 575.7222385252255 L 600.08203125 575.7222385252255 L 603.6328125 575.7222385252255 L 607.1835937499999 575.7222385252255 L 610.7343749999999 575.7222385252255 L 614.2851562500001 575.7222385252255 L 617.8359375000001 575.7222385252255 L 621.3867187500001 575.7222385252255 L 624.9375000000001 575.7222385252255 L 628.4882812500001 575.7222385252255 L 632.0390625 575.7222385252255 L 635.58984375 575.7222385252255 L 639.140625 575.7222385252255 L 642.69140625 575.7222385252255 L 646.2421875 575.7222385252255 L 649.79296875 575.7222385252255 L 653.34375 575.7222385252255 L 656.89453125 575.7222385252255 L 660.4453125 575.7222385252255 L 663.99609375 575.7222385252255 L 667.546875 575.7222385252255 L 671.0976562499999 575.7222385252255 L 674.6484374999999 575.7222385252255 L 678.1992187499999 575.7222385252255 L 681.7500000000001 575.7222385252255 L 685.3007812500001 575.7222385252255 L 688.8515625 575.7222385252255 L 692.40234375 575.7222385252255 L 695.953125 575.7222385252255 L 699.50390625 575.7222385252255 L 703.0546875 575.7222385252255 L 706.60546875 575.7222385252255 L 710.15625 575.7222385252255 L 713.70703125 575.7222385252255 L 717.2578125 575.7222385252255 L 720.80859375 575.7222385252255 L 724.359375 575.7222385252255 L 727.91015625 575.7222385252255 L 731.4609375 575.7222385252255 L 735.0117187499999 575.7222385252255 L 738.5624999999999 575.7222385252255 L 742.1132812499999 575.7222385252255 L 745.6640624999999 575.7222385252255 L 749.2148437499999 575.7222385252255 L 752.7656250000001 575.7222385252255 L 756.3164062500001 575.7222385252255 L 759.8671875 575.7222385252255 L 763.41796875 575.7222385252255 L 766.96875 575.7222385252255 L 770.51953125 575.7222385252255 L 774.0703125 575.7222385252255 L 777.62109375 575.7222385252255 L 781.171875 575.7222385252255 L 784.72265625 575.7222385252255 L 788.2734375 575.7222385252255 L 791.82421875 575.7222385252255 L 795.375 575.7222385252255 L 798.92578125 575.7222385252255 L 802.4765625 575.7222385252255 L 806.0273437500001 575.7222385252255 L 809.5781250000001 575.7222385252255 L 813.1289062500001 575.7222385252255 L 816.6796875000001 575.7222385252255 L 820.2304687500001 575.7222385252255 L 823.7812500000001 575.7222385252255 L 827.3320312500001 575.7222385252255 L 830.8828125 575.7222385252255 L 834.43359375 575.7222385252255 L 837.984375 575.7222385252255 L 841.53515625 575.7222385252255 L 845.0859375 575.7222385252255 L 848.63671875 575.7222385252255 L 852.1875 575.7222385252255 L 855.73828125 575.7222385252255 L 859.2890625 575.7222385252255 L 862.83984375 575.7222385252255 L 866.390625 575.7222385252255 L 869.94140625 575.7222385252255 L 873.4921875 575.7222385252255 L 877.0429687500001 575.7222385252255 L 880.5937500000001 575.7222385252255 L 884.1445312500001 575.7222385252255 L 887.6953125000001 575.7222385252255 L 891.2460937500001 575.7222385252255 L 894.7968750000001 575.7222385252255 L 898.34765625 575.7222385252255 L 901.8984375 575.7222385252255 L 905.44921875 575.7222385252255 L 909 575.7222385252255" stroke-opacity="0.8" stroke-linecap="round" stroke-linejoin="round" stroke-miterlimit="10" stroke-width="2.5"/><path fill="none" stroke="rgb(21,101,192)" paint-order="fill stroke markers" d=" M 0 575.7222385252255 L 3.55078125 575.7222385252255 L 7.101562500000028 575.7222385252255 L 10.65234375 575.7222385252255 L 14.203125000000028 575.7222385252255 L 17.75390625 575.7222385252255 L 21.3046875 575.7222385252255 L 24.85546875000003 575.7222385252255 L 28.40625 575.7222385252255 L 31.957031250000014 575.7222385252255 L 35.507812500000014 575.7222385252255 L 39.05859375 575.7222385252255 L 42.609375000000014 575.7222385252255 L 46.16015625 575.7222385252255 L 49.710937500000014 575.7222385252255 L 53.261718750000014 575.7222385252255 L 56.8125 575.7222385252255 L 60.363281250000014 575.7222385252255 L 63.914062500000014 575.7222385252255 L 67.46484375000001 575.7222385252255 L 71.01562500000001 575.7222385252255 L 74.56640625000001 575.7222385252255 L 78.11718750000001 575.7222385252255 L 81.66796875000001 575.7222385252255 L 85.21875000000001 575.7222385252255 L 88.76953125000001 575.7222385252255 L 92.32031250000001 575.7222385252255 L 95.87109375000001 575.7222385252255 L 99.421875 575.7222385252255 L 102.97265625000001 575.7222385252255 L 106.5234375 575.7222385252255 L 110.07421875000003 575.7222385252255 L 113.62500000000001 575.7222385252255 L 117.17578125 575.7222385252255 L 120.72656250000001 575.7222385252255 L 124.27734375 575.7222385252255 L 127.82812500000003 575.7222385252255 L 131.37890625 575.7222385252255 L 134.9296875 575.7222385252255 L 138.48046875000003 575.7222385252255 L 142.03125 575.7222385252255 L 145.58203125000003 575.7222385252255 L 149.1328125 575.7222385252255 L 152.68359375 575.7222385252255 L 156.23437500000003 575.7222385252255 L 159.78515625 575.7222385252255 L 163.33593750000003 575.7222385252255 L 166.88671875 575.7222385252255 L 170.43750000000003 575.7222385252255 L 173.98828125 575.7222385252255 L 177.5390625 575.7222385252255 L 181.08984375000003 575.7222385252255 L 184.640625 575.7222385252255 L 188.19140625000003 575.7222385252255 L 191.7421875 575.7222385252255 L 195.29296875 575.7222385252255 L 198.84375 575.7222385252255 L 202.39453125000003 575.7222385252255 L 205.94531250000003 575.7222385252255 L 209.49609375 575.7222385252255 L 213.046875 575.7222385252255 L 214.822265625 575.7222385252255 L 215.7099609375 575.3000394148493 L 216.59765625 574.8561917585993 L 220.14843750000003 573.0808011335993 L 223.69921875000003 571.3054105085993 L 227.25 569.5300198835993 L 230.80078125 567.7546292585993 L 234.3515625 565.9792386335994 L 237.90234375000003 564.2038480085993 L 241.453125 562.4284573835994 L 245.00390625 560.6530667585994 L 248.5546875 558.8776761335994 L 252.10546875 557.1022855085994 L 255.65625000000003 555.3268948835994 L 259.20703125 553.5515042585994 L 262.7578125 551.7761136335994 L 266.30859375 550.0007230085994 L 269.859375 548.2253323835994 L 273.41015625 546.4499417585994 L 276.9609375 544.6745511335994 L 280.51171875 542.8991605085994 L 284.0625 541.1237698835994 L 287.61328125 539.3483792585994 L 291.1640625 537.5729886335994 L 294.71484375 535.7975980085994 L 298.265625 534.0222073835995 L 301.81640625 532.2468167585995 L 305.3671875 530.4714261335995 L 308.91796875 528.6960355085995 L 312.46875 526.9206448835995 L 316.01953125 525.1452542585995 L 319.5703125 523.3698636335995 L 323.12109375 521.5944730085995 L 326.671875 519.8190823835995 L 330.22265625 518.0436917585995 L 333.7734375 516.2683011335995 L 337.32421875 514.4929105085995 L 340.875 512.7175198835995 L 344.42578125 510.9421292585995 L 347.9765625 509.16673863359955 L 351.52734375 507.39134800859955 L 355.078125 505.61595738359955 L 358.62890625 503.84056675859955 L 362.1796875 502.06517613359955 L 365.73046875 500.2897855085996 L 369.28125 498.5143948835996 L 372.83203125 496.7390042585996 L 376.3828125 494.9636136335996 L 379.93359375 493.1882230085996 L 383.484375 491.4128323835996 L 387.03515625 489.6374417585996 L 390.5859375 487.8620511335996 L 394.13671875 486.08666050859966 L 397.6875 484.31126988359966 L 401.23828125 482.53587925859966 L 404.78906250000006 480.7604886335996 L 408.33984375 478.9850980085996 L 411.890625 477.20970738359966 L 415.44140625 475.43431675859966 L 418.9921875 473.65892613359966 L 422.54296875 471.88353550859966 L 426.09375 470.1081448835997 L 429.64453125 468.3327542585997 L 433.1953125 466.5573636335997 L 436.74609375 464.7819730085997 L 440.296875 463.0065823835997 L 443.84765625 461.2311917585997 L 447.3984375 459.4558011335997 L 450.94921875 457.6804105085997 L 454.5 455.9050198835997 L 458.05078125 454.1296292585997 L 461.6015625 452.3542386335998 L 465.15234375 450.5788480085998 L 468.703125 448.8034573835998 L 472.25390625 447.0280667585997 L 475.8046875 445.2526761335998 L 479.35546875 443.4772855085998 L 482.90625 441.70189488359983 L 486.45703125 439.92650425859983 L 490.0078125 438.15111363359983 L 493.55859375 436.37572300859983 L 497.109375 434.60033238359983 L 500.66015625 432.82494175859983 L 504.2109375 431.04955113359983 L 507.76171875 429.27416050859983 L 511.3125 427.49876988359983 L 514.86328125 425.72337925859983 L 518.4140625 423.94798863359983 L 521.96484375 422.17259800859983 L 525.515625 420.3972073835999 L 529.06640625 418.6218167585999 L 532.6171875 416.84642613359995 L 536.16796875 415.07103550859995 L 539.7187499999999 413.29564488359995 L 543.2695312500001 411.5202542585999 L 546.8203125000001 409.7448636335999 L 550.3710937500001 407.9694730085999 L 553.9218750000001 406.19408238359995 L 557.4726562500001 404.41869175859995 L 561.0234375 402.64330113359995 L 564.57421875 400.86791050859995 L 568.125 399.09251988359995 L 571.67578125 397.31712925859995 L 575.2265625 395.54173863359995 L 578.77734375 393.7663480086 L 582.328125 391.9909573836 L 585.87890625 390.2155667586 L 589.4296875 388.44017613360006 L 592.98046875 386.66478550860006 L 596.53125 384.88939488360006 L 597.4189453125 384.81524866825407 L 598.306640625 384.81524866825407 L 600.08203125 384.81524866825407 L 603.6328125 384.81524866825407 L 607.1835937499999 384.81524866825407 L 610.7343749999999 384.81524866825407 L 614.2851562500001 384.81524866825407 L 617.8359375000001 384.81524866825407 L 621.3867187500001 384.81524866825407 L 624.9375000000001 384.81524866825407 L 628.4882812500001 384.81524866825407 L 632.0390625 384.81524866825407 L 635.58984375 384.81524866825407 L 639.140625 384.81524866825407 L 642.69140625 384.81524866825407 L 646.2421875 384.81524866825407 L 649.79296875 384.81524866825407 L 653.34375 384.81524866825407 L 656.89453125 384.81524866825407 L 660.4453125 384.81524866825407 L 663.99609375 384.81524866825407 L 667.546875 384.81524866825407 L 671.0976562499999 384.81524866825407 L 674.6484374999999 384.81524866825407 L 678.1992187499999 384.81524866825407 L 681.7500000000001 384.81524866825407 L 685.3007812500001 384.81524866825407 L 688.8515625 384.81524866825407 L 692.40234375 384.81524866825407 L 695.953125 384.81524866825407 L 699.50390625 384.81524866825407 L 703.0546875 384.81524866825407 L 706.60546875 384.81524866825407 L 710.15625 384.81524866825407 L 713.70703125 384.81524866825407 L 717.2578125 384.81524866825407 L 720.80859375 384.81524866825407 L 724.359375 384.81524866825407 L 727.91015625 384.81524866825407 L 731.4609375 384.81524866825407 L 735.0117187499999 384.81524866825407 L 738.5624999999999 384.81524866825407 L 742.1132812499999 384.81524866825407 L 745.6640624999999 384.81524866825407 L 749.2148437499999 384.81524866825407 L 752.7656250000001 384.81524866825407 L 756.3164062500001 384.81524866825407 L 759.8671875 384.81524866825407 L 763.41796875 384.81524866825407 L 766.96875 384.81524866825407 L 770.51953125 384.81524866825407 L 774.0703125 384.81524866825407 L 777.62109375 384.81524866825407 L 781.171875 384.81524866825407 L 784.72265625 384.81524866825407 L 788.2734375 384.81524866825407 L 791.82421875 384.81524866825407 L 795.375 384.81524866825407 L 798.92578125 384.81524866825407 L 802.4765625 384.81524866825407 L 806.0273437500001 384.81524866825407 L 809.5781250000001 384.81524866825407 L 813.1289062500001 384.81524866825407 L 816.6796875000001 384.81524866825407 L 820.2304687500001 384.81524866825407 L 823.7812500000001 384.81524866825407 L 827.3320312500001 384.81524866825407 L 830.8828125 384.81524866825407 L 834.43359375 384.81524866825407 L 837.984375 384.81524866825407 L 841.53515625 384.81524866825407 L 845.0859375 384.81524866825407 L 848.63671875 384.81524866825407 L 852.1875 384.81524866825407 L 855.73828125 384.81524866825407 L 859.2890625 384.81524866825407 L 862.83984375 384.81524866825407 L 866.390625 384.81524866825407 L 869.94140625 384.81524866825407 L 873.4921875 384.81524866825407 L 877.0429687500001 384.81524866825407 L 880.5937500000001 384.81524866825407 L 884.1445312500001 384.81524866825407 L 887.6953125000001 384.81524866825407 L 891.2460937500001 384.81524866825407 L 894.7968750000001 384.81524866825407 L 898.34765625 384.81524866825407 L 901.8984375 384.81524866825407 L 905.44921875 384.81524866825407 L 909 384.81524866825407" stroke-opacity="0.8" stroke-linecap="round" stroke-linejoin="round" stroke-miterlimit="10" stroke-width="2.5"/><path fill="none" stroke="rgb(0,0,0)" paint-order="fill stroke markers" d=" M 38.5 98.5 L 238.5 98.5" stroke-opacity="0.39215686274509803" stroke-linecap="round" stroke-linejoin="round" stroke-miterlimit="10" stroke-width="5"/><path fill="rgb(0,0,0)" stroke="none" paint-order="stroke fill markers" d=" M 153.00000000000003 98.5 C 153.00000000000003 103.19442037356174 149.19442037356177 107 144.50000000000003 107 C 139.8055796264383 107 136.00000000000003 103.19442037356174 136.00000000000003 98.5 C 136.00000000000003 93.80557962643826 139.8055796264383 90 144.50000000000003 90 C 149.19442037356177 90 153.00000000000003 93.80557962643826 153.00000000000003 98.5 Z" fill-opacity="0.39215686274509803"/><path fill="none" stroke="rgb(0,0,0)" paint-order="fill stroke markers" d=" M 153.00000000000003 98.5 C 153.00000000000003 103.19442037356174 149.19442037356177 107 144.50000000000003 107 C 139.8055796264383 107 136.00000000000003 103.19442037356174 136.00000000000003 98.5 C 136.00000000000003 93.80557962643826 139.8055796264383 90 144.50000000000003 90 C 149.19442037356177 90 153.00000000000003 93.80557962643826 153.00000000000003 98.5 Z" stroke-opacity="0.39215686274509803" stroke-linecap="round" stroke-linejoin="round" stroke-miterlimit="10"/><path fill="rgb(0,0,0)" stroke="none" paint-order="stroke fill markers" d=" M 150.00000000000003 98.5 C 150.00000000000003 101.53756612406936 147.5375661240694 104 144.50000000000003 104 C 141.46243387593066 104 139.00000000000003 101.53756612406936 139.00000000000003 98.5 C 139.00000000000003 95.46243387593064 141.46243387593066 93 144.50000000000003 93 C 147.5375661240694 93 150.00000000000003 95.46243387593064 150.00000000000003 98.5 Z" fill-opacity="1"/><path fill="none" stroke="rgb(0,0,0)" paint-order="fill stroke markers" d=" M 150.00000000000003 98.5 C 150.00000000000003 101.53756612406936 147.5375661240694 104 144.50000000000003 104 C 141.46243387593066 104 139.00000000000003 101.53756612406936 139.00000000000003 98.5 C 139.00000000000003 95.46243387593064 141.46243387593066 93 144.50000000000003 93 C 147.5375661240694 93 150.00000000000003 95.46243387593064 150.00000000000003 98.5 Z" stroke-opacity="1" stroke-linecap="round" stroke-linejoin="round" stroke-miterlimit="10"/><text fill="rgb(0,0,0)" stroke="none" font-family="geogebra-sans-serif, sans-serif" font-size="16px" font-style="normal" font-weight="normal" text-decoration="normal" x="133" y="83" text-anchor="start" dominant-baseline="alphabetic" fill-opacity="1">a = 0.3</text><text fill="none" stroke="rgb(255,255,255)" font-family="geogebra-sans-serif, sans-serif" font-size="16px" font-style="normal" font-weight="normal" text-decoration="normal" x="133" y="83" text-anchor="start" dominant-baseline="alphabetic" stroke-opacity="1" stroke-linejoin="bevel" stroke-miterlimit="10" stroke-width="3">a = 0.3</text><text fill="rgb(0,0,0)" stroke="none" font-family="geogebra-sans-serif, sans-serif" font-size="16px" font-style="normal" font-weight="normal" text-decoration="normal" x="133" y="83" text-anchor="start" dominant-baseline="alphabetic" fill-opacity="1">a = 0.3</text><path fill="none" stroke="rgb(0,0,0)" paint-order="fill stroke markers" d=" M 38.5 138.5 L 238.5 138.5" stroke-opacity="0.39215686274509803" stroke-linecap="round" stroke-linejoin="round" stroke-miterlimit="10" stroke-width="5"/><path fill="rgb(0,0,0)" stroke="none" paint-order="stroke fill markers" d=" M 193 138.5 C 193 143.19442037356174 189.19442037356174 147 184.5 147 C 179.80557962643826 147 176 143.19442037356174 176 138.5 C 176 133.80557962643826 179.80557962643826 130 184.5 130 C 189.19442037356174 130 193 133.80557962643826 193 138.5 Z" fill-opacity="0.39215686274509803"/><path fill="none" stroke="rgb(0,0,0)" paint-order="fill stroke markers" d=" M 193 138.5 C 193 143.19442037356174 189.19442037356174 147 184.5 147 C 179.80557962643826 147 176 143.19442037356174 176 138.5 C 176 133.80557962643826 179.80557962643826 130 184.5 130 C 189.19442037356174 130 193 133.80557962643826 193 138.5 Z" stroke-opacity="0.39215686274509803" stroke-linecap="round" stroke-linejoin="round" stroke-miterlimit="10"/><path fill="rgb(0,0,0)" stroke="none" paint-order="stroke fill markers" d=" M 190 138.5 C 190 141.53756612406937 187.53756612406937 144 184.5 144 C 181.46243387593063 144 179 141.53756612406937 179 138.5 C 179 135.46243387593063 181.46243387593063 133 184.5 133 C 187.53756612406937 133 190 135.46243387593063 190 138.5 Z" fill-opacity="1"/><path fill="none" stroke="rgb(0,0,0)" paint-order="fill stroke markers" d=" M 190 138.5 C 190 141.53756612406937 187.53756612406937 144 184.5 144 C 181.46243387593063 144 179 141.53756612406937 179 138.5 C 179 135.46243387593063 181.46243387593063 133 184.5 133 C 187.53756612406937 133 190 135.46243387593063 190 138.5 Z" stroke-opacity="1" stroke-linecap="round" stroke-linejoin="round" stroke-miterlimit="10"/><text fill="rgb(0,0,0)" stroke="none" font-family="geogebra-sans-serif, sans-serif" font-size="16px" font-style="normal" font-weight="normal" text-decoration="normal" x="173" y="123" text-anchor="start" dominant-baseline="alphabetic" fill-opacity="1">b = 2.3</text><text fill="none" stroke="rgb(255,255,255)" font-family="geogebra-sans-serif, sans-serif" font-size="16px" font-style="normal" font-weight="normal" text-decoration="normal" x="173" y="123" text-anchor="start" dominant-baseline="alphabetic" stroke-opacity="1" stroke-linejoin="bevel" stroke-miterlimit="10" stroke-width="3">b = 2.3</text><text fill="rgb(0,0,0)" stroke="none" font-family="geogebra-sans-serif, sans-serif" font-size="16px" font-style="normal" font-weight="normal" text-decoration="normal" x="173" y="123" text-anchor="start" dominant-baseline="alphabetic" fill-opacity="1">b = 2.3</text><g transform="scale(35,35)"><g transform="translate(5.885714285714286,17.116714285714288)"><path fill="rgb(211,47,47)" stroke="none" paint-order="stroke fill markers" d=" M 0.373 -0.378 Q 0.378 -0.41200000000000003 0.404 -0.42 Q 0.40900000000000003 -0.422 0.41500000000000004 -0.422 Q 0.441 -0.422 0.444 -0.395 Q 0.444 -0.389 0.437 -0.361 L 0.401 -0.221 Q 0.386 -0.158 0.379 -0.131 Q 0.366 -0.079 0.366 -0.057 Q 0.366 -0.011 0.396 -0.011 Q 0.434 -0.011 0.46 -0.091 Q 0.465 -0.108 0.47200000000000003 -0.135 Q 0.48 -0.152 0.486 -0.153 Q 0.498 -0.153 0.498 -0.14300000000000002 Q 0.498 -0.128 0.48 -0.073 Q 0.47400000000000003 -0.056 0.468 -0.044 Q 0.44 0.011 0.394 0.011 Q 0.338 0.011 0.313 -0.037 Q 0.306 -0.049 0.303 -0.064 Q 0.24 0.011 0.17300000000000001 0.011 Q 0.098 0.011 0.062 -0.057 Q 0.04 -0.097 0.04 -0.149 Q 0.04 -0.257 0.115 -0.34900000000000003 Q 0.185 -0.433 0.267 -0.441 Q 0.274 -0.442 0.281 -0.442 Q 0.342 -0.442 0.373 -0.378 M 0.308 -0.11900000000000001 L 0.308 -0.11900000000000001 L 0.358 -0.315 Q 0.361 -0.33 0.361 -0.332 Q 0.361 -0.353 0.343 -0.383 Q 0.321 -0.42 0.28200000000000003 -0.42 Q 0.23 -0.42 0.183 -0.352 Q 0.17400000000000002 -0.339 0.166 -0.324 Q 0.137 -0.266 0.117 -0.159 Q 0.111 -0.125 0.111 -0.105 Q 0.111 -0.037 0.149 -0.017 Q 0.16 -0.011 0.17500000000000002 -0.011 Q 0.231 -0.011 0.28800000000000003 -0.082 Q 0.302 -0.098 0.307 -0.115 L 0.307 -0.116 Q 0.308 -0.11800000000000001 0.308 -0.11900000000000001 Z"/></g></g><g transform="scale(35,35)"><g transform="translate(16.742857142857144,17.208285714285715)"><path fill="rgb(211,47,47)" stroke="none" paint-order="stroke fill markers" d=" M 0.23900000000000002 -0.683 L 0.165 -0.382 Q 0.223 -0.442 0.28200000000000003 -0.442 Q 0.357 -0.442 0.394 -0.373 Q 0.41500000000000004 -0.333 0.41500000000000004 -0.28200000000000003 Q 0.41500000000000004 -0.176 0.341 -0.084 Q 0.272 0.001 0.189 0.01 Q 0.181 0.011 0.17400000000000002 0.011 Q 0.10200000000000001 0.011 0.067 -0.056 Q 0.047 -0.094 0.047 -0.146 Q 0.047 -0.18 0.063 -0.247 L 0.145 -0.5730000000000001 Q 0.159 -0.632 0.159 -0.635 Q 0.159 -0.646 0.145 -0.649 L 0.145 -0.649 Q 0.133 -0.652 0.109 -0.652 Q 0.08700000000000001 -0.652 0.085 -0.664 Q 0.085 -0.681 0.10400000000000001 -0.684 L 0.226 -0.6940000000000001 Q 0.23900000000000002 -0.6940000000000001 0.23900000000000002 -0.683 M 0.145 -0.305 L 0.123 -0.213 Q 0.107 -0.15 0.107 -0.112 Q 0.107 -0.026000000000000002 0.159 -0.013000000000000001 Q 0.166 -0.011 0.17400000000000002 -0.011 Q 0.227 -0.011 0.273 -0.081 Q 0.28300000000000003 -0.096 0.292 -0.114 Q 0.319 -0.171 0.337 -0.268 Q 0.343 -0.303 0.343 -0.326 Q 0.343 -0.406 0.294 -0.418 L 0.293 -0.419 Q 0.28700000000000003 -0.42 0.28 -0.42 Q 0.22 -0.42 0.16 -0.34 Q 0.152 -0.33 0.145 -0.305 Z"/></g></g><path fill="rgb(101,87,210)" stroke="none" paint-order="stroke fill markers" fill-rule="evenodd" d=" M 760.5 384 L 813.5 384 C 815.4329966244078 384 817 385.5670033755922 817 387.5 L 817 414.5 C 817 416.4329966244078 815.4329966244078 418 813.5 418 L 760.5 418 C 758.5670033755922 418 757 416.4329966244078 757 414.5 L 757 387.5 C 757 385.5670033755922 758.5670033755922 384 760.5 384 Z" fill-opacity="1"/><path fill="none" stroke="rgb(70,60,147)" paint-order="fill stroke markers" d=" M 760.5 384 L 813.5 384 C 815.4329966244078 384 817 385.5670033755922 817 387.5 L 817 414.5 C 817 416.4329966244078 815.4329966244078 418 813.5 418 L 760.5 418 C 758.5670033755922 418 757 416.4329966244078 757 414.5 L 757 387.5 C 757 385.5670033755922 758.5670033755922 384 760.5 384 Z" stroke-opacity="1" stroke-linecap="round" stroke-linejoin="round" stroke-miterlimit="10"/><text fill="rgb(255,255,255)" stroke="none" font-family="geogebra-sans-serif, sans-serif" font-size="24px" font-style="normal" font-weight="normal" text-decoration="normal" x="767" y="411" text-anchor="start" dominant-baseline="alphabetic" fill-opacity="1">F(x)</text><path fill="rgb(101,87,210)" stroke="none" paint-order="stroke fill markers" fill-rule="evenodd" d=" M 465.5 479 L 514.5 479 C 516.4329966244078 479 518 480.5670033755922 518 482.5 L 518 509.5 C 518 511.4329966244078 516.4329966244078 513 514.5 513 L 465.5 513 C 463.5670033755922 513 462 511.4329966244078 462 509.5 L 462 482.5 C 462 480.5670033755922 463.5670033755922 479 465.5 479 Z" fill-opacity="1"/><path fill="none" stroke="rgb(70,60,147)" paint-order="fill stroke markers" d=" M 465.5 479 L 514.5 479 C 516.4329966244078 479 518 480.5670033755922 518 482.5 L 518 509.5 C 518 511.4329966244078 516.4329966244078 513 514.5 513 L 465.5 513 C 463.5670033755922 513 462 511.4329966244078 462 509.5 L 462 482.5 C 462 480.5670033755922 463.5670033755922 479 465.5 479 Z" stroke-opacity="1" stroke-linecap="round" stroke-linejoin="round" stroke-miterlimit="10"/><text fill="rgb(255,255,255)" stroke="none" font-family="geogebra-sans-serif, sans-serif" font-size="24px" font-style="normal" font-weight="normal" text-decoration="normal" x="472" y="506" text-anchor="start" dominant-baseline="alphabetic" fill-opacity="1">f(x)</text></g></g></svg>